<svg width="1200" height="630" viewBox="0 0 1200 630" fill="none" xmlns="http://www.w3.org/2000/svg">
<g clip-path="url(#clip0_2_129)">
<rect width="1200" height="630" fill="white"/>
<rect width="1200" height="630" fill="#A6A4FA"/>
<path d="M263.95 89.11C262.737 89.37 261.783 89.8467 261.09 90.54C260.917 90.7133 260.743 91.0167 260.57 91.45C260.483 91.7967 260.397 92.0567 260.31 92.23C260.137 92.49 259.963 94.0067 259.79 96.78C259.703 99.5533 259.617 102.847 259.53 106.66C259.443 110.473 259.4 114.46 259.4 118.62C259.4 122.693 259.53 126.247 259.79 129.28C260.05 131.793 260.7 134.263 261.74 136.69C262.867 139.03 264.687 140.547 267.2 141.24C269.107 141.413 270.883 141.153 272.53 140.46C274.263 139.68 275.563 138.423 276.43 136.69C277.383 134.697 277.773 132.617 277.6 130.45C277.513 128.197 277.687 125.987 278.12 123.82C279.333 123.993 280.677 124.037 282.15 123.95C283.71 123.863 285.27 123.82 286.83 123.82C288.39 123.82 289.907 123.863 291.38 123.95C292.94 124.037 294.327 124.253 295.54 124.6C297.013 129.107 297.403 133.613 296.71 138.12C296.017 142.54 294.5 146.527 292.16 150.08C289.82 153.633 286.743 156.58 282.93 158.92C279.203 161.173 274.957 162.343 270.19 162.43C267.07 162.863 263.863 162.863 260.57 162.43C257.277 162.083 254.2 161.26 251.34 159.96C248.48 158.573 246.053 156.667 244.06 154.24C242.153 151.813 241.027 148.78 240.68 145.14C240.507 142.02 240.377 138.77 240.29 135.39C240.203 132.01 240.117 128.24 240.03 124.08C240.03 119.833 240.03 115.067 240.03 109.78C240.117 104.407 240.203 98.21 240.29 91.19C240.117 89.7167 240.16 88.2433 240.42 86.77C240.767 85.21 241.2 83.78 241.72 82.48C242.5 80.2267 243.453 78.1467 244.58 76.24C245.793 74.3333 247.223 72.6433 248.87 71.17C249.823 70.4767 250.863 69.9133 251.99 69.48C253.117 68.96 254.287 68.5267 255.5 68.18C259.487 66.88 263.43 66.36 267.33 66.62C271.23 66.88 274.87 67.79 278.25 69.35C281.717 70.8233 284.837 72.8167 287.61 75.33C290.383 77.8433 292.593 80.7467 294.24 84.04C295.887 87.2467 296.883 90.7567 297.23 94.57C297.577 98.3833 297.057 102.283 295.67 106.27C292.463 106.963 289.3 107.223 286.18 107.05C283.147 106.79 279.983 106.357 276.69 105.75C276.43 104.103 276.257 102.24 276.17 100.16C276.17 98.08 275.953 96.1733 275.52 94.44C275.087 92.62 274.263 91.1467 273.05 90.02C271.923 88.8933 270.103 88.3733 267.59 88.46C266.463 88.6333 265.25 88.85 263.95 89.11ZM304.157 105.62C304.677 103.973 305.067 102.673 305.327 101.72C305.933 100.42 306.887 99.2933 308.187 98.34C309.573 97.3867 311.133 96.6067 312.867 96C314.687 95.3067 316.593 94.83 318.587 94.57C320.667 94.31 322.747 94.18 324.827 94.18C326.56 94.3533 328.207 94.3967 329.767 94.31C331.413 94.1367 333.147 94.1367 334.967 94.31C337.74 94.4833 340.383 95.0467 342.897 96C345.41 96.8667 347.577 98.1667 349.397 99.9C350.61 100.68 351.563 101.937 352.257 103.67C352.95 105.403 353.47 107.44 353.817 109.78C354.163 112.033 354.38 114.547 354.467 117.32C354.553 120.007 354.64 122.78 354.727 125.64C354.64 128.153 354.51 131.013 354.337 134.22C354.25 137.427 354.033 140.503 353.687 143.45C353.427 146.397 353.037 149.04 352.517 151.38C352.083 153.72 351.433 155.323 350.567 156.19C349.093 158.27 347.143 159.743 344.717 160.61C342.377 161.477 339.82 161.997 337.047 162.17C334.273 162.43 331.413 162.43 328.467 162.17C325.52 161.997 322.833 161.91 320.407 161.91C315.987 161.13 312.26 159.223 309.227 156.19C306.887 154.11 305.283 151.51 304.417 148.39C303.55 145.27 303.03 142.02 302.857 138.64C302.683 135.173 302.64 131.707 302.727 128.24C302.9 124.773 302.857 121.61 302.597 118.75C302.597 117.19 302.64 115.673 302.727 114.2C302.813 112.64 302.987 111.037 303.247 109.39C303.333 108.437 303.637 107.18 304.157 105.62ZM325.997 114.2C324.177 114.72 322.703 115.673 321.577 117.06C321.057 117.407 320.667 118.273 320.407 119.66C320.06 122.433 319.887 125.207 319.887 127.98C319.887 130.667 319.8 133.527 319.627 136.56C319.54 138.553 320.06 140.113 321.187 141.24C322.313 142.28 323.657 143.017 325.217 143.45C326.863 143.797 328.553 143.883 330.287 143.71C332.02 143.45 333.45 143.017 334.577 142.41C336.05 141.717 337.047 140.287 337.567 138.12C337.913 135.347 338.173 132.573 338.347 129.8C338.607 126.94 338.477 124.253 337.957 121.74C337.523 118.707 336.267 116.497 334.187 115.11C332.107 113.723 329.377 113.42 325.997 114.2ZM379.458 99.77C379.458 100.723 379.501 101.807 379.588 103.02C380.021 102.76 380.541 102.457 381.148 102.11C381.841 101.763 382.405 101.417 382.838 101.07C384.658 99.77 386.695 98.73 388.948 97.95C391.201 97.17 393.498 96.7367 395.838 96.65C398.265 96.5633 400.605 96.8233 402.858 97.43C405.111 98.0367 407.148 99.12 408.968 100.68C409.401 101.113 409.835 101.85 410.268 102.89C410.701 102.63 411.221 102.37 411.828 102.11C412.435 101.763 412.955 101.417 413.388 101.07C415.208 99.77 417.245 98.73 419.498 97.95C421.751 97.17 424.048 96.7367 426.388 96.65C428.815 96.5633 431.155 96.8233 433.408 97.43C435.661 98.0367 437.698 99.12 439.518 100.68C440.385 101.46 441.035 103.107 441.468 105.62C441.988 108.047 442.291 110.993 442.378 114.46C442.551 117.927 442.595 121.74 442.508 125.9C442.508 129.973 442.465 134.133 442.378 138.38C442.291 142.54 442.205 146.57 442.118 150.47C442.031 154.37 442.075 157.793 442.248 160.74C439.215 161.173 436.485 161.347 434.058 161.26C431.718 161.26 429.031 161.26 425.998 161.26C425.825 159.267 425.738 157.013 425.738 154.5C425.738 151.987 425.738 149.387 425.738 146.7C425.825 144.013 425.825 141.327 425.738 138.64C425.738 135.953 425.651 133.44 425.478 131.1C425.391 130.06 425.305 128.933 425.218 127.72C425.131 126.42 424.958 125.163 424.698 123.95C424.525 122.737 424.221 121.653 423.788 120.7C423.441 119.747 422.921 119.01 422.228 118.49C422.141 118.403 422.055 118.36 421.968 118.36C421.881 118.36 421.795 118.317 421.708 118.23C421.188 117.97 420.538 117.753 419.758 117.58C418.978 117.407 418.111 117.32 417.158 117.32C416.291 117.32 415.381 117.493 414.428 117.84C413.561 118.1 412.738 118.533 411.958 119.14C412.045 122.52 412.045 126.117 411.958 129.93C411.871 133.657 411.785 137.383 411.698 141.11C411.611 144.75 411.525 148.303 411.438 151.77C411.438 155.15 411.525 158.14 411.698 160.74C408.665 161.173 405.935 161.347 403.508 161.26C401.168 161.26 398.481 161.26 395.448 161.26C395.275 159.267 395.188 157.013 395.188 154.5C395.188 151.987 395.188 149.387 395.188 146.7C395.275 144.013 395.275 141.327 395.188 138.64C395.188 135.953 395.101 133.44 394.928 131.1C394.841 130.06 394.755 128.933 394.668 127.72C394.581 126.42 394.408 125.163 394.148 123.95C393.975 122.737 393.671 121.653 393.238 120.7C392.891 119.747 392.371 119.01 391.678 118.49C391.591 118.403 391.505 118.36 391.418 118.36C391.331 118.36 391.245 118.317 391.158 118.23C390.465 117.883 389.425 117.623 388.038 117.45C386.738 117.19 385.438 117.277 384.138 117.71C382.838 118.057 381.668 118.837 380.628 120.05C379.588 121.177 378.981 122.91 378.808 125.25C378.635 128.283 378.591 131.273 378.678 134.22C378.765 137.08 378.851 139.983 378.938 142.93C379.111 145.79 379.198 148.65 379.198 151.51C379.198 154.37 379.025 157.23 378.678 160.09V160.61C377.205 161.043 375.905 161.303 374.778 161.39C373.738 161.477 372.655 161.477 371.528 161.39C370.401 161.39 369.145 161.347 367.758 161.26C366.371 161.173 364.638 161.217 362.558 161.39C362.558 150.73 362.428 140.07 362.168 129.41C361.995 118.75 362.081 107.7 362.428 96.26C363.468 96.3467 364.335 96.4333 365.028 96.52C365.721 96.52 366.371 96.52 366.978 96.52C367.585 96.52 368.235 96.52 368.928 96.52C369.621 96.4333 370.488 96.3467 371.528 96.26C371.875 96.26 372.481 96.2167 373.348 96.13C374.215 95.9567 375.081 95.8267 375.948 95.74C376.815 95.6533 377.595 95.6533 378.288 95.74C378.981 95.74 379.328 95.87 379.328 96.13C379.501 97.6033 379.545 98.8167 379.458 99.77ZM468.325 99.77C468.325 100.723 468.369 101.807 468.455 103.02C468.889 102.76 469.409 102.457 470.015 102.11C470.709 101.763 471.272 101.417 471.705 101.07C473.525 99.77 475.562 98.73 477.815 97.95C480.069 97.17 482.365 96.7367 484.705 96.65C487.132 96.5633 489.472 96.8233 491.725 97.43C493.979 98.0367 496.015 99.12 497.835 100.68C498.269 101.113 498.702 101.85 499.135 102.89C499.569 102.63 500.089 102.37 500.695 102.11C501.302 101.763 501.822 101.417 502.255 101.07C504.075 99.77 506.112 98.73 508.365 97.95C510.619 97.17 512.915 96.7367 515.255 96.65C517.682 96.5633 520.022 96.8233 522.275 97.43C524.529 98.0367 526.565 99.12 528.385 100.68C529.252 101.46 529.902 103.107 530.335 105.62C530.855 108.047 531.159 110.993 531.245 114.46C531.419 117.927 531.462 121.74 531.375 125.9C531.375 129.973 531.332 134.133 531.245 138.38C531.159 142.54 531.072 146.57 530.985 150.47C530.899 154.37 530.942 157.793 531.115 160.74C528.082 161.173 525.352 161.347 522.925 161.26C520.585 161.26 517.899 161.26 514.865 161.26C514.692 159.267 514.605 157.013 514.605 154.5C514.605 151.987 514.605 149.387 514.605 146.7C514.692 144.013 514.692 141.327 514.605 138.64C514.605 135.953 514.519 133.44 514.345 131.1C514.259 130.06 514.172 128.933 514.085 127.72C513.999 126.42 513.825 125.163 513.565 123.95C513.392 122.737 513.089 121.653 512.655 120.7C512.309 119.747 511.789 119.01 511.095 118.49C511.009 118.403 510.922 118.36 510.835 118.36C510.749 118.36 510.662 118.317 510.575 118.23C510.055 117.97 509.405 117.753 508.625 117.58C507.845 117.407 506.979 117.32 506.025 117.32C505.159 117.32 504.249 117.493 503.295 117.84C502.429 118.1 501.605 118.533 500.825 119.14C500.912 122.52 500.912 126.117 500.825 129.93C500.739 133.657 500.652 137.383 500.565 141.11C500.479 144.75 500.392 148.303 500.305 151.77C500.305 155.15 500.392 158.14 500.565 160.74C497.532 161.173 494.802 161.347 492.375 161.26C490.035 161.26 487.349 161.26 484.315 161.26C484.142 159.267 484.055 157.013 484.055 154.5C484.055 151.987 484.055 149.387 484.055 146.7C484.142 144.013 484.142 141.327 484.055 138.64C484.055 135.953 483.969 133.44 483.795 131.1C483.709 130.06 483.622 128.933 483.535 127.72C483.449 126.42 483.275 125.163 483.015 123.95C482.842 122.737 482.539 121.653 482.105 120.7C481.759 119.747 481.239 119.01 480.545 118.49C480.459 118.403 480.372 118.36 480.285 118.36C480.199 118.36 480.112 118.317 480.025 118.23C479.332 117.883 478.292 117.623 476.905 117.45C475.605 117.19 474.305 117.277 473.005 117.71C471.705 118.057 470.535 118.837 469.495 120.05C468.455 121.177 467.849 122.91 467.675 125.25C467.502 128.283 467.459 131.273 467.545 134.22C467.632 137.08 467.719 139.983 467.805 142.93C467.979 145.79 468.065 148.65 468.065 151.51C468.065 154.37 467.892 157.23 467.545 160.09V160.61C466.072 161.043 464.772 161.303 463.645 161.39C462.605 161.477 461.522 161.477 460.395 161.39C459.269 161.39 458.012 161.347 456.625 161.26C455.239 161.173 453.505 161.217 451.425 161.39C451.425 150.73 451.295 140.07 451.035 129.41C450.862 118.75 450.949 107.7 451.295 96.26C452.335 96.3467 453.202 96.4333 453.895 96.52C454.589 96.52 455.239 96.52 455.845 96.52C456.452 96.52 457.102 96.52 457.795 96.52C458.489 96.4333 459.355 96.3467 460.395 96.26C460.742 96.26 461.349 96.2167 462.215 96.13C463.082 95.9567 463.949 95.8267 464.815 95.74C465.682 95.6533 466.462 95.6533 467.155 95.74C467.849 95.74 468.195 95.87 468.195 96.13C468.369 97.6033 468.412 98.8167 468.325 99.77ZM572.012 157.23C572.099 156.277 572.099 155.193 572.012 153.98C571.579 154.24 571.016 154.543 570.322 154.89C569.716 155.237 569.196 155.583 568.762 155.93C566.942 157.23 564.906 158.27 562.652 159.05C560.399 159.83 558.059 160.263 555.632 160.35C553.292 160.437 550.996 160.177 548.742 159.57C546.489 158.963 544.452 157.88 542.632 156.32C541.766 155.54 541.072 153.937 540.552 151.51C540.119 148.997 539.816 146.007 539.642 142.54C539.556 139.073 539.512 135.303 539.512 131.23C539.599 127.07 539.686 122.91 539.772 118.75C539.859 114.503 539.946 110.43 540.032 106.53C540.119 102.63 540.076 99.2067 539.902 96.26C542.936 95.8267 545.622 95.6533 547.962 95.74C550.389 95.74 553.119 95.74 556.152 95.74C556.326 97.7333 556.412 99.9867 556.412 102.5C556.412 105.013 556.369 107.613 556.282 110.3C556.282 112.987 556.282 115.673 556.282 118.36C556.369 121.047 556.499 123.56 556.672 125.9C556.759 126.94 556.846 128.11 556.932 129.41C557.019 130.623 557.149 131.837 557.322 133.05C557.582 134.263 557.886 135.347 558.232 136.3C558.666 137.253 559.229 137.99 559.922 138.51C560.009 138.597 560.096 138.64 560.182 138.64C560.269 138.64 560.356 138.683 560.442 138.77C561.136 139.117 562.132 139.42 563.432 139.68C564.819 139.853 566.162 139.767 567.462 139.42C568.762 138.987 569.932 138.207 570.972 137.08C572.012 135.867 572.619 134.09 572.792 131.75C572.966 128.803 573.009 125.857 572.922 122.91C572.836 119.963 572.706 117.06 572.532 114.2C572.446 111.253 572.359 108.35 572.272 105.49C572.272 102.63 572.489 99.77 572.922 96.91V96.39C574.396 95.9567 575.652 95.6967 576.692 95.61C577.819 95.5233 578.946 95.5233 580.072 95.61C581.199 95.61 582.456 95.6533 583.842 95.74C585.229 95.8267 586.962 95.7833 589.042 95.61C589.042 106.27 589.129 116.93 589.302 127.59C589.562 138.25 589.519 149.3 589.172 160.74C588.132 160.653 587.266 160.61 586.572 160.61C585.879 160.523 585.229 160.48 584.622 160.48C584.016 160.48 583.366 160.523 582.672 160.61C581.979 160.61 581.112 160.653 580.072 160.74C579.726 160.74 579.119 160.827 578.252 161C577.386 161.087 576.519 161.173 575.652 161.26C574.786 161.347 574.006 161.347 573.312 161.26C572.619 161.26 572.272 161.13 572.272 160.87C572.099 159.397 572.012 158.183 572.012 157.23ZM615.848 99.77C615.848 100.723 615.891 101.807 615.978 103.02C616.411 102.76 616.931 102.457 617.538 102.11C618.231 101.763 618.794 101.417 619.228 101.07C621.048 99.77 623.084 98.73 625.338 97.95C627.591 97.17 629.888 96.7367 632.228 96.65C634.654 96.5633 636.994 96.8233 639.248 97.43C641.501 98.0367 643.538 99.12 645.358 100.68C646.224 101.46 646.874 103.107 647.308 105.62C647.828 108.047 648.131 110.993 648.218 114.46C648.391 117.927 648.434 121.74 648.348 125.9C648.348 129.973 648.304 134.133 648.218 138.38C648.131 142.54 648.044 146.57 647.958 150.47C647.871 154.37 647.914 157.793 648.088 160.74C645.054 161.173 642.324 161.347 639.898 161.26C637.558 161.26 634.871 161.26 631.838 161.26C631.664 159.267 631.578 157.013 631.578 154.5C631.578 151.987 631.578 149.387 631.578 146.7C631.664 144.013 631.664 141.327 631.578 138.64C631.578 135.953 631.491 133.44 631.318 131.1C631.231 130.06 631.144 128.933 631.058 127.72C630.971 126.42 630.798 125.163 630.538 123.95C630.364 122.737 630.061 121.653 629.628 120.7C629.281 119.747 628.761 119.01 628.068 118.49C627.981 118.403 627.894 118.36 627.808 118.36C627.721 118.36 627.634 118.317 627.548 118.23C626.854 117.883 625.814 117.623 624.428 117.45C623.128 117.19 621.828 117.277 620.528 117.71C619.228 118.057 618.058 118.837 617.018 120.05C615.978 121.177 615.371 122.91 615.198 125.25C615.024 128.283 614.981 131.273 615.068 134.22C615.154 137.08 615.241 139.983 615.328 142.93C615.501 145.79 615.588 148.65 615.588 151.51C615.588 154.37 615.414 157.23 615.068 160.09V160.61C613.594 161.043 612.294 161.303 611.168 161.39C610.128 161.477 609.044 161.477 607.918 161.39C606.791 161.39 605.534 161.347 604.148 161.26C602.761 161.173 601.028 161.217 598.948 161.39C598.948 150.73 598.818 140.07 598.558 129.41C598.384 118.75 598.471 107.7 598.818 96.26C599.858 96.3467 600.724 96.4333 601.418 96.52C602.111 96.52 602.761 96.52 603.368 96.52C603.974 96.52 604.624 96.52 605.318 96.52C606.011 96.4333 606.878 96.3467 607.918 96.26C608.264 96.26 608.871 96.2167 609.738 96.13C610.604 95.9567 611.471 95.8267 612.338 95.74C613.204 95.6533 613.984 95.6533 614.678 95.74C615.371 95.74 615.718 95.87 615.718 96.13C615.891 97.6033 615.934 98.8167 615.848 99.77ZM665.923 95.61C667.917 95.6967 670.3 95.6967 673.073 95.61H675.283V96C675.197 106.487 674.98 117.19 674.633 128.11C674.373 139.03 674.547 149.733 675.153 160.22C674.72 160.74 673.637 161 671.903 161C670.17 161.087 668.263 161.087 666.183 161C664.19 161 662.283 160.957 660.463 160.87C658.643 160.783 657.43 160.827 656.823 161C657.257 155.54 657.43 149.993 657.343 144.36C657.343 138.727 657.257 133.137 657.083 127.59C656.91 122.043 656.823 116.583 656.823 111.21C656.823 105.75 657.083 100.463 657.603 95.35V95.22C657.95 95.1333 658.513 95.1333 659.293 95.22C660.16 95.3067 660.81 95.35 661.243 95.35C662.37 95.4367 663.93 95.5233 665.923 95.61ZM657.213 77.41C657.04 74.6367 656.997 71.2567 657.083 67.27L674.763 67.66C674.763 68.18 674.763 69.1333 674.763 70.52C674.85 71.82 674.893 73.2933 674.893 74.94C674.98 76.5 675.023 78.1467 675.023 79.88C675.11 81.5267 675.153 83 675.153 84.3C674.807 84.82 673.983 85.1667 672.683 85.34C671.47 85.5133 669.997 85.6 668.263 85.6C666.617 85.5133 664.84 85.4267 662.933 85.34C661.027 85.1667 659.25 85.1233 657.603 85.21C657.603 82.6967 657.473 80.0967 657.213 77.41ZM702.977 72.21C704.451 72.2967 705.924 72.2533 707.397 72.08V89.5C707.397 90.6267 707.397 91.7967 707.397 93.01C707.484 94.2233 707.527 95.48 707.527 96.78C710.214 96.6933 713.031 96.5633 715.977 96.39C719.011 96.2167 722.737 96 727.157 95.74C727.764 96.4333 728.111 97.4733 728.197 98.86C728.284 100.16 728.284 101.59 728.197 103.15C728.111 104.71 727.981 106.313 727.807 107.96C727.721 109.52 727.764 110.863 727.937 111.99H707.787C707.787 116.67 707.787 121.263 707.787 125.77C707.787 130.19 707.831 134.35 707.917 138.25C708.784 139.463 710.041 140.417 711.687 141.11C713.334 141.803 715.111 142.367 717.017 142.8C718.924 143.147 720.831 143.363 722.737 143.45C724.731 143.537 726.464 143.537 727.937 143.45C728.111 144.663 728.284 146.007 728.457 147.48C728.631 148.953 728.761 150.47 728.847 152.03C728.934 153.59 728.891 155.15 728.717 156.71C728.631 158.27 728.371 159.7 727.937 161C724.471 161.173 720.874 161.173 717.147 161C713.421 160.74 709.911 160.22 706.617 159.44C703.324 158.66 700.377 157.49 697.777 155.93C695.264 154.37 693.444 152.247 692.317 149.56C691.191 142.887 690.541 136.603 690.367 130.71C690.194 124.73 690.151 118.577 690.237 112.25C688.851 112.337 687.377 112.38 685.817 112.38C684.344 112.38 682.697 112.38 680.877 112.38L681.267 96.52C683.001 96.6067 684.604 96.65 686.077 96.65C687.637 96.65 689.111 96.65 690.497 96.65C690.497 94.7433 690.454 92.7067 690.367 90.54C690.281 88.2867 690.237 86.0333 690.237 83.78C690.237 81.5267 690.237 79.36 690.237 77.28C690.324 75.2 690.454 73.3367 690.627 71.69C691.754 71.5167 692.967 71.4733 694.267 71.56C695.654 71.6467 697.084 71.7767 698.557 71.95C700.031 72.0367 701.504 72.1233 702.977 72.21ZM739.991 96.26C743.457 96 746.577 96.0433 749.351 96.39C749.957 99.51 750.651 103.237 751.431 107.57C752.211 111.817 753.034 116.15 753.901 120.57C754.767 124.99 755.677 129.237 756.631 133.31C757.584 137.297 758.537 140.59 759.491 143.19C760.444 140.59 761.224 137.167 761.831 132.92C762.437 128.673 763.001 124.253 763.521 119.66C764.127 115.067 764.777 110.647 765.471 106.4C766.164 102.153 767.031 98.73 768.071 96.13C771.017 96.2167 774.007 96.1733 777.041 96C780.074 95.8267 783.411 95.87 787.051 96.13C785.664 101.33 784.407 106.313 783.281 111.08C782.241 115.76 781.201 120.353 780.161 124.86C779.034 129.107 777.994 133.57 777.041 138.25C776.174 142.93 775.047 147.523 773.661 152.03C772.361 156.537 770.671 160.827 768.591 164.9C766.511 168.973 763.737 172.483 760.271 175.43C756.891 178.463 752.644 180.76 747.531 182.32C742.504 183.88 736.307 184.443 728.941 184.01C728.074 181.41 727.641 178.463 727.641 175.17C727.554 171.963 727.727 169.147 728.161 166.72C730.241 166.72 732.364 166.807 734.531 166.98C736.784 167.153 738.777 167.023 740.511 166.59C742.244 166.243 743.544 165.42 744.411 164.12C745.364 162.82 745.624 160.74 745.191 157.88C743.371 147.393 741.074 136.907 738.301 126.42C735.527 115.933 732.797 105.793 730.111 96C733.231 96.3467 736.524 96.4333 739.991 96.26ZM895.056 98.34V98.86L895.966 110.82L882.186 111.21C881.233 113.983 880.323 116.713 879.456 119.4C878.59 122.087 877.68 124.817 876.726 127.59C877.68 127.677 879.63 127.72 882.576 127.72C885.523 127.633 889.206 127.763 893.626 128.11C893.886 128.803 894.016 129.453 894.016 130.06C894.103 130.667 894.146 131.403 894.146 132.27C894.233 133.137 894.276 134.177 894.276 135.39C894.276 136.603 894.363 138.207 894.536 140.2V140.46C893.15 140.633 891.85 140.763 890.636 140.85C889.423 140.85 888.036 140.85 886.476 140.85C884.916 140.85 883.01 140.85 880.756 140.85C878.59 140.85 875.773 140.893 872.306 140.98H872.176H871.916C871.743 141.24 871.396 142.15 870.876 143.71C870.443 145.27 869.88 147.047 869.186 149.04C868.493 151.033 867.713 153.113 866.846 155.28C865.98 157.36 865.113 159.18 864.246 160.74L864.116 160.87H863.856C863.683 160.87 862.47 160.913 860.216 161C858.05 161.087 854.323 161.043 849.036 160.87C849.99 157.057 851.116 153.547 852.416 150.34C853.716 147.047 854.8 143.797 855.666 140.59H855.536C855.536 140.59 855.276 140.59 854.756 140.59C854.323 140.503 853.543 140.46 852.416 140.46C851.29 140.46 849.73 140.46 847.736 140.46C845.83 140.46 843.403 140.503 840.456 140.59C839.763 142.583 839.243 144.013 838.896 144.88C838.55 145.747 838.203 146.57 837.856 147.35C837.596 148.13 837.206 149.127 836.686 150.34C836.166 151.553 835.386 153.503 834.346 156.19C834.086 157.057 833.826 157.793 833.566 158.4C833.393 159.007 833.046 159.787 832.526 160.74C832.353 160.913 832.006 161 831.486 161C830.62 160.913 829.06 160.87 826.806 160.87C824.553 160.783 821.476 160.827 817.576 161C818.27 157.36 819.223 153.937 820.436 150.73C821.736 147.437 822.993 144.143 824.206 140.85C822.733 140.85 821.26 140.937 819.786 141.11C818.313 141.197 816.926 141.197 815.626 141.11C815.453 138.857 815.366 136.517 815.366 134.09C815.366 131.663 815.323 129.28 815.236 126.94C815.323 127.027 815.583 127.113 816.016 127.2C816.45 127.287 817.143 127.373 818.096 127.46C819.136 127.547 820.566 127.633 822.386 127.72C824.206 127.72 826.59 127.677 829.536 127.59C829.796 127.33 830.013 126.897 830.186 126.29C830.36 125.683 830.62 124.773 830.966 123.56C831.313 122.347 831.79 120.743 832.396 118.75C833.003 116.757 833.826 114.243 834.866 111.21C834.866 111.21 834.736 111.21 834.476 111.21C834.216 111.21 833.48 111.21 832.266 111.21C831.14 111.21 829.363 111.253 826.936 111.34C824.51 111.34 821.173 111.34 816.926 111.34L816.666 97.3C816.666 97.3 816.796 97.3433 817.056 97.43C817.403 97.5167 818.14 97.6467 819.266 97.82C820.48 97.9067 822.343 97.9933 824.856 98.08C827.37 98.08 830.836 98.0367 835.256 97.95C835.863 97.95 836.556 97.9933 837.336 98.08C838.116 98.08 838.766 98.0367 839.286 97.95C839.286 97.8633 839.286 97.82 839.286 97.82C839.373 97.82 839.416 97.7767 839.416 97.69C839.676 97.17 840.066 96.0867 840.586 94.44C841.193 92.7933 841.8 90.9733 842.406 88.98C843.1 86.9 843.706 84.9067 844.226 83C844.833 81.0067 845.266 79.4033 845.526 78.19V78.06C845.786 78.1467 846.176 78.2333 846.696 78.32C847.303 78.32 848.17 78.32 849.296 78.32C850.51 78.32 852.07 78.3633 853.976 78.45C855.883 78.5367 858.223 78.6233 860.996 78.71C860.996 78.8833 860.91 79.2733 860.736 79.88C860.65 80.4867 860.39 81.5267 859.956 83C859.523 84.3867 858.916 86.2933 858.136 88.72C857.356 91.06 856.403 94.0933 855.276 97.82C857.616 97.9067 860 97.9067 862.426 97.82C864.853 97.7333 867.626 97.7333 870.746 97.82C871.44 96.6933 872.35 94.3967 873.476 90.93C874.603 87.4633 875.86 83.13 877.246 77.93H877.376H877.506C879.933 78.3633 882.36 78.45 884.786 78.19C887.3 77.93 889.77 78.0167 892.196 78.45C892.283 78.97 892.283 79.5333 892.196 80.14C892.11 80.66 891.85 81.57 891.416 82.87C891.07 84.17 890.506 86.0333 889.726 88.46C889.033 90.8 888.08 94.05 886.866 98.21C888.253 98.21 889.596 98.2533 890.896 98.34C892.283 98.34 893.67 98.34 895.056 98.34ZM847.736 119.27C846.87 122.043 845.96 124.817 845.006 127.59L861.256 127.46C861.256 127.373 861.256 127.33 861.256 127.33C861.343 127.243 861.386 127.157 861.386 127.07C861.993 124.383 862.816 121.783 863.856 119.27C864.896 116.757 865.806 114.07 866.586 111.21V111.08H866.456H866.326C863.553 110.993 860.91 110.95 858.396 110.95C855.883 110.863 853.37 110.82 850.856 110.82H850.596V110.95C849.643 113.723 848.69 116.497 847.736 119.27ZM958.749 160.35C958.749 160.437 958.576 160.48 958.229 160.48L908.829 161.13H902.979C902.893 161.043 902.849 160.913 902.849 160.74C903.109 157.793 903.196 154.89 903.109 152.03C903.109 149.17 903.196 146.397 903.369 143.71C903.543 140.937 903.889 138.293 904.409 135.78C905.016 133.18 906.013 130.753 907.399 128.5C909.479 126.16 911.646 124.167 913.899 122.52C916.239 120.787 918.579 119.183 920.919 117.71C923.346 116.237 925.729 114.807 928.069 113.42C930.496 112.033 932.836 110.43 935.089 108.61C936.823 107.483 938.036 105.923 938.729 103.93C939.509 101.937 939.813 99.9433 939.639 97.95C939.466 95.9567 938.773 94.2233 937.559 92.75C936.433 91.19 934.873 90.28 932.879 90.02C930.799 90.02 929.109 90.54 927.809 91.58C926.596 92.62 925.643 93.9633 924.949 95.61C924.343 97.17 923.909 98.86 923.649 100.68C923.476 102.5 923.346 104.19 923.259 105.75V106.01H923.129C919.229 106.443 915.763 106.747 912.729 106.92C909.783 107.093 906.836 107.007 903.889 106.66H903.759V106.4C902.719 100.42 902.719 94.83 903.759 89.63C904.886 84.3433 907.053 79.9233 910.259 76.37C911.993 74.1167 914.463 72.3833 917.669 71.17C920.876 69.9567 924.299 69.1767 927.939 68.83C931.579 68.4833 935.133 68.5267 938.599 68.96C942.153 69.3067 945.099 69.9567 947.439 70.91C951.339 72.9033 954.329 75.85 956.409 79.75C958.489 83.65 959.746 87.94 960.179 92.62C960.266 94.44 960.353 96.4333 960.439 98.6C960.526 100.68 960.526 102.587 960.439 104.32C960.179 107.527 959.356 110.257 957.969 112.51C956.669 114.677 955.023 116.583 953.029 118.23C951.123 119.877 948.956 121.307 946.529 122.52C944.189 123.733 941.806 124.947 939.379 126.16C937.039 127.373 934.743 128.673 932.489 130.06C930.323 131.36 928.459 132.963 926.899 134.87C926.726 135.303 926.466 135.91 926.119 136.69C925.859 137.47 925.599 138.25 925.339 139.03C925.166 139.81 925.036 140.547 924.949 141.24C924.949 141.847 925.123 142.237 925.469 142.41C931.276 142.583 936.649 142.583 941.589 142.41C946.616 142.237 951.946 142.15 957.579 142.15C958.273 143.883 958.619 145.877 958.619 148.13C958.619 150.297 958.576 152.463 958.489 154.63C958.489 155.583 958.446 156.537 958.359 157.49C958.359 158.443 958.489 159.397 958.749 160.35Z" fill="white"/>
<path d="M592.188 267H390.062V300.688H592.188V267Z" fill="#F3322C"/>
<path d="M828 267H625.875V300.688H828V267Z" fill="#F3322C"/>
<path d="M423.75 300.688H390.062V334.375H423.75V300.688Z" fill="#F3322C"/>
<path d="M491.125 300.688H423.75V334.375H491.125V300.688Z" fill="white"/>
<path d="M558.5 300.688H491.125V334.375H558.5V300.688Z" fill="black"/>
<path d="M592.188 300.688H558.5V334.375H592.188V300.688Z" fill="#F3322C"/>
<path d="M659.562 300.688H625.875V334.375H659.562V300.688Z" fill="#F3322C"/>
<path d="M726.938 300.688H659.562V334.375H726.938V300.688Z" fill="white"/>
<path d="M794.312 300.688H726.938V334.375H794.312V300.688Z" fill="black"/>
<path d="M828 300.688H794.312V334.375H828V300.688Z" fill="#F3322C"/>
<path d="M423.75 334.375H289V368.062H423.75V334.375Z" fill="#F3322C"/>
<path d="M491.125 334.375H423.75V368.062H491.125V334.375Z" fill="white"/>
<path d="M558.5 334.375H491.125V368.062H558.5V334.375Z" fill="black"/>
<path d="M659.562 334.375H558.5V368.062H659.562V334.375Z" fill="#F3322C"/>
<path d="M726.938 334.375H659.562V368.062H726.938V334.375Z" fill="white"/>
<path d="M794.312 334.375H726.938V368.062H794.312V334.375Z" fill="black"/>
<path d="M828 334.375H794.312V368.062H828V334.375Z" fill="#F3322C"/>
<path d="M322.688 368.062H289V401.75H322.688V368.062Z" fill="#F3322C"/>
<path d="M423.75 368.062H390.062V401.75H423.75V368.062Z" fill="#F3322C"/>
<path d="M491.125 368.062H423.75V401.75H491.125V368.062Z" fill="white"/>
<path d="M558.5 368.062H491.125V401.75H558.5V368.062Z" fill="black"/>
<path d="M592.188 368.062H558.5V401.75H592.188V368.062Z" fill="#F3322C"/>
<path d="M659.562 368.062H625.875V401.75H659.562V368.062Z" fill="#F3322C"/>
<path d="M726.938 368.062H659.562V401.75H726.938V368.062Z" fill="white"/>
<path d="M794.312 368.062H726.938V401.75H794.312V368.062Z" fill="black"/>
<path d="M828 368.062H794.312V401.75H828V368.062Z" fill="#F3322C"/>
<path d="M322.688 401.75H289V435.438H322.688V401.75Z" fill="#F3322C"/>
<path d="M423.75 401.75H390.062V435.438H423.75V401.75Z" fill="#F3322C"/>
<path d="M491.125 401.75H423.75V435.438H491.125V401.75Z" fill="white"/>
<path d="M558.5 401.75H491.125V435.438H558.5V401.75Z" fill="black"/>
<path d="M592.188 401.75H558.5V435.438H592.188V401.75Z" fill="#F3322C"/>
<path d="M659.562 401.75H625.875V435.438H659.562V401.75Z" fill="#F3322C"/>
<path d="M726.938 401.75H659.562V435.438H726.938V401.75Z" fill="white"/>
<path d="M794.312 401.75H726.938V435.438H794.312V401.75Z" fill="black"/>
<path d="M828 401.75H794.312V435.438H828V401.75Z" fill="#F3322C"/>
<path d="M592.188 435.438H390.062V469.125H592.188V435.438Z" fill="#F3322C"/>
<path d="M828 435.438H625.875V469.125H828V435.438Z" fill="#F3322C"/>
</g>
<defs>
<clipPath id="clip0_2_129">
<rect width="1200" height="630" fill="white"/>
</clipPath>
</defs>
</svg>
