<svg width="1200" height="630" viewBox="0 0 1200 630" fill="none" xmlns="http://www.w3.org/2000/svg">
<g clip-path="url(#clip0_1_53)">
<rect width="1200" height="630" fill="white"/>
<rect width="1200" height="630" fill="#A6A4FA"/>
<path d="M271.95 89.11C270.737 89.37 269.783 89.8467 269.09 90.54C268.917 90.7133 268.743 91.0167 268.57 91.45C268.483 91.7967 268.397 92.0567 268.31 92.23C268.137 92.49 267.963 94.0067 267.79 96.78C267.703 99.5533 267.617 102.847 267.53 106.66C267.443 110.473 267.4 114.46 267.4 118.62C267.4 122.693 267.53 126.247 267.79 129.28C268.05 131.793 268.7 134.263 269.74 136.69C270.867 139.03 272.687 140.547 275.2 141.24C277.107 141.413 278.883 141.153 280.53 140.46C282.263 139.68 283.563 138.423 284.43 136.69C285.383 134.697 285.773 132.617 285.6 130.45C285.513 128.197 285.687 125.987 286.12 123.82C287.333 123.993 288.677 124.037 290.15 123.95C291.71 123.863 293.27 123.82 294.83 123.82C296.39 123.82 297.907 123.863 299.38 123.95C300.94 124.037 302.327 124.253 303.54 124.6C305.013 129.107 305.403 133.613 304.71 138.12C304.017 142.54 302.5 146.527 300.16 150.08C297.82 153.633 294.743 156.58 290.93 158.92C287.203 161.173 282.957 162.343 278.19 162.43C275.07 162.863 271.863 162.863 268.57 162.43C265.277 162.083 262.2 161.26 259.34 159.96C256.48 158.573 254.053 156.667 252.06 154.24C250.153 151.813 249.027 148.78 248.68 145.14C248.507 142.02 248.377 138.77 248.29 135.39C248.203 132.01 248.117 128.24 248.03 124.08C248.03 119.833 248.03 115.067 248.03 109.78C248.117 104.407 248.203 98.21 248.29 91.19C248.117 89.7167 248.16 88.2433 248.42 86.77C248.767 85.21 249.2 83.78 249.72 82.48C250.5 80.2267 251.453 78.1467 252.58 76.24C253.793 74.3333 255.223 72.6433 256.87 71.17C257.823 70.4767 258.863 69.9133 259.99 69.48C261.117 68.96 262.287 68.5267 263.5 68.18C267.487 66.88 271.43 66.36 275.33 66.62C279.23 66.88 282.87 67.79 286.25 69.35C289.717 70.8233 292.837 72.8167 295.61 75.33C298.383 77.8433 300.593 80.7467 302.24 84.04C303.887 87.2467 304.883 90.7567 305.23 94.57C305.577 98.3833 305.057 102.283 303.67 106.27C300.463 106.963 297.3 107.223 294.18 107.05C291.147 106.79 287.983 106.357 284.69 105.75C284.43 104.103 284.257 102.24 284.17 100.16C284.17 98.08 283.953 96.1733 283.52 94.44C283.087 92.62 282.263 91.1467 281.05 90.02C279.923 88.8933 278.103 88.3733 275.59 88.46C274.463 88.6333 273.25 88.85 271.95 89.11ZM312.157 105.62C312.677 103.973 313.067 102.673 313.327 101.72C313.933 100.42 314.887 99.2933 316.187 98.34C317.573 97.3867 319.133 96.6067 320.867 96C322.687 95.3067 324.593 94.83 326.587 94.57C328.667 94.31 330.747 94.18 332.827 94.18C334.56 94.3533 336.207 94.3967 337.767 94.31C339.413 94.1367 341.147 94.1367 342.967 94.31C345.74 94.4833 348.383 95.0467 350.897 96C353.41 96.8667 355.577 98.1667 357.397 99.9C358.61 100.68 359.563 101.937 360.257 103.67C360.95 105.403 361.47 107.44 361.817 109.78C362.163 112.033 362.38 114.547 362.467 117.32C362.553 120.007 362.64 122.78 362.727 125.64C362.64 128.153 362.51 131.013 362.337 134.22C362.25 137.427 362.033 140.503 361.687 143.45C361.427 146.397 361.037 149.04 360.517 151.38C360.083 153.72 359.433 155.323 358.567 156.19C357.093 158.27 355.143 159.743 352.717 160.61C350.377 161.477 347.82 161.997 345.047 162.17C342.273 162.43 339.413 162.43 336.467 162.17C333.52 161.997 330.833 161.91 328.407 161.91C323.987 161.13 320.26 159.223 317.227 156.19C314.887 154.11 313.283 151.51 312.417 148.39C311.55 145.27 311.03 142.02 310.857 138.64C310.683 135.173 310.64 131.707 310.727 128.24C310.9 124.773 310.857 121.61 310.597 118.75C310.597 117.19 310.64 115.673 310.727 114.2C310.813 112.64 310.987 111.037 311.247 109.39C311.333 108.437 311.637 107.18 312.157 105.62ZM333.997 114.2C332.177 114.72 330.703 115.673 329.577 117.06C329.057 117.407 328.667 118.273 328.407 119.66C328.06 122.433 327.887 125.207 327.887 127.98C327.887 130.667 327.8 133.527 327.627 136.56C327.54 138.553 328.06 140.113 329.187 141.24C330.313 142.28 331.657 143.017 333.217 143.45C334.863 143.797 336.553 143.883 338.287 143.71C340.02 143.45 341.45 143.017 342.577 142.41C344.05 141.717 345.047 140.287 345.567 138.12C345.913 135.347 346.173 132.573 346.347 129.8C346.607 126.94 346.477 124.253 345.957 121.74C345.523 118.707 344.267 116.497 342.187 115.11C340.107 113.723 337.377 113.42 333.997 114.2ZM387.458 99.77C387.458 100.723 387.501 101.807 387.588 103.02C388.021 102.76 388.541 102.457 389.148 102.11C389.841 101.763 390.405 101.417 390.838 101.07C392.658 99.77 394.695 98.73 396.948 97.95C399.201 97.17 401.498 96.7367 403.838 96.65C406.265 96.5633 408.605 96.8233 410.858 97.43C413.111 98.0367 415.148 99.12 416.968 100.68C417.401 101.113 417.835 101.85 418.268 102.89C418.701 102.63 419.221 102.37 419.828 102.11C420.435 101.763 420.955 101.417 421.388 101.07C423.208 99.77 425.245 98.73 427.498 97.95C429.751 97.17 432.048 96.7367 434.388 96.65C436.815 96.5633 439.155 96.8233 441.408 97.43C443.661 98.0367 445.698 99.12 447.518 100.68C448.385 101.46 449.035 103.107 449.468 105.62C449.988 108.047 450.291 110.993 450.378 114.46C450.551 117.927 450.595 121.74 450.508 125.9C450.508 129.973 450.465 134.133 450.378 138.38C450.291 142.54 450.205 146.57 450.118 150.47C450.031 154.37 450.075 157.793 450.248 160.74C447.215 161.173 444.485 161.347 442.058 161.26C439.718 161.26 437.031 161.26 433.998 161.26C433.825 159.267 433.738 157.013 433.738 154.5C433.738 151.987 433.738 149.387 433.738 146.7C433.825 144.013 433.825 141.327 433.738 138.64C433.738 135.953 433.651 133.44 433.478 131.1C433.391 130.06 433.305 128.933 433.218 127.72C433.131 126.42 432.958 125.163 432.698 123.95C432.525 122.737 432.221 121.653 431.788 120.7C431.441 119.747 430.921 119.01 430.228 118.49C430.141 118.403 430.055 118.36 429.968 118.36C429.881 118.36 429.795 118.317 429.708 118.23C429.188 117.97 428.538 117.753 427.758 117.58C426.978 117.407 426.111 117.32 425.158 117.32C424.291 117.32 423.381 117.493 422.428 117.84C421.561 118.1 420.738 118.533 419.958 119.14C420.045 122.52 420.045 126.117 419.958 129.93C419.871 133.657 419.785 137.383 419.698 141.11C419.611 144.75 419.525 148.303 419.438 151.77C419.438 155.15 419.525 158.14 419.698 160.74C416.665 161.173 413.935 161.347 411.508 161.26C409.168 161.26 406.481 161.26 403.448 161.26C403.275 159.267 403.188 157.013 403.188 154.5C403.188 151.987 403.188 149.387 403.188 146.7C403.275 144.013 403.275 141.327 403.188 138.64C403.188 135.953 403.101 133.44 402.928 131.1C402.841 130.06 402.755 128.933 402.668 127.72C402.581 126.42 402.408 125.163 402.148 123.95C401.975 122.737 401.671 121.653 401.238 120.7C400.891 119.747 400.371 119.01 399.678 118.49C399.591 118.403 399.505 118.36 399.418 118.36C399.331 118.36 399.245 118.317 399.158 118.23C398.465 117.883 397.425 117.623 396.038 117.45C394.738 117.19 393.438 117.277 392.138 117.71C390.838 118.057 389.668 118.837 388.628 120.05C387.588 121.177 386.981 122.91 386.808 125.25C386.635 128.283 386.591 131.273 386.678 134.22C386.765 137.08 386.851 139.983 386.938 142.93C387.111 145.79 387.198 148.65 387.198 151.51C387.198 154.37 387.025 157.23 386.678 160.09V160.61C385.205 161.043 383.905 161.303 382.778 161.39C381.738 161.477 380.655 161.477 379.528 161.39C378.401 161.39 377.145 161.347 375.758 161.26C374.371 161.173 372.638 161.217 370.558 161.39C370.558 150.73 370.428 140.07 370.168 129.41C369.995 118.75 370.081 107.7 370.428 96.26C371.468 96.3467 372.335 96.4333 373.028 96.52C373.721 96.52 374.371 96.52 374.978 96.52C375.585 96.52 376.235 96.52 376.928 96.52C377.621 96.4333 378.488 96.3467 379.528 96.26C379.875 96.26 380.481 96.2167 381.348 96.13C382.215 95.9567 383.081 95.8267 383.948 95.74C384.815 95.6533 385.595 95.6533 386.288 95.74C386.981 95.74 387.328 95.87 387.328 96.13C387.501 97.6033 387.545 98.8167 387.458 99.77ZM476.325 99.77C476.325 100.723 476.369 101.807 476.455 103.02C476.889 102.76 477.409 102.457 478.015 102.11C478.709 101.763 479.272 101.417 479.705 101.07C481.525 99.77 483.562 98.73 485.815 97.95C488.069 97.17 490.365 96.7367 492.705 96.65C495.132 96.5633 497.472 96.8233 499.725 97.43C501.979 98.0367 504.015 99.12 505.835 100.68C506.269 101.113 506.702 101.85 507.135 102.89C507.569 102.63 508.089 102.37 508.695 102.11C509.302 101.763 509.822 101.417 510.255 101.07C512.075 99.77 514.112 98.73 516.365 97.95C518.619 97.17 520.915 96.7367 523.255 96.65C525.682 96.5633 528.022 96.8233 530.275 97.43C532.529 98.0367 534.565 99.12 536.385 100.68C537.252 101.46 537.902 103.107 538.335 105.62C538.855 108.047 539.159 110.993 539.245 114.46C539.419 117.927 539.462 121.74 539.375 125.9C539.375 129.973 539.332 134.133 539.245 138.38C539.159 142.54 539.072 146.57 538.985 150.47C538.899 154.37 538.942 157.793 539.115 160.74C536.082 161.173 533.352 161.347 530.925 161.26C528.585 161.26 525.899 161.26 522.865 161.26C522.692 159.267 522.605 157.013 522.605 154.5C522.605 151.987 522.605 149.387 522.605 146.7C522.692 144.013 522.692 141.327 522.605 138.64C522.605 135.953 522.519 133.44 522.345 131.1C522.259 130.06 522.172 128.933 522.085 127.72C521.999 126.42 521.825 125.163 521.565 123.95C521.392 122.737 521.089 121.653 520.655 120.7C520.309 119.747 519.789 119.01 519.095 118.49C519.009 118.403 518.922 118.36 518.835 118.36C518.749 118.36 518.662 118.317 518.575 118.23C518.055 117.97 517.405 117.753 516.625 117.58C515.845 117.407 514.979 117.32 514.025 117.32C513.159 117.32 512.249 117.493 511.295 117.84C510.429 118.1 509.605 118.533 508.825 119.14C508.912 122.52 508.912 126.117 508.825 129.93C508.739 133.657 508.652 137.383 508.565 141.11C508.479 144.75 508.392 148.303 508.305 151.77C508.305 155.15 508.392 158.14 508.565 160.74C505.532 161.173 502.802 161.347 500.375 161.26C498.035 161.26 495.349 161.26 492.315 161.26C492.142 159.267 492.055 157.013 492.055 154.5C492.055 151.987 492.055 149.387 492.055 146.7C492.142 144.013 492.142 141.327 492.055 138.64C492.055 135.953 491.969 133.44 491.795 131.1C491.709 130.06 491.622 128.933 491.535 127.72C491.449 126.42 491.275 125.163 491.015 123.95C490.842 122.737 490.539 121.653 490.105 120.7C489.759 119.747 489.239 119.01 488.545 118.49C488.459 118.403 488.372 118.36 488.285 118.36C488.199 118.36 488.112 118.317 488.025 118.23C487.332 117.883 486.292 117.623 484.905 117.45C483.605 117.19 482.305 117.277 481.005 117.71C479.705 118.057 478.535 118.837 477.495 120.05C476.455 121.177 475.849 122.91 475.675 125.25C475.502 128.283 475.459 131.273 475.545 134.22C475.632 137.08 475.719 139.983 475.805 142.93C475.979 145.79 476.065 148.65 476.065 151.51C476.065 154.37 475.892 157.23 475.545 160.09V160.61C474.072 161.043 472.772 161.303 471.645 161.39C470.605 161.477 469.522 161.477 468.395 161.39C467.269 161.39 466.012 161.347 464.625 161.26C463.239 161.173 461.505 161.217 459.425 161.39C459.425 150.73 459.295 140.07 459.035 129.41C458.862 118.75 458.949 107.7 459.295 96.26C460.335 96.3467 461.202 96.4333 461.895 96.52C462.589 96.52 463.239 96.52 463.845 96.52C464.452 96.52 465.102 96.52 465.795 96.52C466.489 96.4333 467.355 96.3467 468.395 96.26C468.742 96.26 469.349 96.2167 470.215 96.13C471.082 95.9567 471.949 95.8267 472.815 95.74C473.682 95.6533 474.462 95.6533 475.155 95.74C475.849 95.74 476.195 95.87 476.195 96.13C476.369 97.6033 476.412 98.8167 476.325 99.77ZM580.012 157.23C580.099 156.277 580.099 155.193 580.012 153.98C579.579 154.24 579.016 154.543 578.322 154.89C577.716 155.237 577.196 155.583 576.762 155.93C574.942 157.23 572.906 158.27 570.652 159.05C568.399 159.83 566.059 160.263 563.632 160.35C561.292 160.437 558.996 160.177 556.742 159.57C554.489 158.963 552.452 157.88 550.632 156.32C549.766 155.54 549.072 153.937 548.552 151.51C548.119 148.997 547.816 146.007 547.642 142.54C547.556 139.073 547.512 135.303 547.512 131.23C547.599 127.07 547.686 122.91 547.772 118.75C547.859 114.503 547.946 110.43 548.032 106.53C548.119 102.63 548.076 99.2067 547.902 96.26C550.936 95.8267 553.622 95.6533 555.962 95.74C558.389 95.74 561.119 95.74 564.152 95.74C564.326 97.7333 564.412 99.9867 564.412 102.5C564.412 105.013 564.369 107.613 564.282 110.3C564.282 112.987 564.282 115.673 564.282 118.36C564.369 121.047 564.499 123.56 564.672 125.9C564.759 126.94 564.846 128.11 564.932 129.41C565.019 130.623 565.149 131.837 565.322 133.05C565.582 134.263 565.886 135.347 566.232 136.3C566.666 137.253 567.229 137.99 567.922 138.51C568.009 138.597 568.096 138.64 568.182 138.64C568.269 138.64 568.356 138.683 568.442 138.77C569.136 139.117 570.132 139.42 571.432 139.68C572.819 139.853 574.162 139.767 575.462 139.42C576.762 138.987 577.932 138.207 578.972 137.08C580.012 135.867 580.619 134.09 580.792 131.75C580.966 128.803 581.009 125.857 580.922 122.91C580.836 119.963 580.706 117.06 580.532 114.2C580.446 111.253 580.359 108.35 580.272 105.49C580.272 102.63 580.489 99.77 580.922 96.91V96.39C582.396 95.9567 583.652 95.6967 584.692 95.61C585.819 95.5233 586.946 95.5233 588.072 95.61C589.199 95.61 590.456 95.6533 591.842 95.74C593.229 95.8267 594.962 95.7833 597.042 95.61C597.042 106.27 597.129 116.93 597.302 127.59C597.562 138.25 597.519 149.3 597.172 160.74C596.132 160.653 595.266 160.61 594.572 160.61C593.879 160.523 593.229 160.48 592.622 160.48C592.016 160.48 591.366 160.523 590.672 160.61C589.979 160.61 589.112 160.653 588.072 160.74C587.726 160.74 587.119 160.827 586.252 161C585.386 161.087 584.519 161.173 583.652 161.26C582.786 161.347 582.006 161.347 581.312 161.26C580.619 161.26 580.272 161.13 580.272 160.87C580.099 159.397 580.012 158.183 580.012 157.23ZM623.848 99.77C623.848 100.723 623.891 101.807 623.978 103.02C624.411 102.76 624.931 102.457 625.538 102.11C626.231 101.763 626.794 101.417 627.228 101.07C629.048 99.77 631.084 98.73 633.338 97.95C635.591 97.17 637.888 96.7367 640.228 96.65C642.654 96.5633 644.994 96.8233 647.248 97.43C649.501 98.0367 651.538 99.12 653.358 100.68C654.224 101.46 654.874 103.107 655.308 105.62C655.828 108.047 656.131 110.993 656.218 114.46C656.391 117.927 656.434 121.74 656.348 125.9C656.348 129.973 656.304 134.133 656.218 138.38C656.131 142.54 656.044 146.57 655.958 150.47C655.871 154.37 655.914 157.793 656.088 160.74C653.054 161.173 650.324 161.347 647.898 161.26C645.558 161.26 642.871 161.26 639.838 161.26C639.664 159.267 639.578 157.013 639.578 154.5C639.578 151.987 639.578 149.387 639.578 146.7C639.664 144.013 639.664 141.327 639.578 138.64C639.578 135.953 639.491 133.44 639.318 131.1C639.231 130.06 639.144 128.933 639.058 127.72C638.971 126.42 638.798 125.163 638.538 123.95C638.364 122.737 638.061 121.653 637.628 120.7C637.281 119.747 636.761 119.01 636.068 118.49C635.981 118.403 635.894 118.36 635.808 118.36C635.721 118.36 635.634 118.317 635.548 118.23C634.854 117.883 633.814 117.623 632.428 117.45C631.128 117.19 629.828 117.277 628.528 117.71C627.228 118.057 626.058 118.837 625.018 120.05C623.978 121.177 623.371 122.91 623.198 125.25C623.024 128.283 622.981 131.273 623.068 134.22C623.154 137.08 623.241 139.983 623.328 142.93C623.501 145.79 623.588 148.65 623.588 151.51C623.588 154.37 623.414 157.23 623.068 160.09V160.61C621.594 161.043 620.294 161.303 619.168 161.39C618.128 161.477 617.044 161.477 615.918 161.39C614.791 161.39 613.534 161.347 612.148 161.26C610.761 161.173 609.028 161.217 606.948 161.39C606.948 150.73 606.818 140.07 606.558 129.41C606.384 118.75 606.471 107.7 606.818 96.26C607.858 96.3467 608.724 96.4333 609.418 96.52C610.111 96.52 610.761 96.52 611.368 96.52C611.974 96.52 612.624 96.52 613.318 96.52C614.011 96.4333 614.878 96.3467 615.918 96.26C616.264 96.26 616.871 96.2167 617.738 96.13C618.604 95.9567 619.471 95.8267 620.338 95.74C621.204 95.6533 621.984 95.6533 622.678 95.74C623.371 95.74 623.718 95.87 623.718 96.13C623.891 97.6033 623.934 98.8167 623.848 99.77ZM673.923 95.61C675.917 95.6967 678.3 95.6967 681.073 95.61H683.283V96C683.197 106.487 682.98 117.19 682.633 128.11C682.373 139.03 682.547 149.733 683.153 160.22C682.72 160.74 681.637 161 679.903 161C678.17 161.087 676.263 161.087 674.183 161C672.19 161 670.283 160.957 668.463 160.87C666.643 160.783 665.43 160.827 664.823 161C665.257 155.54 665.43 149.993 665.343 144.36C665.343 138.727 665.257 133.137 665.083 127.59C664.91 122.043 664.823 116.583 664.823 111.21C664.823 105.75 665.083 100.463 665.603 95.35V95.22C665.95 95.1333 666.513 95.1333 667.293 95.22C668.16 95.3067 668.81 95.35 669.243 95.35C670.37 95.4367 671.93 95.5233 673.923 95.61ZM665.213 77.41C665.04 74.6367 664.997 71.2567 665.083 67.27L682.763 67.66C682.763 68.18 682.763 69.1333 682.763 70.52C682.85 71.82 682.893 73.2933 682.893 74.94C682.98 76.5 683.023 78.1467 683.023 79.88C683.11 81.5267 683.153 83 683.153 84.3C682.807 84.82 681.983 85.1667 680.683 85.34C679.47 85.5133 677.997 85.6 676.263 85.6C674.617 85.5133 672.84 85.4267 670.933 85.34C669.027 85.1667 667.25 85.1233 665.603 85.21C665.603 82.6967 665.473 80.0967 665.213 77.41ZM710.977 72.21C712.451 72.2967 713.924 72.2533 715.397 72.08V89.5C715.397 90.6267 715.397 91.7967 715.397 93.01C715.484 94.2233 715.527 95.48 715.527 96.78C718.214 96.6933 721.031 96.5633 723.977 96.39C727.011 96.2167 730.737 96 735.157 95.74C735.764 96.4333 736.111 97.4733 736.197 98.86C736.284 100.16 736.284 101.59 736.197 103.15C736.111 104.71 735.981 106.313 735.807 107.96C735.721 109.52 735.764 110.863 735.937 111.99H715.787C715.787 116.67 715.787 121.263 715.787 125.77C715.787 130.19 715.831 134.35 715.917 138.25C716.784 139.463 718.041 140.417 719.687 141.11C721.334 141.803 723.111 142.367 725.017 142.8C726.924 143.147 728.831 143.363 730.737 143.45C732.731 143.537 734.464 143.537 735.937 143.45C736.111 144.663 736.284 146.007 736.457 147.48C736.631 148.953 736.761 150.47 736.847 152.03C736.934 153.59 736.891 155.15 736.717 156.71C736.631 158.27 736.371 159.7 735.937 161C732.471 161.173 728.874 161.173 725.147 161C721.421 160.74 717.911 160.22 714.617 159.44C711.324 158.66 708.377 157.49 705.777 155.93C703.264 154.37 701.444 152.247 700.317 149.56C699.191 142.887 698.541 136.603 698.367 130.71C698.194 124.73 698.151 118.577 698.237 112.25C696.851 112.337 695.377 112.38 693.817 112.38C692.344 112.38 690.697 112.38 688.877 112.38L689.267 96.52C691.001 96.6067 692.604 96.65 694.077 96.65C695.637 96.65 697.111 96.65 698.497 96.65C698.497 94.7433 698.454 92.7067 698.367 90.54C698.281 88.2867 698.237 86.0333 698.237 83.78C698.237 81.5267 698.237 79.36 698.237 77.28C698.324 75.2 698.454 73.3367 698.627 71.69C699.754 71.5167 700.967 71.4733 702.267 71.56C703.654 71.6467 705.084 71.7767 706.557 71.95C708.031 72.0367 709.504 72.1233 710.977 72.21ZM747.991 96.26C751.457 96 754.577 96.0433 757.351 96.39C757.957 99.51 758.651 103.237 759.431 107.57C760.211 111.817 761.034 116.15 761.901 120.57C762.767 124.99 763.677 129.237 764.631 133.31C765.584 137.297 766.537 140.59 767.491 143.19C768.444 140.59 769.224 137.167 769.831 132.92C770.437 128.673 771.001 124.253 771.521 119.66C772.127 115.067 772.777 110.647 773.471 106.4C774.164 102.153 775.031 98.73 776.071 96.13C779.017 96.2167 782.007 96.1733 785.041 96C788.074 95.8267 791.411 95.87 795.051 96.13C793.664 101.33 792.407 106.313 791.281 111.08C790.241 115.76 789.201 120.353 788.161 124.86C787.034 129.107 785.994 133.57 785.041 138.25C784.174 142.93 783.047 147.523 781.661 152.03C780.361 156.537 778.671 160.827 776.591 164.9C774.511 168.973 771.737 172.483 768.271 175.43C764.891 178.463 760.644 180.76 755.531 182.32C750.504 183.88 744.307 184.443 736.941 184.01C736.074 181.41 735.641 178.463 735.641 175.17C735.554 171.963 735.727 169.147 736.161 166.72C738.241 166.72 740.364 166.807 742.531 166.98C744.784 167.153 746.777 167.023 748.511 166.59C750.244 166.243 751.544 165.42 752.411 164.12C753.364 162.82 753.624 160.74 753.191 157.88C751.371 147.393 749.074 136.907 746.301 126.42C743.527 115.933 740.797 105.793 738.111 96C741.231 96.3467 744.524 96.4333 747.991 96.26ZM903.056 98.34V98.86L903.966 110.82L890.186 111.21C889.233 113.983 888.323 116.713 887.456 119.4C886.59 122.087 885.68 124.817 884.726 127.59C885.68 127.677 887.63 127.72 890.576 127.72C893.523 127.633 897.206 127.763 901.626 128.11C901.886 128.803 902.016 129.453 902.016 130.06C902.103 130.667 902.146 131.403 902.146 132.27C902.233 133.137 902.276 134.177 902.276 135.39C902.276 136.603 902.363 138.207 902.536 140.2V140.46C901.15 140.633 899.85 140.763 898.636 140.85C897.423 140.85 896.036 140.85 894.476 140.85C892.916 140.85 891.01 140.85 888.756 140.85C886.59 140.85 883.773 140.893 880.306 140.98H880.176H879.916C879.743 141.24 879.396 142.15 878.876 143.71C878.443 145.27 877.88 147.047 877.186 149.04C876.493 151.033 875.713 153.113 874.846 155.28C873.98 157.36 873.113 159.18 872.246 160.74L872.116 160.87H871.856C871.683 160.87 870.47 160.913 868.216 161C866.05 161.087 862.323 161.043 857.036 160.87C857.99 157.057 859.116 153.547 860.416 150.34C861.716 147.047 862.8 143.797 863.666 140.59H863.536C863.536 140.59 863.276 140.59 862.756 140.59C862.323 140.503 861.543 140.46 860.416 140.46C859.29 140.46 857.73 140.46 855.736 140.46C853.83 140.46 851.403 140.503 848.456 140.59C847.763 142.583 847.243 144.013 846.896 144.88C846.55 145.747 846.203 146.57 845.856 147.35C845.596 148.13 845.206 149.127 844.686 150.34C844.166 151.553 843.386 153.503 842.346 156.19C842.086 157.057 841.826 157.793 841.566 158.4C841.393 159.007 841.046 159.787 840.526 160.74C840.353 160.913 840.006 161 839.486 161C838.62 160.913 837.06 160.87 834.806 160.87C832.553 160.783 829.476 160.827 825.576 161C826.27 157.36 827.223 153.937 828.436 150.73C829.736 147.437 830.993 144.143 832.206 140.85C830.733 140.85 829.26 140.937 827.786 141.11C826.313 141.197 824.926 141.197 823.626 141.11C823.453 138.857 823.366 136.517 823.366 134.09C823.366 131.663 823.323 129.28 823.236 126.94C823.323 127.027 823.583 127.113 824.016 127.2C824.45 127.287 825.143 127.373 826.096 127.46C827.136 127.547 828.566 127.633 830.386 127.72C832.206 127.72 834.59 127.677 837.536 127.59C837.796 127.33 838.013 126.897 838.186 126.29C838.36 125.683 838.62 124.773 838.966 123.56C839.313 122.347 839.79 120.743 840.396 118.75C841.003 116.757 841.826 114.243 842.866 111.21C842.866 111.21 842.736 111.21 842.476 111.21C842.216 111.21 841.48 111.21 840.266 111.21C839.14 111.21 837.363 111.253 834.936 111.34C832.51 111.34 829.173 111.34 824.926 111.34L824.666 97.3C824.666 97.3 824.796 97.3433 825.056 97.43C825.403 97.5167 826.14 97.6467 827.266 97.82C828.48 97.9067 830.343 97.9933 832.856 98.08C835.37 98.08 838.836 98.0367 843.256 97.95C843.863 97.95 844.556 97.9933 845.336 98.08C846.116 98.08 846.766 98.0367 847.286 97.95C847.286 97.8633 847.286 97.82 847.286 97.82C847.373 97.82 847.416 97.7767 847.416 97.69C847.676 97.17 848.066 96.0867 848.586 94.44C849.193 92.7933 849.8 90.9733 850.406 88.98C851.1 86.9 851.706 84.9067 852.226 83C852.833 81.0067 853.266 79.4033 853.526 78.19V78.06C853.786 78.1467 854.176 78.2333 854.696 78.32C855.303 78.32 856.17 78.32 857.296 78.32C858.51 78.32 860.07 78.3633 861.976 78.45C863.883 78.5367 866.223 78.6233 868.996 78.71C868.996 78.8833 868.91 79.2733 868.736 79.88C868.65 80.4867 868.39 81.5267 867.956 83C867.523 84.3867 866.916 86.2933 866.136 88.72C865.356 91.06 864.403 94.0933 863.276 97.82C865.616 97.9067 868 97.9067 870.426 97.82C872.853 97.7333 875.626 97.7333 878.746 97.82C879.44 96.6933 880.35 94.3967 881.476 90.93C882.603 87.4633 883.86 83.13 885.246 77.93H885.376H885.506C887.933 78.3633 890.36 78.45 892.786 78.19C895.3 77.93 897.77 78.0167 900.196 78.45C900.283 78.97 900.283 79.5333 900.196 80.14C900.11 80.66 899.85 81.57 899.416 82.87C899.07 84.17 898.506 86.0333 897.726 88.46C897.033 90.8 896.08 94.05 894.866 98.21C896.253 98.21 897.596 98.2533 898.896 98.34C900.283 98.34 901.67 98.34 903.056 98.34ZM855.736 119.27C854.87 122.043 853.96 124.817 853.006 127.59L869.256 127.46C869.256 127.373 869.256 127.33 869.256 127.33C869.343 127.243 869.386 127.157 869.386 127.07C869.993 124.383 870.816 121.783 871.856 119.27C872.896 116.757 873.806 114.07 874.586 111.21V111.08H874.456H874.326C871.553 110.993 868.91 110.95 866.396 110.95C863.883 110.863 861.37 110.82 858.856 110.82H858.596V110.95C857.643 113.723 856.69 116.497 855.736 119.27ZM947.639 154.11C947.639 155.67 947.683 157.187 947.769 158.66C947.769 159.18 947.509 159.613 946.989 159.96C946.469 160.22 945.819 160.437 945.039 160.61C944.259 160.783 943.393 160.913 942.439 161C941.486 161 940.619 161 939.839 161C937.673 161 935.419 160.913 933.079 160.74C930.826 160.48 928.833 160.263 927.099 160.09V159.96V147.35C927.099 138.943 927.359 130.623 927.879 122.39C928.399 114.157 928.659 105.837 928.659 97.43C928.659 96.9967 928.659 96.6067 928.659 96.26C928.659 95.9133 928.616 95.5233 928.529 95.09C928.096 95.0033 927.706 95.35 927.359 96.13C927.013 96.8233 926.623 97.6467 926.189 98.6C925.756 99.4667 925.279 100.29 924.759 101.07C924.239 101.85 923.633 102.24 922.939 102.24C922.506 102.24 921.466 102.067 919.819 101.72C918.173 101.373 916.396 100.94 914.489 100.42C912.583 99.9 910.893 99.38 909.419 98.86C907.946 98.34 907.209 97.8633 907.209 97.43C907.296 96.39 907.729 95.0033 908.509 93.27C909.289 91.5367 910.199 89.63 911.239 87.55C912.366 85.47 913.579 83.3467 914.879 81.18C916.179 79.0133 917.393 77.02 918.519 75.2C919.646 73.38 920.599 71.8633 921.379 70.65C922.246 69.35 922.766 68.6133 922.939 68.44C924.933 68.3533 926.883 68.31 928.789 68.31C930.783 68.2233 932.776 68.18 934.769 68.18C937.023 68.18 939.276 68.2233 941.529 68.31C943.783 68.3967 946.079 68.5267 948.419 68.7C948.679 72.4267 948.853 76.11 948.939 79.75C949.026 83.3033 949.069 86.9 949.069 90.54C949.069 100.507 948.809 110.343 948.289 120.05C947.856 129.757 947.639 139.593 947.639 149.56C947.639 151.033 947.639 152.55 947.639 154.11Z" fill="white"/>
<g clip-path="url(#clip1_1_53)">
<path d="M690.75 237.344H603.75V259.125H690.75V237.344Z" fill="#FF638D"/>
<path d="M756 237.344H690.75V259.125H756V237.344Z" fill="#FEE3F3"/>
<path d="M690.75 259.125H560.25V280.906H690.75V259.125Z" fill="#FF638D"/>
<path d="M712.5 259.125H690.75V280.906H712.5V259.125Z" fill="#FEE3F3"/>
<path d="M734.25 259.125H712.5V280.906H734.25V259.125Z" fill="black"/>
<path d="M756 259.125H734.25V280.906H756V259.125Z" fill="#FEE3F3"/>
<path d="M777.75 259.125H756V280.906H777.75V259.125Z" fill="#FF638D"/>
<path d="M690.75 280.906H538.5V302.688H690.75V280.906Z" fill="#FF638D"/>
<path d="M756 280.906H690.75V302.688H756V280.906Z" fill="#FEE3F3"/>
<path d="M799.5 280.906H756V302.688H799.5V280.906Z" fill="#FF638D"/>
<path d="M603.75 302.688H516.75V324.469H603.75V302.688Z" fill="#FF638D"/>
<path d="M777.75 302.688H712.5V324.469H777.75V302.688Z" fill="#FF638D"/>
<path d="M821.25 302.688H777.75V324.469H821.25V302.688Z" fill="#FEB9D5"/>
<path d="M582 324.469H495V346.25H582V324.469Z" fill="#FF638D"/>
<path d="M821.25 324.469H756V346.25H821.25V324.469Z" fill="#FEB9D5"/>
<path d="M582 346.25H495V368.031H582V346.25Z" fill="#FF638D"/>
<path d="M799.5 346.25H756V368.031H799.5V346.25Z" fill="#FEB9D5"/>
<path d="M821.25 346.25H799.5V368.031H821.25V346.25Z" fill="#1F1D29"/>
<path d="M603.75 368.031H495V389.812H603.75V368.031Z" fill="#FF638D"/>
<path d="M821.25 368.031H777.75V389.812H821.25V368.031Z" fill="#1F1D29"/>
<path d="M647.25 389.812H516.75V411.594H647.25V389.812Z" fill="#FF638D"/>
<path d="M821.25 389.812H777.75V411.594H821.25V389.812Z" fill="#1F1D29"/>
<path d="M712.5 411.594H538.5V433.375H712.5V411.594Z" fill="#FF638D"/>
<path d="M799.5 411.594H777.75V433.375H799.5V411.594Z" fill="#1F1D29"/>
<path d="M756 433.375H560.25V455.156H756V433.375Z" fill="#FF638D"/>
<path d="M777.75 455.156H582V476.938H777.75V455.156Z" fill="#FF638D"/>
<path d="M799.5 476.938H625.5V498.719H799.5V476.938Z" fill="#FF638D"/>
<path d="M799.5 498.719H669V520.5H799.5V498.719Z" fill="#FF638D"/>
<path d="M821.25 520.5H364.5V542.281H821.25V520.5Z" fill="#FF82AD"/>
<path d="M821.25 542.281H342.75V564.062H821.25V542.281Z" fill="#FF82AD"/>
<path d="M582 564.062H342.75V585.844H582V564.062Z" fill="#FF638D"/>
<path d="M712.5 564.062H582V585.844H712.5V564.062Z" fill="#B9185C"/>
<path d="M821.25 564.062H712.5V585.844H821.25V564.062Z" fill="#FF638D"/>
<path d="M821.25 585.844H342.75V607.625H821.25V585.844Z" fill="#FF638D"/>
<path d="M799.5 607.625H364.5V629.406H799.5V607.625Z" fill="#FF638D"/>
<g clip-path="url(#clip2_1_53)">
<path d="M588.144 451.695H476.427V462.883H588.144V451.695Z" fill="#E9265C"/>
<path d="M588.144 462.883H476.427V474.071H588.144V462.883Z" fill="#E9265C"/>
<path d="M498.77 474.071H476.427V485.258H498.77V474.071Z" fill="#E9265C"/>
<path d="M588.144 474.071H509.942V485.258H588.144V474.071Z" fill="#E9265C"/>
<path d="M498.77 485.258H476.427V496.446H498.77V485.258Z" fill="#E9265C"/>
<path d="M588.144 485.258H509.942V496.446H588.144V485.258Z" fill="#E9265C"/>
<path d="M498.77 496.446H476.427V507.634H498.77V496.446Z" fill="#E9265C"/>
<path d="M588.144 496.446H509.942V507.634H588.144V496.446Z" fill="#E9265C"/>
<path d="M498.77 507.634H476.427V518.822H498.77V507.634Z" fill="#E9265C"/>
<path d="M588.144 507.634H509.942V518.822H588.144V507.634Z" fill="#E9265C"/>
<path d="M498.77 451.695H476.427V462.883H498.77V451.695Z" fill="#DF2C39"/>
<path d="M521.114 451.695H498.77V462.883H521.114V451.695Z" fill="black"/>
<path d="M543.457 451.695H521.114V462.883H543.457V451.695Z" fill="#DF2C39"/>
<path d="M565.801 451.695H543.457V462.883H565.801V451.695Z" fill="black"/>
<path d="M588.144 451.695H565.801V462.883H588.144V451.695Z" fill="#DF2C39"/>
<path d="M498.77 462.883H476.427V474.071H498.77V462.883Z" fill="#DF2C39"/>
<path d="M521.114 462.883H498.77V474.071H521.114V462.883Z" fill="black"/>
<path d="M543.457 462.883H521.114V474.071H543.457V462.883Z" fill="#DF2C39"/>
<path d="M565.801 462.883H543.457V474.071H565.801V462.883Z" fill="black"/>
<path d="M588.144 462.883H565.801V474.071H588.144V462.883Z" fill="#DF2C39"/>
<path d="M498.77 474.071H476.427V485.258H498.77V474.071Z" fill="black"/>
<path d="M521.114 474.071H509.942V485.258H521.114V474.071Z" fill="#5C25FB"/>
<path d="M543.457 474.071H521.114V485.258H543.457V474.071Z" fill="black"/>
<path d="M565.801 474.071H543.457V485.258H565.801V474.071Z" fill="#5C25FB"/>
<path d="M588.144 474.071H565.801V485.258H588.144V474.071Z" fill="black"/>
<path d="M498.77 485.258H476.427V496.446H498.77V485.258Z" fill="black"/>
<path d="M521.114 485.258H509.942V496.446H521.114V485.258Z" fill="#5C25FB"/>
<path d="M543.457 485.258H521.114V496.446H543.457V485.258Z" fill="black"/>
<path d="M565.801 485.258H543.457V496.446H565.801V485.258Z" fill="#5C25FB"/>
<path d="M588.144 485.258H565.801V496.446H588.144V485.258Z" fill="black"/>
<path d="M498.77 496.446H476.427V507.634H498.77V496.446Z" fill="#45FAFF"/>
<path d="M521.114 496.446H509.942V507.634H521.114V496.446Z" fill="black"/>
<path d="M543.457 496.446H521.114V507.634H543.457V496.446Z" fill="#45FAFF"/>
<path d="M565.801 496.446H543.457V507.634H565.801V496.446Z" fill="black"/>
<path d="M588.144 496.446H565.801V507.634H588.144V496.446Z" fill="#45FAFF"/>
<path d="M498.77 507.634H476.427V518.822H498.77V507.634Z" fill="#45FAFF"/>
<path d="M521.114 507.634H509.942V518.822H521.114V507.634Z" fill="black"/>
<path d="M543.457 507.634H521.114V518.822H543.457V507.634Z" fill="#45FAFF"/>
<path d="M565.801 507.634H543.457V518.822H565.801V507.634Z" fill="black"/>
<path d="M588.144 507.634H565.801V518.822H588.144V507.634Z" fill="#45FAFF"/>
<path d="M543.457 261.502H521.114V272.69H543.457V261.502Z" fill="#4BEA69"/>
<path d="M498.77 272.69H487.599V283.878H498.77V272.69Z" fill="#4BEA69"/>
<path d="M554.629 272.69H532.286V283.878H554.629V272.69Z" fill="#4BEA69"/>
<path d="M632.831 272.69H621.66V283.878H632.831V272.69Z" fill="#FFC110"/>
<path d="M521.114 283.878H498.77V295.066H521.114V283.878Z" fill="#4BEA69"/>
<path d="M554.629 283.878H532.286V295.066H554.629V283.878Z" fill="#4BEA69"/>
<path d="M621.66 283.878H599.316V295.066H621.66V283.878Z" fill="#FFC110"/>
<path d="M487.599 295.066H454.083V306.254H487.599V295.066Z" fill="#FDF8FF"/>
<path d="M554.629 295.066H498.77V306.254H554.629V295.066Z" fill="#4BEA69"/>
<path d="M610.488 295.066H576.973V306.254H610.488V295.066Z" fill="#FFC110"/>
<path d="M454.083 306.254H420.568V317.441H454.083V306.254Z" fill="#4BEA69"/>
<path d="M487.599 306.254H454.083V317.441H487.599V306.254Z" fill="#FDF8FF"/>
<path d="M565.801 306.254H487.599V317.441H565.801V306.254Z" fill="#4BEA69"/>
<path d="M599.316 306.254H565.801V317.441H599.316V306.254Z" fill="#FFC110"/>
<path d="M610.488 306.254H599.316V317.441H610.488V306.254Z" fill="#FDF8FF"/>
<path d="M409.396 317.441H398.225V328.629H409.396V317.441Z" fill="#4BEA69"/>
<path d="M454.083 317.441H420.568V328.629H454.083V317.441Z" fill="#4BEA69"/>
<path d="M532.286 317.441H454.083V328.629H532.286V317.441Z" fill="#FDF8FF"/>
<path d="M543.457 317.441H532.286V328.629H543.457V317.441Z" fill="#4BEA69"/>
<path d="M588.144 317.441H543.457V328.629H588.144V317.441Z" fill="#FFC110"/>
<path d="M610.488 317.441H588.144V328.629H610.488V317.441Z" fill="#FDF8FF"/>
<path d="M442.912 328.629H409.396V339.817H442.912V328.629Z" fill="#4BEA69"/>
<path d="M454.083 328.629H442.912V339.817H454.083V328.629Z" fill="#FF638D"/>
<path d="M532.286 328.629H454.083V339.817H532.286V328.629Z" fill="#FDF8FF"/>
<path d="M576.973 328.629H532.286V339.817H576.973V328.629Z" fill="#FFC110"/>
<path d="M610.488 328.629H576.973V339.817H610.488V328.629Z" fill="#FDF8FF"/>
<path d="M431.74 339.817H420.568V351.005H431.74V339.817Z" fill="#4BEA69"/>
<path d="M454.083 339.817H431.74V351.005H454.083V339.817Z" fill="#FF638D"/>
<path d="M532.286 339.817H454.083V351.005H532.286V339.817Z" fill="#FDF8FF"/>
<path d="M565.801 339.817H532.286V351.005H565.801V339.817Z" fill="#FFC110"/>
<path d="M610.488 339.817H565.801V351.005H610.488V339.817Z" fill="#FDF8FF"/>
<path d="M454.083 351.005H420.568V362.193H454.083V351.005Z" fill="#FF638D"/>
<path d="M532.286 351.005H454.083V362.193H532.286V351.005Z" fill="#FDF8FF"/>
<path d="M554.629 351.005H532.286V362.193H554.629V351.005Z" fill="#FFC110"/>
<path d="M610.488 351.005H554.629V362.193H610.488V351.005Z" fill="#FDF8FF"/>
<path d="M454.083 362.193H409.396V373.38H454.083V362.193Z" fill="#FF638D"/>
<path d="M532.286 362.193H454.083V373.38H532.286V362.193Z" fill="#FDF8FF"/>
<path d="M543.457 362.193H532.286V373.38H543.457V362.193Z" fill="#FFC110"/>
<path d="M610.488 362.193H543.457V373.38H610.488V362.193Z" fill="#FDF8FF"/>
<path d="M454.083 373.38H420.568V384.568H454.083V373.38Z" fill="#FF638D"/>
<path d="M610.488 373.38H454.083V384.568H610.488V373.38Z" fill="#FDF8FF"/>
<path d="M454.083 384.568H420.568V395.756H454.083V384.568Z" fill="#FF638D"/>
<path d="M610.488 384.568H454.083V395.756H610.488V384.568Z" fill="#FDF8FF"/>
<path d="M454.083 395.756H420.568V406.944H454.083V395.756Z" fill="#FF638D"/>
<path d="M655.175 395.756H454.083V406.944H655.175V395.756Z" fill="#FEB9D5"/>
<path d="M431.74 406.944H409.396V418.132H431.74V406.944Z" fill="#FF638D"/>
<path d="M454.083 406.944H431.74V418.132H454.083V406.944Z" fill="#667AF9"/>
<path d="M610.488 406.944H454.083V418.132H610.488V406.944Z" fill="#FEB9D5"/>
<path d="M621.66 406.944H610.488V418.132H621.66V406.944Z" fill="#FF638D"/>
<path d="M632.831 406.944H621.66V418.132H632.831V406.944Z" fill="#FEB9D5"/>
<path d="M644.003 406.944H632.831V418.132H644.003V406.944Z" fill="#FF638D"/>
<path d="M655.175 406.944H644.003V418.132H655.175V406.944Z" fill="#FEB9D5"/>
<path d="M454.083 418.132H409.396V429.319H454.083V418.132Z" fill="#667AF9"/>
<path d="M487.599 418.132H454.083V429.319H487.599V418.132Z" fill="#FEB9D5"/>
<path d="M498.77 418.132H487.599V429.319H498.77V418.132Z" fill="#FF638D"/>
<path d="M509.942 418.132H498.77V429.319H509.942V418.132Z" fill="#FDF8FF"/>
<path d="M521.114 418.132H509.942V429.319H521.114V418.132Z" fill="black"/>
<path d="M532.286 418.132H521.114V429.319H532.286V418.132Z" fill="#FDF8FF"/>
<path d="M543.457 418.132H532.286V429.319H543.457V418.132Z" fill="#FF638D"/>
<path d="M655.175 418.132H543.457V429.319H655.175V418.132Z" fill="#FEB9D5"/>
<path d="M454.083 429.319H420.568V440.507H454.083V429.319Z" fill="#667AF9"/>
<path d="M655.175 429.319H454.083V440.507H655.175V429.319Z" fill="#FEB9D5"/>
<path d="M454.083 440.507H420.568V451.695H454.083V440.507Z" fill="#667AF9"/>
<path d="M655.175 440.507H454.083V451.695H655.175V440.507Z" fill="#FEB9D5"/>
<path d="M454.083 451.695H431.74V462.883H454.083V451.695Z" fill="#667AF9"/>
<path d="M454.083 462.883H442.912V474.071H454.083V462.883Z" fill="#667AF9"/>
<path d="M532.286 317.441H442.912V328.629H532.286V317.441Z" fill="black"/>
<path d="M632.831 317.441H543.457V328.629H632.831V317.441Z" fill="black"/>
<path d="M454.083 328.629H442.912V339.817H454.083V328.629Z" fill="black"/>
<path d="M476.427 328.629H454.083V339.817H476.427V328.629Z" fill="white"/>
<path d="M521.114 328.629H476.427V339.817H521.114V328.629Z" fill="#FF0E0E"/>
<path d="M532.286 328.629H521.114V339.817H532.286V328.629Z" fill="black"/>
<path d="M554.629 328.629H543.457V339.817H554.629V328.629Z" fill="black"/>
<path d="M576.973 328.629H554.629V339.817H576.973V328.629Z" fill="white"/>
<path d="M621.66 328.629H576.973V339.817H621.66V328.629Z" fill="#FF0E0E"/>
<path d="M632.831 328.629H621.66V339.817H632.831V328.629Z" fill="black"/>
<path d="M454.083 339.817H442.912V351.005H454.083V339.817Z" fill="black"/>
<path d="M476.427 339.817H454.083V351.005H476.427V339.817Z" fill="white"/>
<path d="M521.114 339.817H476.427V351.005H521.114V339.817Z" fill="#FF0E0E"/>
<path d="M532.286 339.817H521.114V351.005H532.286V339.817Z" fill="black"/>
<path d="M554.629 339.817H543.457V351.005H554.629V339.817Z" fill="black"/>
<path d="M576.973 339.817H554.629V351.005H576.973V339.817Z" fill="white"/>
<path d="M621.66 339.817H576.973V351.005H621.66V339.817Z" fill="#FF0E0E"/>
<path d="M632.831 339.817H621.66V351.005H632.831V339.817Z" fill="black"/>
<path d="M454.083 351.005H409.396V362.193H454.083V351.005Z" fill="black"/>
<path d="M476.427 351.005H454.083V362.193H476.427V351.005Z" fill="white"/>
<path d="M521.114 351.005H476.427V362.193H521.114V351.005Z" fill="#FF0E0E"/>
<path d="M554.629 351.005H521.114V362.193H554.629V351.005Z" fill="black"/>
<path d="M576.973 351.005H554.629V362.193H576.973V351.005Z" fill="white"/>
<path d="M621.66 351.005H576.973V362.193H621.66V351.005Z" fill="#FF0E0E"/>
<path d="M632.831 351.005H621.66V362.193H632.831V351.005Z" fill="black"/>
<path d="M420.568 362.193H409.396V373.38H420.568V362.193Z" fill="black"/>
<path d="M454.083 362.193H442.912V373.38H454.083V362.193Z" fill="black"/>
<path d="M476.427 362.193H454.083V373.38H476.427V362.193Z" fill="white"/>
<path d="M521.114 362.193H476.427V373.38H521.114V362.193Z" fill="#FF0E0E"/>
<path d="M532.286 362.193H521.114V373.38H532.286V362.193Z" fill="black"/>
<path d="M554.629 362.193H543.457V373.38H554.629V362.193Z" fill="black"/>
<path d="M576.973 362.193H554.629V373.38H576.973V362.193Z" fill="white"/>
<path d="M621.66 362.193H576.973V373.38H621.66V362.193Z" fill="#FF0E0E"/>
<path d="M632.831 362.193H621.66V373.38H632.831V362.193Z" fill="black"/>
<path d="M420.568 373.38H409.396V384.568H420.568V373.38Z" fill="black"/>
<path d="M454.083 373.38H442.912V384.568H454.083V373.38Z" fill="black"/>
<path d="M476.427 373.38H454.083V384.568H476.427V373.38Z" fill="white"/>
<path d="M521.114 373.38H476.427V384.568H521.114V373.38Z" fill="#FF0E0E"/>
<path d="M532.286 373.38H521.114V384.568H532.286V373.38Z" fill="black"/>
<path d="M554.629 373.38H543.457V384.568H554.629V373.38Z" fill="black"/>
<path d="M576.973 373.38H554.629V384.568H576.973V373.38Z" fill="white"/>
<path d="M621.66 373.38H576.973V384.568H621.66V373.38Z" fill="#FF0E0E"/>
<path d="M632.831 373.38H621.66V384.568H632.831V373.38Z" fill="black"/>
<path d="M454.083 384.568H442.912V395.756H454.083V384.568Z" fill="black"/>
<path d="M476.427 384.568H454.083V395.756H476.427V384.568Z" fill="white"/>
<path d="M521.114 384.568H476.427V395.756H521.114V384.568Z" fill="#FF0E0E"/>
<path d="M532.286 384.568H521.114V395.756H532.286V384.568Z" fill="black"/>
<path d="M554.629 384.568H543.457V395.756H554.629V384.568Z" fill="black"/>
<path d="M576.973 384.568H554.629V395.756H576.973V384.568Z" fill="white"/>
<path d="M621.66 384.568H576.973V395.756H621.66V384.568Z" fill="#FF0E0E"/>
<path d="M632.831 384.568H621.66V395.756H632.831V384.568Z" fill="black"/>
<path d="M532.286 395.756H442.912V406.944H532.286V395.756Z" fill="black"/>
<path d="M632.831 395.756H543.457V406.944H632.831V395.756Z" fill="black"/>
</g>
</g>
</g>
<defs>
<clipPath id="clip0_1_53">
<rect width="1200" height="630" fill="white"/>
</clipPath>
<clipPath id="clip1_1_53">
<rect width="696" height="697" fill="white" transform="translate(234 172)"/>
</clipPath>
<clipPath id="clip2_1_53">
<rect width="357.496" height="358.01" fill="white" transform="translate(353.538 160.812)"/>
</clipPath>
</defs>
</svg>
