<svg width="1200" height="630" viewBox="0 0 1200 630" fill="none" xmlns="http://www.w3.org/2000/svg">
<rect width="1200" height="630" fill="#8CE890"/>
<path d="M396.03 143.19C401.577 143.45 407.297 143.493 413.19 143.32V143.58C413.363 146.353 413.407 149.257 413.32 152.29C413.233 155.237 412.843 158.01 412.15 160.61C403.31 160.523 394.297 160.653 385.11 161C376.01 161.26 367.257 161.043 358.85 160.35C358.85 152.81 358.763 145.357 358.59 137.99C358.417 130.537 358.287 123.127 358.2 115.76C358.113 108.393 358.113 101.027 358.2 93.66C358.287 86.2933 358.547 78.8833 358.98 71.43C362.36 71.2567 366 71.1267 369.9 71.04C373.887 70.8667 377.873 70.7367 381.86 70.65C385.847 70.5633 389.703 70.4767 393.43 70.39C397.157 70.3033 400.45 70.26 403.31 70.26C406.17 70.26 408.467 70.3033 410.2 70.39C411.933 70.4767 412.8 70.5633 412.8 70.65C413.233 73.6833 413.32 76.76 413.06 79.88C412.887 83 412.8 86.0767 412.8 89.11V89.24C410.027 89.8467 407.21 90.2367 404.35 90.41C401.577 90.4967 398.76 90.54 395.9 90.54C393.04 90.4533 390.18 90.41 387.32 90.41C384.46 90.41 381.6 90.54 378.74 90.8H378.35L378.22 90.93C378.307 93.4433 378.177 96.0433 377.83 98.73C377.57 101.33 377.743 103.8 378.35 106.14L378.48 106.27C381.08 106.443 383.723 106.53 386.41 106.53C389.097 106.53 391.783 106.573 394.47 106.66V106.79C394.903 109.737 395.033 112.683 394.86 115.63C394.687 118.577 394.643 121.653 394.73 124.86C393.43 125.207 391.957 125.423 390.31 125.51C388.663 125.51 387.06 125.51 385.5 125.51C384.027 125.51 382.683 125.553 381.47 125.64C380.257 125.727 379.433 125.943 379 126.29C378.567 128.803 378.393 131.62 378.48 134.74C378.653 137.86 378.827 140.46 379 142.54L379.13 142.67C384.85 142.67 390.483 142.843 396.03 143.19ZM452.541 75.07C452.628 74.1167 452.715 72.7733 452.801 71.04V69.61C452.801 69.5233 453.365 69.4367 454.491 69.35C455.705 69.1767 457.135 69.09 458.781 69.09C460.515 69.0033 462.335 69.0033 464.241 69.09C466.148 69.09 467.795 69.22 469.181 69.48V78.06C469.181 92.5333 469.398 106.833 469.831 120.96C470.265 135.087 470.308 148.39 469.961 160.87C467.275 160.87 464.328 160.913 461.121 161C457.915 161.173 455.011 161.087 452.411 160.74C452.325 160.567 452.281 160.263 452.281 159.83C452.281 158.963 452.238 158.27 452.151 157.75C452.151 157.23 452.151 156.493 452.151 155.54C451.978 155.107 451.761 154.803 451.501 154.63C451.328 154.37 451.111 154.5 450.851 155.02C449.551 157.62 447.818 159.31 445.651 160.09C443.485 160.783 441.188 160.957 438.761 160.61C433.821 160.263 429.921 159.007 427.061 156.84C424.201 154.587 422.035 151.77 420.561 148.39C419.175 144.923 418.221 141.067 417.701 136.82C417.268 132.573 417.008 128.283 416.921 123.95C416.921 120.917 417.095 117.97 417.441 115.11C417.875 112.25 418.481 109.65 419.261 107.31C420.128 104.883 421.211 102.847 422.511 101.2C423.898 99.4667 425.545 98.2533 427.451 97.56C429.791 96.6933 432.348 96.1733 435.121 96C437.981 95.74 440.668 95.74 443.181 96C445.695 96.1733 447.818 96.5633 449.551 97.17C451.285 97.7767 452.238 98.47 452.411 99.25C452.325 95.1767 452.281 91.8833 452.281 89.37C452.281 86.8567 452.281 84.8633 452.281 83.39C452.281 81.83 452.281 80.66 452.281 79.88C452.368 79.0133 452.411 78.2333 452.411 77.54C452.498 76.76 452.541 75.9367 452.541 75.07ZM436.421 113.16C434.341 114.72 433.085 117.017 432.651 120.05C432.218 121.263 431.958 122.52 431.871 123.82C431.785 125.12 431.741 126.377 431.741 127.59C431.741 129.757 432.001 131.88 432.521 133.96C433.041 135.953 433.821 137.773 434.861 139.42C435.901 140.98 437.158 142.237 438.631 143.19C440.105 144.143 441.751 144.62 443.571 144.62C445.738 144.62 447.428 144.143 448.641 143.19C449.941 142.237 450.895 140.937 451.501 139.29C452.195 137.643 452.585 135.693 452.671 133.44C452.845 131.1 452.931 128.543 452.931 125.77C452.931 122.39 452.845 119.747 452.671 117.84C452.585 115.847 452.281 114.33 451.761 113.29C451.241 112.25 450.418 111.6 449.291 111.34C448.251 110.993 446.821 110.82 445.001 110.82C441.448 110.82 438.588 111.6 436.421 113.16ZM510.897 157.23C510.984 156.277 510.984 155.193 510.897 153.98C510.464 154.24 509.901 154.543 509.207 154.89C508.601 155.237 508.081 155.583 507.647 155.93C505.827 157.23 503.791 158.27 501.537 159.05C499.284 159.83 496.944 160.263 494.517 160.35C492.177 160.437 489.881 160.177 487.627 159.57C485.374 158.963 483.337 157.88 481.517 156.32C480.651 155.54 479.957 153.937 479.437 151.51C479.004 148.997 478.701 146.007 478.527 142.54C478.441 139.073 478.397 135.303 478.397 131.23C478.484 127.07 478.571 122.91 478.657 118.75C478.744 114.503 478.831 110.43 478.917 106.53C479.004 102.63 478.961 99.2067 478.787 96.26C481.821 95.8267 484.507 95.6533 486.847 95.74C489.274 95.74 492.004 95.74 495.037 95.74C495.211 97.7333 495.297 99.9867 495.297 102.5C495.297 105.013 495.254 107.613 495.167 110.3C495.167 112.987 495.167 115.673 495.167 118.36C495.254 121.047 495.384 123.56 495.557 125.9C495.644 126.94 495.731 128.11 495.817 129.41C495.904 130.623 496.034 131.837 496.207 133.05C496.467 134.263 496.771 135.347 497.117 136.3C497.551 137.253 498.114 137.99 498.807 138.51C498.894 138.597 498.981 138.64 499.067 138.64C499.154 138.64 499.241 138.683 499.327 138.77C500.021 139.117 501.017 139.42 502.317 139.68C503.704 139.853 505.047 139.767 506.347 139.42C507.647 138.987 508.817 138.207 509.857 137.08C510.897 135.867 511.504 134.09 511.677 131.75C511.851 128.803 511.894 125.857 511.807 122.91C511.721 119.963 511.591 117.06 511.417 114.2C511.331 111.253 511.244 108.35 511.157 105.49C511.157 102.63 511.374 99.77 511.807 96.91V96.39C513.281 95.9567 514.537 95.6967 515.577 95.61C516.704 95.5233 517.831 95.5233 518.957 95.61C520.084 95.61 521.341 95.6533 522.727 95.74C524.114 95.8267 525.847 95.7833 527.927 95.61C527.927 106.27 528.014 116.93 528.187 127.59C528.447 138.25 528.404 149.3 528.057 160.74C527.017 160.653 526.151 160.61 525.457 160.61C524.764 160.523 524.114 160.48 523.507 160.48C522.901 160.48 522.251 160.523 521.557 160.61C520.864 160.61 519.997 160.653 518.957 160.74C518.611 160.74 518.004 160.827 517.137 161C516.271 161.087 515.404 161.173 514.537 161.26C513.671 161.347 512.891 161.347 512.197 161.26C511.504 161.26 511.157 161.13 511.157 160.87C510.984 159.397 510.897 158.183 510.897 157.23ZM583.983 135.65C585.456 135.65 586.669 135.78 587.623 136.04C587.449 138.293 587.276 140.503 587.103 142.67C586.929 144.837 586.713 146.873 586.453 148.78C586.193 150.6 585.846 152.203 585.413 153.59C585.066 154.89 584.589 155.843 583.983 156.45C582.509 158.53 580.559 160.003 578.133 160.87C575.793 161.737 573.236 162.257 570.463 162.43C567.689 162.69 564.829 162.69 561.883 162.43C558.936 162.257 556.249 162.17 553.823 162.17C549.403 161.39 545.676 159.483 542.643 156.45C540.303 154.37 538.699 151.77 537.833 148.65C536.966 145.53 536.446 142.28 536.273 138.9C536.099 135.433 536.056 131.967 536.143 128.5C536.316 125.033 536.229 121.87 535.883 119.01C535.883 115.89 536.143 112.77 536.663 109.65C536.749 108.697 537.053 107.397 537.573 105.75C538.093 104.103 538.483 102.847 538.743 101.98C539.349 100.68 540.303 99.5533 541.603 98.6C542.989 97.6467 544.549 96.8667 546.283 96.26C548.103 95.5667 550.009 95.09 552.003 94.83C554.083 94.57 556.163 94.44 558.243 94.44C559.976 94.6133 561.623 94.6567 563.183 94.57C564.829 94.3967 566.563 94.3967 568.383 94.57C571.156 94.7433 573.799 95.2633 576.313 96.13C578.826 96.9967 580.993 98.2967 582.813 100.03C584.026 100.897 584.936 102.067 585.543 103.54C586.236 105.013 586.756 106.747 587.103 108.74C587.449 110.733 587.623 112.987 587.623 115.5C587.709 117.927 587.796 120.57 587.883 123.43C586.756 123.69 585.456 123.82 583.983 123.82C582.596 123.82 581.123 123.777 579.563 123.69C578.089 123.603 576.616 123.473 575.143 123.3C573.756 123.127 572.499 122.953 571.373 122.78C570.939 119.747 569.683 117.407 567.603 115.76C565.523 114.027 562.793 113.593 559.413 114.46C557.593 114.98 556.119 115.933 554.993 117.32C554.473 117.667 554.083 118.533 553.823 119.92C553.476 122.607 553.303 125.337 553.303 128.11C553.303 130.883 553.216 133.787 553.043 136.82C552.869 138.813 553.346 140.373 554.473 141.5C555.686 142.627 557.116 143.407 558.763 143.84C560.409 144.187 562.099 144.273 563.833 144.1C565.566 143.84 566.953 143.363 567.993 142.67C568.859 142.063 569.509 141.067 569.943 139.68C570.463 138.207 570.853 136.907 571.113 135.78C571.979 135.867 573.149 135.91 574.623 135.91C576.096 135.823 577.656 135.737 579.303 135.65C580.949 135.563 582.509 135.563 583.983 135.65ZM640.062 95.87C642.229 95.9567 644.699 96.0867 647.472 96.26C647.559 96.78 647.602 97.3 647.602 97.82C647.689 98.34 647.732 98.86 647.732 99.38V100.68C647.472 110.04 647.516 119.27 647.862 128.37C648.209 137.383 648.079 146.527 647.472 155.8C647.472 156.927 647.429 158.053 647.342 159.18C647.342 160.307 646.822 160.957 645.782 161.13H644.222C642.836 161.13 641.406 161.087 639.932 161C638.546 160.827 637.159 160.74 635.772 160.74C634.819 160.74 633.866 160.827 632.912 161C632.046 161.087 631.136 161.13 630.182 161.13C629.576 160.957 629.142 160.61 628.882 160.09C628.709 159.57 628.622 158.963 628.622 158.27C628.622 157.317 628.709 156.537 628.882 155.93C629.056 155.323 629.142 154.587 629.142 153.72C627.062 155.8 624.419 157.577 621.212 159.05C618.092 160.523 615.016 161.26 611.982 161.26C608.602 161.26 605.699 160.09 603.272 157.75C600.932 155.41 598.982 152.507 597.422 149.04C595.862 145.573 594.692 141.803 593.912 137.73C593.219 133.657 592.872 129.887 592.872 126.42C592.872 122.087 593.436 118.1 594.562 114.46C595.689 110.82 597.206 107.7 599.112 105.1C601.106 102.413 603.446 100.333 606.132 98.86C608.819 97.3 611.679 96.4767 614.712 96.39C616.272 96.39 617.702 96.4333 619.002 96.52C620.389 96.52 621.646 96.7367 622.772 97.17C623.899 97.5167 624.896 98.1233 625.762 98.99C626.629 99.77 627.366 100.897 627.972 102.37C627.886 100.983 627.929 99.8133 628.102 98.86C628.362 97.82 628.492 96.78 628.492 95.74C628.492 95.6533 628.752 95.61 629.272 95.61C629.879 95.5233 630.529 95.5233 631.222 95.61C631.916 95.61 632.609 95.61 633.302 95.61C633.996 95.61 634.472 95.61 634.732 95.61C636.206 95.6967 637.982 95.7833 640.062 95.87ZM613.282 116.41C611.289 118.057 610.076 119.963 609.642 122.13C609.296 123.257 609.079 124.427 608.992 125.64C608.906 126.767 608.862 127.893 608.862 129.02C608.862 132.92 609.859 136.257 611.852 139.03C613.932 141.717 616.792 143.06 620.432 143.06C622.599 143.06 624.202 142.713 625.242 142.02C626.369 141.24 627.149 140.2 627.582 138.9C628.102 137.513 628.362 135.867 628.362 133.96C628.449 131.967 628.492 129.757 628.492 127.33C628.492 124.297 628.449 121.913 628.362 120.18C628.362 118.36 628.146 116.973 627.712 116.02C627.366 115.067 626.716 114.46 625.762 114.2C624.896 113.94 623.552 113.81 621.732 113.81C618.179 113.81 615.362 114.677 613.282 116.41ZM675.759 72.21C677.232 72.2967 678.705 72.2533 680.179 72.08V89.5C680.179 90.6267 680.179 91.7967 680.179 93.01C680.265 94.2233 680.309 95.48 680.309 96.78C682.995 96.6933 685.812 96.5633 688.759 96.39C691.792 96.2167 695.519 96 699.939 95.74C700.545 96.4333 700.892 97.4733 700.979 98.86C701.065 100.16 701.065 101.59 700.979 103.15C700.892 104.71 700.762 106.313 700.589 107.96C700.502 109.52 700.545 110.863 700.719 111.99H680.569C680.569 116.67 680.569 121.263 680.569 125.77C680.569 130.19 680.612 134.35 680.699 138.25C681.565 139.463 682.822 140.417 684.469 141.11C686.115 141.803 687.892 142.367 689.799 142.8C691.705 143.147 693.612 143.363 695.519 143.45C697.512 143.537 699.245 143.537 700.719 143.45C700.892 144.663 701.065 146.007 701.239 147.48C701.412 148.953 701.542 150.47 701.629 152.03C701.715 153.59 701.672 155.15 701.499 156.71C701.412 158.27 701.152 159.7 700.719 161C697.252 161.173 693.655 161.173 689.929 161C686.202 160.74 682.692 160.22 679.399 159.44C676.105 158.66 673.159 157.49 670.559 155.93C668.045 154.37 666.225 152.247 665.099 149.56C663.972 142.887 663.322 136.603 663.149 130.71C662.975 124.73 662.932 118.577 663.019 112.25C661.632 112.337 660.159 112.38 658.599 112.38C657.125 112.38 655.479 112.38 653.659 112.38L654.049 96.52C655.782 96.6067 657.385 96.65 658.859 96.65C660.419 96.65 661.892 96.65 663.279 96.65C663.279 94.7433 663.235 92.7067 663.149 90.54C663.062 88.2867 663.019 86.0333 663.019 83.78C663.019 81.5267 663.019 79.36 663.019 77.28C663.105 75.2 663.235 73.3367 663.409 71.69C664.535 71.5167 665.749 71.4733 667.049 71.56C668.435 71.6467 669.865 71.7767 671.339 71.95C672.812 72.0367 674.285 72.1233 675.759 72.21ZM715.892 95.61C717.885 95.6967 720.269 95.6967 723.042 95.61H725.252V96C725.165 106.487 724.949 117.19 724.602 128.11C724.342 139.03 724.515 149.733 725.122 160.22C724.689 160.74 723.605 161 721.872 161C720.139 161.087 718.232 161.087 716.152 161C714.159 161 712.252 160.957 710.432 160.87C708.612 160.783 707.399 160.827 706.792 161C707.225 155.54 707.399 149.993 707.312 144.36C707.312 138.727 707.225 133.137 707.052 127.59C706.879 122.043 706.792 116.583 706.792 111.21C706.792 105.75 707.052 100.463 707.572 95.35V95.22C707.919 95.1333 708.482 95.1333 709.262 95.22C710.129 95.3067 710.779 95.35 711.212 95.35C712.339 95.4367 713.899 95.5233 715.892 95.61ZM707.182 77.41C707.009 74.6367 706.965 71.2567 707.052 67.27L724.732 67.66C724.732 68.18 724.732 69.1333 724.732 70.52C724.819 71.82 724.862 73.2933 724.862 74.94C724.949 76.5 724.992 78.1467 724.992 79.88C725.079 81.5267 725.122 83 725.122 84.3C724.775 84.82 723.952 85.1667 722.652 85.34C721.439 85.5133 719.965 85.6 718.232 85.6C716.585 85.5133 714.809 85.4267 712.902 85.34C710.995 85.1667 709.219 85.1233 707.572 85.21C707.572 82.6967 707.442 80.0967 707.182 77.41ZM734.096 105.62C734.616 103.973 735.006 102.673 735.266 101.72C735.873 100.42 736.826 99.2933 738.126 98.34C739.513 97.3867 741.073 96.6067 742.806 96C744.626 95.3067 746.533 94.83 748.526 94.57C750.606 94.31 752.686 94.18 754.766 94.18C756.499 94.3533 758.146 94.3967 759.706 94.31C761.353 94.1367 763.086 94.1367 764.906 94.31C767.679 94.4833 770.323 95.0467 772.836 96C775.349 96.8667 777.516 98.1667 779.336 99.9C780.549 100.68 781.503 101.937 782.196 103.67C782.889 105.403 783.409 107.44 783.756 109.78C784.103 112.033 784.319 114.547 784.406 117.32C784.493 120.007 784.579 122.78 784.666 125.64C784.579 128.153 784.449 131.013 784.276 134.22C784.189 137.427 783.973 140.503 783.626 143.45C783.366 146.397 782.976 149.04 782.456 151.38C782.023 153.72 781.373 155.323 780.506 156.19C779.033 158.27 777.083 159.743 774.656 160.61C772.316 161.477 769.759 161.997 766.986 162.17C764.213 162.43 761.353 162.43 758.406 162.17C755.459 161.997 752.773 161.91 750.346 161.91C745.926 161.13 742.199 159.223 739.166 156.19C736.826 154.11 735.223 151.51 734.356 148.39C733.489 145.27 732.969 142.02 732.796 138.64C732.623 135.173 732.579 131.707 732.666 128.24C732.839 124.773 732.796 121.61 732.536 118.75C732.536 117.19 732.579 115.673 732.666 114.2C732.753 112.64 732.926 111.037 733.186 109.39C733.273 108.437 733.576 107.18 734.096 105.62ZM755.936 114.2C754.116 114.72 752.643 115.673 751.516 117.06C750.996 117.407 750.606 118.273 750.346 119.66C749.999 122.433 749.826 125.207 749.826 127.98C749.826 130.667 749.739 133.527 749.566 136.56C749.479 138.553 749.999 140.113 751.126 141.24C752.253 142.28 753.596 143.017 755.156 143.45C756.803 143.797 758.493 143.883 760.226 143.71C761.959 143.45 763.389 143.017 764.516 142.41C765.989 141.717 766.986 140.287 767.506 138.12C767.853 135.347 768.113 132.573 768.286 129.8C768.546 126.94 768.416 124.253 767.896 121.74C767.463 118.707 766.206 116.497 764.126 115.11C762.046 113.723 759.316 113.42 755.936 114.2ZM809.528 99.77C809.528 100.723 809.571 101.807 809.658 103.02C810.091 102.76 810.611 102.457 811.218 102.11C811.911 101.763 812.474 101.417 812.908 101.07C814.728 99.77 816.764 98.73 819.018 97.95C821.271 97.17 823.568 96.7367 825.907 96.65C828.334 96.5633 830.674 96.8233 832.928 97.43C835.181 98.0367 837.218 99.12 839.038 100.68C839.904 101.46 840.554 103.107 840.988 105.62C841.508 108.047 841.811 110.993 841.898 114.46C842.071 117.927 842.114 121.74 842.028 125.9C842.028 129.973 841.984 134.133 841.898 138.38C841.811 142.54 841.724 146.57 841.638 150.47C841.551 154.37 841.594 157.793 841.768 160.74C838.734 161.173 836.004 161.347 833.578 161.26C831.238 161.26 828.551 161.26 825.518 161.26C825.344 159.267 825.258 157.013 825.258 154.5C825.258 151.987 825.258 149.387 825.258 146.7C825.344 144.013 825.344 141.327 825.258 138.64C825.258 135.953 825.171 133.44 824.998 131.1C824.911 130.06 824.824 128.933 824.738 127.72C824.651 126.42 824.478 125.163 824.218 123.95C824.044 122.737 823.741 121.653 823.308 120.7C822.961 119.747 822.441 119.01 821.748 118.49C821.661 118.403 821.574 118.36 821.488 118.36C821.401 118.36 821.314 118.317 821.228 118.23C820.534 117.883 819.494 117.623 818.108 117.45C816.808 117.19 815.508 117.277 814.208 117.71C812.908 118.057 811.738 118.837 810.698 120.05C809.658 121.177 809.051 122.91 808.878 125.25C808.704 128.283 808.661 131.273 808.748 134.22C808.834 137.08 808.921 139.983 809.008 142.93C809.181 145.79 809.268 148.65 809.268 151.51C809.268 154.37 809.094 157.23 808.748 160.09V160.61C807.274 161.043 805.974 161.303 804.847 161.39C803.808 161.477 802.724 161.477 801.598 161.39C800.471 161.39 799.214 161.347 797.828 161.26C796.441 161.173 794.708 161.217 792.628 161.39C792.628 150.73 792.498 140.07 792.238 129.41C792.064 118.75 792.151 107.7 792.498 96.26C793.538 96.3467 794.404 96.4333 795.098 96.52C795.791 96.52 796.441 96.52 797.048 96.52C797.654 96.52 798.304 96.52 798.998 96.52C799.691 96.4333 800.558 96.3467 801.598 96.26C801.944 96.26 802.551 96.2167 803.418 96.13C804.284 95.9567 805.151 95.8267 806.018 95.74C806.884 95.6533 807.664 95.6533 808.358 95.74C809.051 95.74 809.398 95.87 809.398 96.13C809.571 97.6033 809.614 98.8167 809.528 99.77Z" fill="white"/>
<g clip-path="url(#clip0_10_3131)">
<path d="M466.656 533.812H306.344V549.844H466.656V533.812Z" fill="#4B4949"/>
<path d="M466.656 549.844H306.344V565.875H466.656V549.844Z" fill="#4B4949"/>
<path d="M338.406 565.875H306.344V581.906H338.406V565.875Z" fill="#4B4949"/>
<path d="M466.656 565.875H354.438V581.906H466.656V565.875Z" fill="#4B4949"/>
<path d="M338.406 581.906H306.344V597.938H338.406V581.906Z" fill="#4B4949"/>
<path d="M466.656 581.906H354.438V597.938H466.656V581.906Z" fill="#4B4949"/>
<path d="M338.406 597.938H306.344V613.969H338.406V597.938Z" fill="#4B4949"/>
<path d="M466.656 597.938H354.438V613.969H466.656V597.938Z" fill="#4B4949"/>
<path d="M338.406 613.969H306.344V630H338.406V613.969Z" fill="#4B4949"/>
<path d="M466.656 613.969H354.438V630H466.656V613.969Z" fill="#4B4949"/>
<path d="M338.406 533.812H306.344V549.844H338.406V533.812Z" fill="#254EFB"/>
<path d="M370.469 533.812H338.406V549.844H370.469V533.812Z" fill="#F3322C"/>
<path d="M402.531 533.812H370.469V549.844H402.531V533.812Z" fill="#4BEA69"/>
<path d="M434.594 533.812H402.531V549.844H434.594V533.812Z" fill="#254EFB"/>
<path d="M466.656 533.812H434.594V549.844H466.656V533.812Z" fill="#F3322C"/>
<path d="M338.406 549.844H306.344V565.875H338.406V549.844Z" fill="#254EFB"/>
<path d="M370.469 549.844H338.406V565.875H370.469V549.844Z" fill="#F3322C"/>
<path d="M402.531 549.844H370.469V565.875H402.531V549.844Z" fill="#4BEA69"/>
<path d="M434.594 549.844H402.531V565.875H434.594V549.844Z" fill="#254EFB"/>
<path d="M466.656 549.844H434.594V565.875H466.656V549.844Z" fill="#F3322C"/>
<path d="M338.406 565.875H306.344V581.906H338.406V565.875Z" fill="#4BEA69"/>
<path d="M370.469 565.875H354.438V581.906H370.469V565.875Z" fill="#254EFB"/>
<path d="M402.531 565.875H370.469V581.906H402.531V565.875Z" fill="#F3322C"/>
<path d="M434.594 565.875H402.531V581.906H434.594V565.875Z" fill="#4BEA69"/>
<path d="M466.656 565.875H434.594V581.906H466.656V565.875Z" fill="#254EFB"/>
<path d="M338.406 581.906H306.344V597.938H338.406V581.906Z" fill="#4BEA69"/>
<path d="M370.469 581.906H354.438V597.938H370.469V581.906Z" fill="#254EFB"/>
<path d="M402.531 581.906H370.469V597.938H402.531V581.906Z" fill="#F3322C"/>
<path d="M434.594 581.906H402.531V597.938H434.594V581.906Z" fill="#4BEA69"/>
<path d="M466.656 581.906H434.594V597.938H466.656V581.906Z" fill="#254EFB"/>
<path d="M338.406 597.938H306.344V613.969H338.406V597.938Z" fill="#F3322C"/>
<path d="M370.469 597.938H354.438V613.969H370.469V597.938Z" fill="#4BEA69"/>
<path d="M402.531 597.938H370.469V613.969H402.531V597.938Z" fill="#254EFB"/>
<path d="M434.594 597.938H402.531V613.969H434.594V597.938Z" fill="#F3322C"/>
<path d="M466.656 597.938H434.594V613.969H466.656V597.938Z" fill="#4BEA69"/>
<path d="M338.406 613.969H306.344V630H338.406V613.969Z" fill="#F3322C"/>
<path d="M370.469 613.969H354.438V630H370.469V613.969Z" fill="#4BEA69"/>
<path d="M402.531 613.969H370.469V630H402.531V613.969Z" fill="#254EFB"/>
<path d="M434.594 613.969H402.531V630H434.594V613.969Z" fill="#F3322C"/>
<path d="M466.656 613.969H434.594V630H466.656V613.969Z" fill="#4BEA69"/>
<path d="M370.469 261.281H242.219V277.312H370.469V261.281Z" fill="#395ED1"/>
<path d="M322.375 277.312H226.188V293.344H322.375V277.312Z" fill="#395ED1"/>
<path d="M338.406 277.312H322.375V293.344H338.406V277.312Z" fill="#FFC925"/>
<path d="M402.531 277.312H338.406V293.344H402.531V277.312Z" fill="#395ED1"/>
<path d="M242.219 293.344H226.188V309.375H242.219V293.344Z" fill="#395ED1"/>
<path d="M306.344 293.344H274.281V309.375H306.344V293.344Z" fill="#395ED1"/>
<path d="M354.438 293.344H306.344V309.375H354.438V293.344Z" fill="#FFC925"/>
<path d="M418.562 293.344H354.438V309.375H418.562V293.344Z" fill="#395ED1"/>
<path d="M242.219 309.375H226.188V325.406H242.219V309.375Z" fill="#FFC925"/>
<path d="M322.375 309.375H290.312V325.406H322.375V309.375Z" fill="#395ED1"/>
<path d="M338.406 309.375H322.375V325.406H338.406V309.375Z" fill="#FFC925"/>
<path d="M434.594 309.375H338.406V325.406H434.594V309.375Z" fill="#395ED1"/>
<path d="M274.281 325.406H194.125V341.438H274.281V325.406Z" fill="#FFC925"/>
<path d="M370.469 325.406H306.344V341.438H370.469V325.406Z" fill="#395ED1"/>
<path d="M386.5 325.406H370.469V341.438H386.5V325.406Z" fill="#FFC925"/>
<path d="M450.625 325.406H386.5V341.438H450.625V325.406Z" fill="#395ED1"/>
<path d="M258.25 341.438H210.156V357.469H258.25V341.438Z" fill="#FFC925"/>
<path d="M354.438 341.438H322.375V357.469H354.438V341.438Z" fill="#395ED1"/>
<path d="M370.469 341.438H354.438V357.469H370.469V341.438Z" fill="#FFC925"/>
<path d="M386.5 341.438H370.469V357.469H386.5V341.438Z" fill="#395ED1"/>
<path d="M402.531 341.438H386.5V357.469H402.531V341.438Z" fill="#FFC925"/>
<path d="M418.562 341.438H402.531V357.469H418.562V341.438Z" fill="#395ED1"/>
<path d="M434.594 341.438H418.562V357.469H434.594V341.438Z" fill="#FFC925"/>
<path d="M466.656 341.438H434.594V357.469H466.656V341.438Z" fill="#395ED1"/>
<path d="M226.188 357.469H210.156V373.5H226.188V357.469Z" fill="#FFC925"/>
<path d="M258.25 357.469H242.219V373.5H258.25V357.469Z" fill="#FFC925"/>
<path d="M370.469 357.469H338.406V373.5H370.469V357.469Z" fill="#395ED1"/>
<path d="M386.5 357.469H370.469V373.5H386.5V357.469Z" fill="#FFC925"/>
<path d="M482.688 357.469H386.5V373.5H482.688V357.469Z" fill="#395ED1"/>
<path d="M498.719 373.5H338.406V389.531H498.719V373.5Z" fill="#395ED1"/>
<path d="M450.625 389.531H322.375V405.562H450.625V389.531Z" fill="#395ED1"/>
<path d="M466.656 389.531H450.625V405.562H466.656V389.531Z" fill="#FFC925"/>
<path d="M498.719 389.531H466.656V405.562H498.719V389.531Z" fill="#395ED1"/>
<path d="M338.406 405.562H322.375V421.594H338.406V405.562Z" fill="#395ED1"/>
<path d="M354.438 405.562H338.406V421.594H354.438V405.562Z" fill="#FFC925"/>
<path d="M434.594 405.562H354.438V421.594H434.594V405.562Z" fill="#395ED1"/>
<path d="M482.688 405.562H434.594V421.594H482.688V405.562Z" fill="#FFC925"/>
<path d="M514.75 405.562H482.688V421.594H514.75V405.562Z" fill="#395ED1"/>
<path d="M450.625 421.594H322.375V437.625H450.625V421.594Z" fill="#395ED1"/>
<path d="M466.656 421.594H450.625V437.625H466.656V421.594Z" fill="#FFC925"/>
<path d="M514.75 421.594H466.656V437.625H514.75V421.594Z" fill="#395ED1"/>
<path d="M386.5 437.625H322.375V453.656H386.5V437.625Z" fill="#395ED1"/>
<path d="M402.531 437.625H386.5V453.656H402.531V437.625Z" fill="#FFC925"/>
<path d="M514.75 437.625H402.531V453.656H514.75V437.625Z" fill="#395ED1"/>
<path d="M514.75 453.656H306.344V469.688H514.75V453.656Z" fill="#395ED1"/>
<path d="M514.75 469.688H290.312V485.719H514.75V469.688Z" fill="#395ED1"/>
<path d="M386.5 485.719H274.281V501.75H386.5V485.719Z" fill="#395ED1"/>
<path d="M434.594 485.719H386.5V501.75H434.594V485.719Z" fill="#1F1D29"/>
<path d="M498.719 485.719H434.594V501.75H498.719V485.719Z" fill="#395ED1"/>
<path d="M530.781 501.75H242.219V517.781H530.781V501.75Z" fill="#00499C"/>
<path d="M546.812 517.781H226.188V533.812H546.812V517.781Z" fill="#00499C"/>
<path d="M386.5 341.438H258.25V357.469H386.5V341.438Z" fill="#2B83F6"/>
<path d="M530.781 341.438H402.531V357.469H530.781V341.438Z" fill="#2B83F6"/>
<path d="M274.281 357.469H258.25V373.5H274.281V357.469Z" fill="#2B83F6"/>
<path d="M306.344 357.469H274.281V373.5H306.344V357.469Z" fill="white"/>
<path d="M370.469 357.469H306.344V373.5H370.469V357.469Z" fill="black"/>
<path d="M386.5 357.469H370.469V373.5H386.5V357.469Z" fill="#2B83F6"/>
<path d="M418.562 357.469H402.531V373.5H418.562V357.469Z" fill="#2B83F6"/>
<path d="M450.625 357.469H418.562V373.5H450.625V357.469Z" fill="white"/>
<path d="M514.75 357.469H450.625V373.5H514.75V357.469Z" fill="black"/>
<path d="M530.781 357.469H514.75V373.5H530.781V357.469Z" fill="#2B83F6"/>
<path d="M274.281 373.5H258.25V389.531H274.281V373.5Z" fill="#2B83F6"/>
<path d="M306.344 373.5H274.281V389.531H306.344V373.5Z" fill="white"/>
<path d="M370.469 373.5H306.344V389.531H370.469V373.5Z" fill="black"/>
<path d="M386.5 373.5H370.469V389.531H386.5V373.5Z" fill="#2B83F6"/>
<path d="M418.562 373.5H402.531V389.531H418.562V373.5Z" fill="#2B83F6"/>
<path d="M450.625 373.5H418.562V389.531H450.625V373.5Z" fill="white"/>
<path d="M514.75 373.5H450.625V389.531H514.75V373.5Z" fill="black"/>
<path d="M530.781 373.5H514.75V389.531H530.781V373.5Z" fill="#2B83F6"/>
<path d="M274.281 389.531H210.156V405.562H274.281V389.531Z" fill="#2B83F6"/>
<path d="M306.344 389.531H274.281V405.562H306.344V389.531Z" fill="white"/>
<path d="M370.469 389.531H306.344V405.562H370.469V389.531Z" fill="black"/>
<path d="M418.562 389.531H370.469V405.562H418.562V389.531Z" fill="#2B83F6"/>
<path d="M450.625 389.531H418.562V405.562H450.625V389.531Z" fill="white"/>
<path d="M514.75 389.531H450.625V405.562H514.75V389.531Z" fill="black"/>
<path d="M530.781 389.531H514.75V405.562H530.781V389.531Z" fill="#2B83F6"/>
<path d="M226.188 405.562H210.156V421.594H226.188V405.562Z" fill="#2B83F6"/>
<path d="M274.281 405.562H258.25V421.594H274.281V405.562Z" fill="#2B83F6"/>
<path d="M306.344 405.562H274.281V421.594H306.344V405.562Z" fill="white"/>
<path d="M370.469 405.562H306.344V421.594H370.469V405.562Z" fill="black"/>
<path d="M386.5 405.562H370.469V421.594H386.5V405.562Z" fill="#2B83F6"/>
<path d="M418.562 405.562H402.531V421.594H418.562V405.562Z" fill="#2B83F6"/>
<path d="M450.625 405.562H418.562V421.594H450.625V405.562Z" fill="white"/>
<path d="M514.75 405.562H450.625V421.594H514.75V405.562Z" fill="black"/>
<path d="M530.781 405.562H514.75V421.594H530.781V405.562Z" fill="#2B83F6"/>
<path d="M226.188 421.594H210.156V437.625H226.188V421.594Z" fill="#2B83F6"/>
<path d="M274.281 421.594H258.25V437.625H274.281V421.594Z" fill="#2B83F6"/>
<path d="M306.344 421.594H274.281V437.625H306.344V421.594Z" fill="white"/>
<path d="M370.469 421.594H306.344V437.625H370.469V421.594Z" fill="black"/>
<path d="M386.5 421.594H370.469V437.625H386.5V421.594Z" fill="#2B83F6"/>
<path d="M418.562 421.594H402.531V437.625H418.562V421.594Z" fill="#2B83F6"/>
<path d="M450.625 421.594H418.562V437.625H450.625V421.594Z" fill="white"/>
<path d="M514.75 421.594H450.625V437.625H514.75V421.594Z" fill="black"/>
<path d="M530.781 421.594H514.75V437.625H530.781V421.594Z" fill="#2B83F6"/>
<path d="M274.281 437.625H258.25V453.656H274.281V437.625Z" fill="#2B83F6"/>
<path d="M306.344 437.625H274.281V453.656H306.344V437.625Z" fill="white"/>
<path d="M370.469 437.625H306.344V453.656H370.469V437.625Z" fill="black"/>
<path d="M386.5 437.625H370.469V453.656H386.5V437.625Z" fill="#2B83F6"/>
<path d="M418.562 437.625H402.531V453.656H418.562V437.625Z" fill="#2B83F6"/>
<path d="M450.625 437.625H418.562V453.656H450.625V437.625Z" fill="white"/>
<path d="M514.75 437.625H450.625V453.656H514.75V437.625Z" fill="black"/>
<path d="M530.781 437.625H514.75V453.656H530.781V437.625Z" fill="#2B83F6"/>
<path d="M386.5 453.656H258.25V469.688H386.5V453.656Z" fill="#2B83F6"/>
<path d="M530.781 453.656H402.531V469.688H530.781V453.656Z" fill="#2B83F6"/>
</g>
<path d="M772.562 314.344H624.812V332.812H772.562V314.344Z" fill="white"/>
<path d="M994.188 314.344H846.438V332.812H994.188V314.344Z" fill="white"/>
<path d="M624.812 332.812H606.344V351.281H624.812V332.812Z" fill="#254EFB"/>
<path d="M643.281 332.812H624.812V351.281H643.281V332.812Z" fill="white"/>
<path d="M698.688 332.812H643.281V351.281H698.688V332.812Z" fill="#ABAAA8"/>
<path d="M717.156 332.812H698.688V351.281H717.156V332.812Z" fill="white"/>
<path d="M772.562 332.812H717.156V351.281H772.562V332.812Z" fill="#ABAAA8"/>
<path d="M791.031 332.812H772.562V351.281H791.031V332.812Z" fill="white"/>
<path d="M846.438 332.812H827.969V351.281H846.438V332.812Z" fill="white"/>
<path d="M901.844 332.812H846.438V351.281H901.844V332.812Z" fill="#ABAAA8"/>
<path d="M920.312 332.812H901.844V351.281H920.312V332.812Z" fill="white"/>
<path d="M975.719 332.812H920.312V351.281H975.719V332.812Z" fill="#ABAAA8"/>
<path d="M994.188 332.812H975.719V351.281H994.188V332.812Z" fill="white"/>
<path d="M1012.66 332.812H994.188V351.281H1012.66V332.812Z" fill="#254EFB"/>
<path d="M624.812 351.281H606.344V369.75H624.812V351.281Z" fill="#254EFB"/>
<path d="M994.188 351.281H624.812V369.75H994.188V351.281Z" fill="white"/>
<path d="M1012.66 351.281H994.188V369.75H1012.66V351.281Z" fill="#254EFB"/>
<path d="M624.812 369.75H606.344V388.219H624.812V369.75Z" fill="#254EFB"/>
<path d="M643.281 369.75H624.812V388.219H643.281V369.75Z" fill="white"/>
<path d="M698.688 369.75H643.281V388.219H698.688V369.75Z" fill="#ABAAA8"/>
<path d="M717.156 369.75H698.688V388.219H717.156V369.75Z" fill="white"/>
<path d="M772.562 369.75H717.156V388.219H772.562V369.75Z" fill="#ABAAA8"/>
<path d="M846.438 369.75H772.562V388.219H846.438V369.75Z" fill="white"/>
<path d="M901.844 369.75H846.438V388.219H901.844V369.75Z" fill="#ABAAA8"/>
<path d="M920.312 369.75H901.844V388.219H920.312V369.75Z" fill="white"/>
<path d="M975.719 369.75H920.312V388.219H975.719V369.75Z" fill="#ABAAA8"/>
<path d="M994.188 369.75H975.719V388.219H994.188V369.75Z" fill="white"/>
<path d="M1012.66 369.75H994.188V388.219H1012.66V369.75Z" fill="#254EFB"/>
<path d="M624.812 388.219H606.344V406.688H624.812V388.219Z" fill="#254EFB"/>
<path d="M994.188 388.219H624.812V406.688H994.188V388.219Z" fill="white"/>
<path d="M1012.66 388.219H994.188V406.688H1012.66V388.219Z" fill="#254EFB"/>
<path d="M624.812 406.688H606.344V425.156H624.812V406.688Z" fill="#254EFB"/>
<path d="M643.281 406.688H624.812V425.156H643.281V406.688Z" fill="white"/>
<path d="M698.688 406.688H643.281V425.156H698.688V406.688Z" fill="#ABAAA8"/>
<path d="M717.156 406.688H698.688V425.156H717.156V406.688Z" fill="white"/>
<path d="M772.562 406.688H717.156V425.156H772.562V406.688Z" fill="#ABAAA8"/>
<path d="M846.438 406.688H772.562V425.156H846.438V406.688Z" fill="white"/>
<path d="M901.844 406.688H846.438V425.156H901.844V406.688Z" fill="#ABAAA8"/>
<path d="M920.312 406.688H901.844V425.156H920.312V406.688Z" fill="white"/>
<path d="M975.719 406.688H920.312V425.156H975.719V406.688Z" fill="#ABAAA8"/>
<path d="M994.188 406.688H975.719V425.156H994.188V406.688Z" fill="white"/>
<path d="M1012.66 406.688H994.188V425.156H1012.66V406.688Z" fill="#254EFB"/>
<path d="M624.812 425.156H606.344V443.625H624.812V425.156Z" fill="#254EFB"/>
<path d="M994.188 425.156H624.812V443.625H994.188V425.156Z" fill="white"/>
<path d="M1012.66 425.156H994.188V443.625H1012.66V425.156Z" fill="#254EFB"/>
<path d="M624.812 443.625H606.344V462.094H624.812V443.625Z" fill="#254EFB"/>
<path d="M643.281 443.625H624.812V462.094H643.281V443.625Z" fill="white"/>
<path d="M698.688 443.625H643.281V462.094H698.688V443.625Z" fill="#ABAAA8"/>
<path d="M938.781 443.625H698.688V462.094H938.781V443.625Z" fill="white"/>
<path d="M975.719 443.625H938.781V462.094H975.719V443.625Z" fill="#ABAAA8"/>
<path d="M994.188 443.625H975.719V462.094H994.188V443.625Z" fill="white"/>
<path d="M1012.66 443.625H994.188V462.094H1012.66V443.625Z" fill="#254EFB"/>
<path d="M624.812 462.094H606.344V480.562H624.812V462.094Z" fill="#254EFB"/>
<path d="M994.188 462.094H624.812V480.562H994.188V462.094Z" fill="white"/>
<path d="M1012.66 462.094H994.188V480.562H1012.66V462.094Z" fill="#254EFB"/>
<path d="M624.812 480.562H606.344V499.031H624.812V480.562Z" fill="#254EFB"/>
<path d="M643.281 480.562H624.812V499.031H643.281V480.562Z" fill="white"/>
<path d="M698.688 480.562H643.281V499.031H698.688V480.562Z" fill="#ABAAA8"/>
<path d="M938.781 480.562H698.688V499.031H938.781V480.562Z" fill="white"/>
<path d="M975.719 480.562H938.781V499.031H975.719V480.562Z" fill="#ABAAA8"/>
<path d="M994.188 480.562H975.719V499.031H994.188V480.562Z" fill="white"/>
<path d="M1012.66 480.562H994.188V499.031H1012.66V480.562Z" fill="#254EFB"/>
<path d="M624.812 499.031H606.344V517.5H624.812V499.031Z" fill="#254EFB"/>
<path d="M994.188 499.031H624.812V517.5H994.188V499.031Z" fill="white"/>
<path d="M1012.66 499.031H994.188V517.5H1012.66V499.031Z" fill="#254EFB"/>
<path d="M624.812 517.5H606.344V535.969H624.812V517.5Z" fill="#254EFB"/>
<path d="M643.281 517.5H624.812V535.969H643.281V517.5Z" fill="white"/>
<path d="M698.688 517.5H643.281V535.969H698.688V517.5Z" fill="#ABAAA8"/>
<path d="M938.781 517.5H698.688V535.969H938.781V517.5Z" fill="white"/>
<path d="M975.719 517.5H938.781V535.969H975.719V517.5Z" fill="#ABAAA8"/>
<path d="M994.188 517.5H975.719V535.969H994.188V517.5Z" fill="white"/>
<path d="M1012.66 517.5H994.188V535.969H1012.66V517.5Z" fill="#254EFB"/>
<path d="M624.812 535.969H606.344V554.438H624.812V535.969Z" fill="#254EFB"/>
<path d="M754.094 535.969H624.812V554.438H754.094V535.969Z" fill="white"/>
<path d="M864.906 535.969H754.094V554.438H864.906V535.969Z" fill="#FF1A0B"/>
<path d="M994.188 535.969H864.906V554.438H994.188V535.969Z" fill="white"/>
<path d="M1012.66 535.969H994.188V554.438H1012.66V535.969Z" fill="#254EFB"/>
<path d="M624.812 554.438H606.344V572.906H624.812V554.438Z" fill="#254EFB"/>
<path d="M994.188 554.438H624.812V572.906H994.188V554.438Z" fill="white"/>
<path d="M1012.66 554.438H994.188V572.906H1012.66V554.438Z" fill="#254EFB"/>
<path d="M624.812 572.906H606.344V591.375H624.812V572.906Z" fill="#254EFB"/>
<path d="M994.188 572.906H624.812V591.375H994.188V572.906Z" fill="white"/>
<path d="M1012.66 572.906H994.188V591.375H1012.66V572.906Z" fill="#254EFB"/>
<path d="M791.031 591.375H606.344V609.844H791.031V591.375Z" fill="#254EFB"/>
<path d="M827.969 591.375H791.031V609.844H827.969V591.375Z" fill="white"/>
<path d="M1012.66 591.375H827.969V609.844H1012.66V591.375Z" fill="#254EFB"/>
<path d="M846.438 609.844H772.562V628.312H846.438V609.844Z" fill="#254EFB"/>
<defs>
<clipPath id="clip0_10_3131">
<rect width="513" height="513" fill="white" transform="translate(130 117)"/>
</clipPath>
</defs>
</svg>
