<svg width="1200" height="630" viewBox="0 0 1200 630" fill="none" xmlns="http://www.w3.org/2000/svg">
<rect width="1200" height="630" fill="#FF638D"/>
<path d="M344.33 115.89C344.33 115.89 344.417 115.847 344.59 115.76C345.717 115.067 347.537 114.677 350.05 114.59C352.65 114.417 355.38 114.373 358.24 114.46C361.1 114.547 363.743 114.72 366.17 114.98C368.683 115.153 370.373 115.24 371.24 115.24H371.5L371.63 115.37C372.15 119.963 372.497 124.86 372.67 130.06C372.843 135.173 372.497 140.07 371.63 144.75C371.197 149.17 369.853 152.55 367.6 154.89C365.347 157.23 362.573 159.007 359.28 160.22C357.113 160.827 354.86 161.347 352.52 161.78C350.18 162.3 347.797 162.647 345.37 162.82C342.943 163.08 340.56 163.08 338.22 162.82C335.967 162.56 333.8 161.997 331.72 161.13C328.253 159.657 325.61 157.663 323.79 155.15C321.97 152.637 320.54 149.517 319.5 145.79C319.24 144.837 318.937 143.537 318.59 141.89C318.33 140.157 318.113 138.423 317.94 136.69C317.68 133.917 317.463 131.403 317.29 129.15C317.117 126.897 316.943 124.687 316.77 122.52C316.683 120.267 316.597 117.927 316.51 115.5C316.51 112.987 316.553 110.127 316.64 106.92C316.727 104.147 316.857 101.33 317.03 98.47C317.203 95.5233 317.507 92.6633 317.94 89.89C318.373 87.03 319.11 84.2567 320.15 81.57C321.277 78.8833 323.097 76.6733 325.61 74.94C327.343 73.4667 329.293 72.3833 331.46 71.69C333.627 70.9967 335.88 70.4767 338.22 70.13C342.987 69.5233 347.537 69.6967 351.87 70.65C356.203 71.5167 359.93 73.12 363.05 75.46C366.17 77.8 368.51 80.92 370.07 84.82C371.63 88.6333 372.107 93.1833 371.5 98.47L371.37 99.25C371.197 99.51 370.807 99.64 370.2 99.64C369.593 99.64 368.597 99.6833 367.21 99.77C365.91 99.77 364.783 99.8133 363.83 99.9C362.963 99.9 362.053 99.9 361.1 99.9C360.233 99.9 359.323 99.8567 358.37 99.77C357.417 99.6833 356.29 99.5533 354.99 99.38C354.73 98.5133 354.34 97.4733 353.82 96.26C353.387 94.96 352.78 93.79 352 92.75C351.307 91.6233 350.483 90.67 349.53 89.89C348.577 89.0233 347.45 88.59 346.15 88.59C344.677 88.5033 343.247 88.46 341.86 88.46C340.473 88.46 339.26 88.98 338.22 90.02C338.047 90.1933 337.787 90.67 337.44 91.45C337.18 92.1433 336.963 92.8367 336.79 93.53C336.183 95.61 335.663 98.1233 335.23 101.07C334.883 104.017 334.623 107.18 334.45 110.56C334.277 113.853 334.233 117.277 334.32 120.83C334.407 124.383 334.58 127.763 334.84 130.97C335.013 132.877 335.36 134.957 335.88 137.21C336.4 139.463 337.483 141.24 339.13 142.54C339.91 143.06 340.907 143.45 342.12 143.71C343.42 143.883 344.763 143.84 346.15 143.58C347.623 143.32 348.967 142.973 350.18 142.54C351.133 142.107 351.957 141.543 352.65 140.85C353.343 140.07 353.863 139.073 354.21 137.86C354.297 137.513 354.383 136.95 354.47 136.17C354.643 135.303 354.73 134.437 354.73 133.57C354.817 132.703 354.817 131.923 354.73 131.23C354.73 130.537 354.6 130.147 354.34 130.06C353.82 129.973 353.083 129.973 352.13 130.06C351.263 130.06 350.31 130.103 349.27 130.19C348.317 130.19 347.407 130.19 346.54 130.19C345.76 130.103 345.153 129.973 344.72 129.8C344.547 128.413 344.417 127.2 344.33 126.16C344.33 125.12 344.33 124.123 344.33 123.17C344.417 122.13 344.46 121.09 344.46 120.05C344.46 119.01 344.373 117.71 344.2 116.15V116.02C344.2 115.933 344.243 115.89 344.33 115.89ZM380.268 105.62C380.788 103.973 381.178 102.673 381.438 101.72C382.045 100.42 382.998 99.2933 384.298 98.34C385.685 97.3867 387.245 96.6067 388.978 96C390.798 95.3067 392.705 94.83 394.698 94.57C396.778 94.31 398.858 94.18 400.938 94.18C402.671 94.3533 404.318 94.3967 405.878 94.31C407.525 94.1367 409.258 94.1367 411.078 94.31C413.851 94.4833 416.495 95.0467 419.008 96C421.521 96.8667 423.688 98.1667 425.508 99.9C426.721 100.68 427.675 101.937 428.368 103.67C429.061 105.403 429.581 107.44 429.928 109.78C430.275 112.033 430.491 114.547 430.578 117.32C430.665 120.007 430.751 122.78 430.838 125.64C430.751 128.153 430.621 131.013 430.448 134.22C430.361 137.427 430.145 140.503 429.798 143.45C429.538 146.397 429.148 149.04 428.628 151.38C428.195 153.72 427.545 155.323 426.678 156.19C425.205 158.27 423.255 159.743 420.828 160.61C418.488 161.477 415.931 161.997 413.158 162.17C410.385 162.43 407.525 162.43 404.578 162.17C401.631 161.997 398.945 161.91 396.518 161.91C392.098 161.13 388.371 159.223 385.338 156.19C382.998 154.11 381.395 151.51 380.528 148.39C379.661 145.27 379.141 142.02 378.968 138.64C378.795 135.173 378.751 131.707 378.838 128.24C379.011 124.773 378.968 121.61 378.708 118.75C378.708 117.19 378.751 115.673 378.838 114.2C378.925 112.64 379.098 111.037 379.358 109.39C379.445 108.437 379.748 107.18 380.268 105.62ZM402.108 114.2C400.288 114.72 398.815 115.673 397.688 117.06C397.168 117.407 396.778 118.273 396.518 119.66C396.171 122.433 395.998 125.207 395.998 127.98C395.998 130.667 395.911 133.527 395.738 136.56C395.651 138.553 396.171 140.113 397.298 141.24C398.425 142.28 399.768 143.017 401.328 143.45C402.975 143.797 404.665 143.883 406.398 143.71C408.131 143.45 409.561 143.017 410.688 142.41C412.161 141.717 413.158 140.287 413.678 138.12C414.025 135.347 414.285 132.573 414.458 129.8C414.718 126.94 414.588 124.253 414.068 121.74C413.635 118.707 412.378 116.497 410.298 115.11C408.218 113.723 405.488 113.42 402.108 114.2ZM442.869 96.26C445.989 96 448.936 96.0433 451.709 96.39C452.316 99.51 452.922 103.107 453.529 107.18C454.136 111.167 454.786 115.24 455.479 119.4C456.172 123.56 456.909 127.547 457.689 131.36C458.469 135.087 459.336 138.25 460.289 140.85C461.242 138.25 462.109 135 462.889 131.1C463.669 127.113 464.406 122.997 465.099 118.75C465.879 114.503 466.702 110.387 467.569 106.4C468.436 102.413 469.389 99.12 470.429 96.52C471.902 96.52 473.289 96.4767 474.589 96.39C475.889 96.3033 477.232 96.2167 478.619 96.13C480.006 96.0433 481.436 96 482.909 96C484.382 96 486.029 96.0433 487.849 96.13C486.029 101.07 484.426 106.227 483.039 111.6C481.739 116.887 480.482 122.303 479.269 127.85C478.056 133.397 476.842 138.987 475.629 144.62C474.416 150.167 473.072 155.67 471.599 161.13C469.866 161.39 467.916 161.52 465.749 161.52C463.669 161.607 461.502 161.607 459.249 161.52C457.082 161.52 454.916 161.477 452.749 161.39C450.669 161.39 448.806 161.39 447.159 161.39C445.426 150.557 443.432 139.507 441.179 128.24C438.926 116.973 436.412 106.227 433.639 96C436.759 96.3467 439.836 96.4333 442.869 96.26ZM510.731 128.76C508.824 128.673 507.438 128.543 506.571 128.37V130.71C506.658 133.31 506.744 135.433 506.831 137.08C507.004 138.727 507.568 140.33 508.521 141.89C509.561 143.883 511.034 145.357 512.941 146.31C514.848 147.263 516.711 147.567 518.531 147.22C520.351 146.873 521.868 145.833 523.081 144.1C524.381 142.28 524.944 139.593 524.771 136.04C525.638 136.127 526.808 136.17 528.281 136.17C529.754 136.083 531.271 135.997 532.831 135.91C534.478 135.823 536.038 135.823 537.511 135.91C538.984 135.91 540.198 136.04 541.151 136.3C540.978 138.553 540.804 140.763 540.631 142.93C540.458 145.097 540.241 147.133 539.981 149.04C539.721 150.86 539.374 152.463 538.941 153.85C538.594 155.15 538.118 156.06 537.511 156.58C536.038 158.66 534.131 160.133 531.791 161C529.451 161.867 526.894 162.387 524.121 162.56C521.348 162.733 518.488 162.733 515.541 162.56C512.681 162.387 510.038 162.3 507.611 162.3C505.184 161.953 502.931 161.173 500.851 159.96C498.511 158.313 496.561 156.19 495.001 153.59C493.441 150.903 492.184 148 491.231 144.88C490.278 141.673 489.628 138.293 489.281 134.74C488.934 131.187 488.848 127.633 489.021 124.08C489.281 120.873 489.541 117.797 489.801 114.85C490.148 111.817 490.841 108.87 491.881 106.01C493.008 103.497 494.741 101.373 497.081 99.64C499.421 97.82 502.064 96.4767 505.011 95.61C507.958 94.6567 511.078 94.1367 514.371 94.05C517.664 93.9633 520.871 94.31 523.991 95.09C527.978 95.7833 531.184 97.17 533.611 99.25C536.038 101.33 537.858 103.843 539.071 106.79C540.371 109.737 541.151 112.987 541.411 116.54C541.671 120.093 541.671 123.69 541.411 127.33C540.804 127.503 539.634 127.677 537.901 127.85C536.254 128.023 534.261 128.197 531.921 128.37C529.668 128.543 527.241 128.673 524.641 128.76C522.041 128.847 519.528 128.89 517.101 128.89C514.761 128.89 512.638 128.847 510.731 128.76ZM525.941 111.73C525.074 110.17 523.861 109 522.301 108.22C521.608 107.787 520.914 107.483 520.221 107.31C519.528 107.05 518.704 106.92 517.751 106.92C515.671 106.92 513.981 107.137 512.681 107.57C511.381 108.003 510.341 108.61 509.561 109.39C508.781 110.17 508.174 111.08 507.741 112.12C507.394 113.16 507.134 114.243 506.961 115.37C506.788 116.323 506.701 117.017 506.701 117.45C506.788 117.797 507.221 118.057 508.001 118.23C508.781 118.317 509.994 118.36 511.641 118.36C513.374 118.273 515.888 118.23 519.181 118.23C521.434 118.23 523.124 118.273 524.251 118.36C525.378 118.447 526.158 118.49 526.591 118.49C527.111 118.403 527.371 118.273 527.371 118.1C527.371 117.84 527.371 117.363 527.371 116.67C527.371 114.937 526.894 113.29 525.941 111.73ZM566.415 99.25C566.501 99.51 566.545 99.9433 566.545 100.55C566.891 100.377 567.671 100.03 568.885 99.51C570.185 98.99 571.441 98.5133 572.655 98.08C574.301 97.56 576.165 97.17 578.245 96.91C580.325 96.5633 582.275 96.3467 584.095 96.26C585.915 96.1733 587.431 96.1733 588.645 96.26C589.945 96.26 590.595 96.3033 590.595 96.39C590.595 99.3367 590.551 101.937 590.465 104.19C590.465 106.443 590.465 108.48 590.465 110.3C590.465 112.033 590.465 113.637 590.465 115.11C590.465 116.583 590.508 117.97 590.595 119.27L589.425 118.88C588.991 118.707 588.515 118.577 587.995 118.49C587.561 118.317 587.128 118.143 586.695 117.97C585.655 117.71 584.571 117.493 583.445 117.32C582.405 117.147 581.841 117.06 581.755 117.06C579.415 116.8 577.248 116.67 575.255 116.67C573.348 116.67 571.658 116.973 570.185 117.58C568.798 118.187 567.715 119.14 566.935 120.44C566.155 121.74 565.808 123.603 565.895 126.03C565.981 129.063 566.068 131.923 566.155 134.61C566.241 137.297 566.285 140.027 566.285 142.8C566.285 145.487 566.285 148.26 566.285 151.12C566.371 153.893 566.415 156.883 566.415 160.09V160.61C564.941 161.043 563.598 161.303 562.385 161.39C561.171 161.477 559.915 161.477 558.615 161.39C557.315 161.39 555.885 161.347 554.325 161.26C552.851 161.173 551.075 161.217 548.995 161.39C548.995 150.73 548.865 140.07 548.605 129.41C548.431 118.75 548.518 107.7 548.865 96.26C549.905 96.3467 550.771 96.4333 551.465 96.52C552.158 96.52 552.808 96.52 553.415 96.52C554.021 96.52 554.671 96.52 555.365 96.52C556.058 96.4333 556.925 96.3467 557.965 96.26C558.311 96.26 558.918 96.2167 559.785 96.13C560.738 96.0433 561.691 95.9567 562.645 95.87C563.685 95.7833 564.551 95.7833 565.245 95.87C566.025 95.87 566.415 95.9567 566.415 96.13C566.415 96.8233 566.415 97.3433 566.415 97.69C566.415 98.0367 566.415 98.34 566.415 98.6C566.415 98.7733 566.415 98.99 566.415 99.25ZM613.756 99.77C613.756 100.723 613.799 101.807 613.886 103.02C614.319 102.76 614.839 102.457 615.446 102.11C616.139 101.763 616.703 101.417 617.136 101.07C618.956 99.77 620.993 98.73 623.246 97.95C625.499 97.17 627.796 96.7367 630.136 96.65C632.563 96.5633 634.903 96.8233 637.156 97.43C639.409 98.0367 641.446 99.12 643.266 100.68C644.133 101.46 644.783 103.107 645.216 105.62C645.736 108.047 646.039 110.993 646.126 114.46C646.299 117.927 646.343 121.74 646.256 125.9C646.256 129.973 646.213 134.133 646.126 138.38C646.039 142.54 645.953 146.57 645.866 150.47C645.779 154.37 645.823 157.793 645.996 160.74C642.963 161.173 640.233 161.347 637.806 161.26C635.466 161.26 632.779 161.26 629.746 161.26C629.573 159.267 629.486 157.013 629.486 154.5C629.486 151.987 629.486 149.387 629.486 146.7C629.573 144.013 629.573 141.327 629.486 138.64C629.486 135.953 629.399 133.44 629.226 131.1C629.139 130.06 629.053 128.933 628.966 127.72C628.879 126.42 628.706 125.163 628.446 123.95C628.273 122.737 627.969 121.653 627.536 120.7C627.189 119.747 626.669 119.01 625.976 118.49C625.889 118.403 625.803 118.36 625.716 118.36C625.629 118.36 625.543 118.317 625.456 118.23C624.763 117.883 623.723 117.623 622.336 117.45C621.036 117.19 619.736 117.277 618.436 117.71C617.136 118.057 615.966 118.837 614.926 120.05C613.886 121.177 613.279 122.91 613.106 125.25C612.933 128.283 612.889 131.273 612.976 134.22C613.063 137.08 613.149 139.983 613.236 142.93C613.409 145.79 613.496 148.65 613.496 151.51C613.496 154.37 613.323 157.23 612.976 160.09V160.61C611.503 161.043 610.203 161.303 609.076 161.39C608.036 161.477 606.953 161.477 605.826 161.39C604.699 161.39 603.443 161.347 602.056 161.26C600.669 161.173 598.936 161.217 596.856 161.39C596.856 150.73 596.726 140.07 596.466 129.41C596.293 118.75 596.379 107.7 596.726 96.26C597.766 96.3467 598.633 96.4333 599.326 96.52C600.019 96.52 600.669 96.52 601.276 96.52C601.883 96.52 602.533 96.52 603.226 96.52C603.919 96.4333 604.786 96.3467 605.826 96.26C606.173 96.26 606.779 96.2167 607.646 96.13C608.513 95.9567 609.379 95.8267 610.246 95.74C611.113 95.6533 611.893 95.6533 612.586 95.74C613.279 95.74 613.626 95.87 613.626 96.13C613.799 97.6033 613.843 98.8167 613.756 99.77ZM700.101 95.87C702.268 95.9567 704.738 96.0867 707.511 96.26C707.598 96.78 707.641 97.3 707.641 97.82C707.728 98.34 707.771 98.86 707.771 99.38V100.68C707.511 110.04 707.555 119.27 707.901 128.37C708.248 137.383 708.118 146.527 707.511 155.8C707.511 156.927 707.468 158.053 707.381 159.18C707.381 160.307 706.861 160.957 705.821 161.13H704.261C702.875 161.13 701.445 161.087 699.971 161C698.585 160.827 697.198 160.74 695.811 160.74C694.858 160.74 693.905 160.827 692.951 161C692.085 161.087 691.175 161.13 690.221 161.13C689.615 160.957 689.181 160.61 688.921 160.09C688.748 159.57 688.661 158.963 688.661 158.27C688.661 157.317 688.748 156.537 688.921 155.93C689.095 155.323 689.181 154.587 689.181 153.72C687.101 155.8 684.458 157.577 681.251 159.05C678.131 160.523 675.055 161.26 672.021 161.26C668.641 161.26 665.738 160.09 663.311 157.75C660.971 155.41 659.021 152.507 657.461 149.04C655.901 145.573 654.731 141.803 653.951 137.73C653.258 133.657 652.911 129.887 652.911 126.42C652.911 122.087 653.475 118.1 654.601 114.46C655.728 110.82 657.245 107.7 659.151 105.1C661.145 102.413 663.485 100.333 666.171 98.86C668.858 97.3 671.718 96.4767 674.751 96.39C676.311 96.39 677.741 96.4333 679.041 96.52C680.428 96.52 681.685 96.7367 682.811 97.17C683.938 97.5167 684.935 98.1233 685.801 98.99C686.668 99.77 687.405 100.897 688.011 102.37C687.925 100.983 687.968 99.8133 688.141 98.86C688.401 97.82 688.531 96.78 688.531 95.74C688.531 95.6533 688.791 95.61 689.311 95.61C689.918 95.5233 690.568 95.5233 691.261 95.61C691.955 95.61 692.648 95.61 693.341 95.61C694.035 95.61 694.511 95.61 694.771 95.61C696.245 95.6967 698.021 95.7833 700.101 95.87ZM673.321 116.41C671.328 118.057 670.115 119.963 669.681 122.13C669.335 123.257 669.118 124.427 669.031 125.64C668.945 126.767 668.901 127.893 668.901 129.02C668.901 132.92 669.898 136.257 671.891 139.03C673.971 141.717 676.831 143.06 680.471 143.06C682.638 143.06 684.241 142.713 685.281 142.02C686.408 141.24 687.188 140.2 687.621 138.9C688.141 137.513 688.401 135.867 688.401 133.96C688.488 131.967 688.531 129.757 688.531 127.33C688.531 124.297 688.488 121.913 688.401 120.18C688.401 118.36 688.185 116.973 687.751 116.02C687.405 115.067 686.755 114.46 685.801 114.2C684.935 113.94 683.591 113.81 681.771 113.81C678.218 113.81 675.401 114.677 673.321 116.41ZM734.108 99.77C734.108 100.723 734.151 101.807 734.238 103.02C734.671 102.76 735.191 102.457 735.798 102.11C736.491 101.763 737.054 101.417 737.488 101.07C739.308 99.77 741.344 98.73 743.598 97.95C745.851 97.17 748.148 96.7367 750.488 96.65C752.914 96.5633 755.254 96.8233 757.508 97.43C759.761 98.0367 761.798 99.12 763.618 100.68C764.484 101.46 765.134 103.107 765.568 105.62C766.088 108.047 766.391 110.993 766.478 114.46C766.651 117.927 766.694 121.74 766.608 125.9C766.608 129.973 766.564 134.133 766.478 138.38C766.391 142.54 766.304 146.57 766.218 150.47C766.131 154.37 766.174 157.793 766.348 160.74C763.314 161.173 760.584 161.347 758.158 161.26C755.818 161.26 753.131 161.26 750.098 161.26C749.924 159.267 749.838 157.013 749.838 154.5C749.838 151.987 749.838 149.387 749.838 146.7C749.924 144.013 749.924 141.327 749.838 138.64C749.838 135.953 749.751 133.44 749.578 131.1C749.491 130.06 749.404 128.933 749.318 127.72C749.231 126.42 749.058 125.163 748.798 123.95C748.624 122.737 748.321 121.653 747.888 120.7C747.541 119.747 747.021 119.01 746.328 118.49C746.241 118.403 746.154 118.36 746.068 118.36C745.981 118.36 745.894 118.317 745.808 118.23C745.114 117.883 744.074 117.623 742.688 117.45C741.388 117.19 740.088 117.277 738.788 117.71C737.488 118.057 736.318 118.837 735.278 120.05C734.238 121.177 733.631 122.91 733.458 125.25C733.284 128.283 733.241 131.273 733.328 134.22C733.414 137.08 733.501 139.983 733.588 142.93C733.761 145.79 733.848 148.65 733.848 151.51C733.848 154.37 733.674 157.23 733.328 160.09V160.61C731.854 161.043 730.554 161.303 729.428 161.39C728.388 161.477 727.304 161.477 726.178 161.39C725.051 161.39 723.794 161.347 722.408 161.26C721.021 161.173 719.288 161.217 717.208 161.39C717.208 150.73 717.078 140.07 716.818 129.41C716.644 118.75 716.731 107.7 717.078 96.26C718.118 96.3467 718.984 96.4333 719.678 96.52C720.371 96.52 721.021 96.52 721.628 96.52C722.234 96.52 722.884 96.52 723.578 96.52C724.271 96.4333 725.138 96.3467 726.178 96.26C726.524 96.26 727.131 96.2167 727.998 96.13C728.864 95.9567 729.731 95.8267 730.598 95.74C731.464 95.6533 732.244 95.6533 732.938 95.74C733.631 95.74 733.978 95.87 733.978 96.13C734.151 97.6033 734.194 98.8167 734.108 99.77ZM821.883 135.65C823.356 135.65 824.57 135.78 825.523 136.04C825.35 138.293 825.176 140.503 825.003 142.67C824.83 144.837 824.613 146.873 824.353 148.78C824.093 150.6 823.746 152.203 823.313 153.59C822.966 154.89 822.49 155.843 821.883 156.45C820.41 158.53 818.46 160.003 816.033 160.87C813.693 161.737 811.136 162.257 808.363 162.43C805.59 162.69 802.73 162.69 799.783 162.43C796.836 162.257 794.15 162.17 791.723 162.17C787.303 161.39 783.576 159.483 780.543 156.45C778.203 154.37 776.6 151.77 775.733 148.65C774.866 145.53 774.346 142.28 774.173 138.9C774 135.433 773.956 131.967 774.043 128.5C774.216 125.033 774.13 121.87 773.783 119.01C773.783 115.89 774.043 112.77 774.563 109.65C774.65 108.697 774.953 107.397 775.473 105.75C775.993 104.103 776.383 102.847 776.643 101.98C777.25 100.68 778.203 99.5533 779.503 98.6C780.89 97.6467 782.45 96.8667 784.183 96.26C786.003 95.5667 787.91 95.09 789.903 94.83C791.983 94.57 794.063 94.44 796.143 94.44C797.876 94.6133 799.523 94.6567 801.083 94.57C802.73 94.3967 804.463 94.3967 806.283 94.57C809.056 94.7433 811.7 95.2633 814.213 96.13C816.726 96.9967 818.893 98.2967 820.713 100.03C821.926 100.897 822.836 102.067 823.443 103.54C824.136 105.013 824.656 106.747 825.003 108.74C825.35 110.733 825.523 112.987 825.523 115.5C825.61 117.927 825.696 120.57 825.783 123.43C824.656 123.69 823.356 123.82 821.883 123.82C820.496 123.82 819.023 123.777 817.463 123.69C815.99 123.603 814.516 123.473 813.043 123.3C811.656 123.127 810.4 122.953 809.273 122.78C808.84 119.747 807.583 117.407 805.503 115.76C803.423 114.027 800.693 113.593 797.313 114.46C795.493 114.98 794.02 115.933 792.893 117.32C792.373 117.667 791.983 118.533 791.723 119.92C791.376 122.607 791.203 125.337 791.203 128.11C791.203 130.883 791.116 133.787 790.943 136.82C790.77 138.813 791.246 140.373 792.373 141.5C793.586 142.627 795.016 143.407 796.663 143.84C798.31 144.187 800 144.273 801.733 144.1C803.466 143.84 804.853 143.363 805.893 142.67C806.76 142.063 807.41 141.067 807.843 139.68C808.363 138.207 808.753 136.907 809.013 135.78C809.88 135.867 811.05 135.91 812.523 135.91C813.996 135.823 815.556 135.737 817.203 135.65C818.85 135.563 820.41 135.563 821.883 135.65ZM852.743 128.76C850.836 128.673 849.449 128.543 848.583 128.37V130.71C848.669 133.31 848.756 135.433 848.843 137.08C849.016 138.727 849.579 140.33 850.533 141.89C851.573 143.883 853.046 145.357 854.953 146.31C856.859 147.263 858.723 147.567 860.543 147.22C862.363 146.873 863.879 145.833 865.093 144.1C866.393 142.28 866.956 139.593 866.783 136.04C867.649 136.127 868.819 136.17 870.293 136.17C871.766 136.083 873.283 135.997 874.843 135.91C876.489 135.823 878.049 135.823 879.523 135.91C880.996 135.91 882.209 136.04 883.163 136.3C882.989 138.553 882.816 140.763 882.643 142.93C882.469 145.097 882.253 147.133 881.993 149.04C881.733 150.86 881.386 152.463 880.953 153.85C880.606 155.15 880.129 156.06 879.523 156.58C878.049 158.66 876.143 160.133 873.803 161C871.463 161.867 868.906 162.387 866.133 162.56C863.359 162.733 860.499 162.733 857.553 162.56C854.693 162.387 852.049 162.3 849.623 162.3C847.196 161.953 844.943 161.173 842.863 159.96C840.523 158.313 838.573 156.19 837.013 153.59C835.453 150.903 834.196 148 833.243 144.88C832.289 141.673 831.639 138.293 831.293 134.74C830.946 131.187 830.859 127.633 831.033 124.08C831.293 120.873 831.553 117.797 831.813 114.85C832.159 111.817 832.853 108.87 833.893 106.01C835.019 103.497 836.753 101.373 839.093 99.64C841.433 97.82 844.076 96.4767 847.023 95.61C849.969 94.6567 853.089 94.1367 856.383 94.05C859.676 93.9633 862.883 94.31 866.003 95.09C869.989 95.7833 873.196 97.17 875.623 99.25C878.049 101.33 879.869 103.843 881.083 106.79C882.383 109.737 883.163 112.987 883.423 116.54C883.683 120.093 883.683 123.69 883.423 127.33C882.816 127.503 881.646 127.677 879.913 127.85C878.266 128.023 876.273 128.197 873.933 128.37C871.679 128.543 869.253 128.673 866.653 128.76C864.053 128.847 861.539 128.89 859.113 128.89C856.773 128.89 854.649 128.847 852.743 128.76ZM867.953 111.73C867.086 110.17 865.873 109 864.313 108.22C863.619 107.787 862.926 107.483 862.233 107.31C861.539 107.05 860.716 106.92 859.763 106.92C857.683 106.92 855.993 107.137 854.693 107.57C853.393 108.003 852.353 108.61 851.573 109.39C850.793 110.17 850.186 111.08 849.753 112.12C849.406 113.16 849.146 114.243 848.973 115.37C848.799 116.323 848.713 117.017 848.713 117.45C848.799 117.797 849.233 118.057 850.013 118.23C850.793 118.317 852.006 118.36 853.653 118.36C855.386 118.273 857.899 118.23 861.193 118.23C863.446 118.23 865.136 118.273 866.263 118.36C867.389 118.447 868.169 118.49 868.603 118.49C869.123 118.403 869.383 118.273 869.383 118.1C869.383 117.84 869.383 117.363 869.383 116.67C869.383 114.937 868.906 113.29 867.953 111.73Z" fill="white"/>
<g clip-path="url(#clip0_10_3129)">
<path d="M387.062 535.125H228.938V550.938H387.062V535.125Z" fill="#34AC80"/>
<path d="M387.062 550.938H228.938V566.75H387.062V550.938Z" fill="#34AC80"/>
<path d="M260.562 566.75H228.938V582.562H260.562V566.75Z" fill="#34AC80"/>
<path d="M387.062 566.75H276.375V582.562H387.062V566.75Z" fill="#34AC80"/>
<path d="M260.562 582.562H228.938V598.375H260.562V582.562Z" fill="#34AC80"/>
<path d="M387.062 582.562H276.375V598.375H387.062V582.562Z" fill="#34AC80"/>
<path d="M260.562 598.375H228.938V614.188H260.562V598.375Z" fill="#34AC80"/>
<path d="M387.062 598.375H276.375V614.188H387.062V598.375Z" fill="#34AC80"/>
<path d="M260.562 614.188H228.938V630H260.562V614.188Z" fill="#34AC80"/>
<path d="M387.062 614.188H276.375V630H387.062V614.188Z" fill="#34AC80"/>
<path d="M355.438 550.938H308V566.75H355.438V550.938Z" fill="#009C59"/>
<path d="M339.625 566.75H308V582.562H339.625V566.75Z" fill="#009C59"/>
<path d="M371.25 566.75H355.438V582.562H371.25V566.75Z" fill="#009C59"/>
<path d="M355.438 582.562H308V598.375H355.438V582.562Z" fill="#009C59"/>
<path d="M371.25 598.375H292.188V614.188H371.25V598.375Z" fill="#009C59"/>
<path d="M355.438 203.062H260.562V218.875H355.438V203.062Z" fill="#FF0E0E"/>
<path d="M387.062 218.875H228.938V234.688H387.062V218.875Z" fill="#FF0E0E"/>
<path d="M402.875 234.688H213.125V250.5H402.875V234.688Z" fill="#FF0E0E"/>
<path d="M418.688 250.5H197.312V266.312H418.688V250.5Z" fill="#FF0E0E"/>
<path d="M418.688 266.312H197.312V282.125H418.688V266.312Z" fill="#FF0E0E"/>
<path d="M434.5 282.125H181.5V297.938H434.5V282.125Z" fill="#FF0E0E"/>
<path d="M197.312 297.938H181.5V313.75H197.312V297.938Z" fill="#FF0E0E"/>
<path d="M292.188 297.938H197.312V313.75H292.188V297.938Z" fill="#FFEF16"/>
<path d="M323.812 297.938H292.188V313.75H323.812V297.938Z" fill="#FF0E0E"/>
<path d="M418.688 297.938H323.812V313.75H418.688V297.938Z" fill="#FF1AD2"/>
<path d="M434.5 297.938H418.688V313.75H434.5V297.938Z" fill="#FF0E0E"/>
<path d="M181.5 313.75H165.688V329.562H181.5V313.75Z" fill="#0ADC4D"/>
<path d="M292.188 313.75H181.5V329.562H292.188V313.75Z" fill="#FFEF16"/>
<path d="M323.812 313.75H292.188V329.562H323.812V313.75Z" fill="white"/>
<path d="M434.5 313.75H323.812V329.562H434.5V313.75Z" fill="#FF1AD2"/>
<path d="M450.312 313.75H434.5V329.562H450.312V313.75Z" fill="#1929F4"/>
<path d="M181.5 329.562H149.875V345.375H181.5V329.562Z" fill="#0ADC4D"/>
<path d="M276.375 329.562H181.5V345.375H276.375V329.562Z" fill="#FFEF16"/>
<path d="M339.625 329.562H276.375V345.375H339.625V329.562Z" fill="white"/>
<path d="M434.5 329.562H339.625V345.375H434.5V329.562Z" fill="#FF1AD2"/>
<path d="M466.125 329.562H434.5V345.375H466.125V329.562Z" fill="#1929F4"/>
<path d="M181.5 345.375H134.062V361.188H181.5V345.375Z" fill="#0ADC4D"/>
<path d="M260.562 345.375H181.5V361.188H260.562V345.375Z" fill="#FFEF16"/>
<path d="M355.438 345.375H260.562V361.188H355.438V345.375Z" fill="white"/>
<path d="M434.5 345.375H355.438V361.188H434.5V345.375Z" fill="#FF1AD2"/>
<path d="M481.938 345.375H434.5V361.188H481.938V345.375Z" fill="#1929F4"/>
<path d="M181.5 361.188H134.062V377H181.5V361.188Z" fill="#0ADC4D"/>
<path d="M260.562 361.188H181.5V377H260.562V361.188Z" fill="#FFEF16"/>
<path d="M355.438 361.188H260.562V377H355.438V361.188Z" fill="white"/>
<path d="M434.5 361.188H355.438V377H434.5V361.188Z" fill="#FF1AD2"/>
<path d="M481.938 361.188H434.5V377H481.938V361.188Z" fill="#1929F4"/>
<path d="M197.312 377H118.25V392.812H197.312V377Z" fill="#0ADC4D"/>
<path d="M244.75 377H197.312V392.812H244.75V377Z" fill="#FFEF16"/>
<path d="M371.25 377H244.75V392.812H371.25V377Z" fill="white"/>
<path d="M418.688 377H371.25V392.812H418.688V377Z" fill="#FF1AD2"/>
<path d="M497.75 377H418.688V392.812H497.75V377Z" fill="#1929F4"/>
<path d="M197.312 392.812H118.25V408.625H197.312V392.812Z" fill="#0ADC4D"/>
<path d="M244.75 392.812H197.312V408.625H244.75V392.812Z" fill="#FFEF16"/>
<path d="M371.25 392.812H244.75V408.625H371.25V392.812Z" fill="white"/>
<path d="M418.688 392.812H371.25V408.625H418.688V392.812Z" fill="#FF1AD2"/>
<path d="M497.75 392.812H418.688V408.625H497.75V392.812Z" fill="#1929F4"/>
<path d="M213.125 408.625H118.25V424.438H213.125V408.625Z" fill="#0ADC4D"/>
<path d="M244.75 408.625H213.125V424.438H244.75V408.625Z" fill="#FFEF16"/>
<path d="M371.25 408.625H244.75V424.438H371.25V408.625Z" fill="white"/>
<path d="M402.875 408.625H371.25V424.438H402.875V408.625Z" fill="#FF1AD2"/>
<path d="M497.75 408.625H402.875V424.438H497.75V408.625Z" fill="#1929F4"/>
<path d="M228.938 424.438H118.25V440.25H228.938V424.438Z" fill="#0ADC4D"/>
<path d="M244.75 424.438H228.938V440.25H244.75V424.438Z" fill="#FFEF16"/>
<path d="M371.25 424.438H244.75V440.25H371.25V424.438Z" fill="white"/>
<path d="M387.062 424.438H371.25V440.25H387.062V424.438Z" fill="#FF1AD2"/>
<path d="M497.75 424.438H387.062V440.25H497.75V424.438Z" fill="#1929F4"/>
<path d="M244.75 440.25H118.25V456.062H244.75V440.25Z" fill="#0ADC4D"/>
<path d="M260.562 440.25H244.75V456.062H260.562V440.25Z" fill="#00FCFF"/>
<path d="M355.438 440.25H260.562V456.062H355.438V440.25Z" fill="white"/>
<path d="M371.25 440.25H355.438V456.062H371.25V440.25Z" fill="#00FCFF"/>
<path d="M497.75 440.25H371.25V456.062H497.75V440.25Z" fill="#1929F4"/>
<path d="M244.75 456.062H118.25V471.875H244.75V456.062Z" fill="#0ADC4D"/>
<path d="M371.25 456.062H244.75V471.875H371.25V456.062Z" fill="#00FCFF"/>
<path d="M497.75 456.062H371.25V471.875H497.75V456.062Z" fill="#1929F4"/>
<path d="M260.562 471.875H134.062V487.688H260.562V471.875Z" fill="#0ADC4D"/>
<path d="M355.438 471.875H260.562V487.688H355.438V471.875Z" fill="#00FCFF"/>
<path d="M481.938 471.875H355.438V487.688H481.938V471.875Z" fill="#1929F4"/>
<path d="M260.562 487.688H134.062V503.5H260.562V487.688Z" fill="#0ADC4D"/>
<path d="M355.438 487.688H260.562V503.5H355.438V487.688Z" fill="#00FCFF"/>
<path d="M481.938 487.688H355.438V503.5H481.938V487.688Z" fill="#1929F4"/>
<path d="M276.375 503.5H149.875V519.312H276.375V503.5Z" fill="#0ADC4D"/>
<path d="M339.625 503.5H276.375V519.312H339.625V503.5Z" fill="#00FCFF"/>
<path d="M466.125 503.5H339.625V519.312H466.125V503.5Z" fill="#1929F4"/>
<path d="M292.188 519.312H165.688V535.125H292.188V519.312Z" fill="#0ADC4D"/>
<path d="M323.812 519.312H292.188V535.125H323.812V519.312Z" fill="#00FCFF"/>
<path d="M450.312 519.312H323.812V535.125H450.312V519.312Z" fill="#1929F4"/>
<path d="M292.188 535.125H197.312V550.938H292.188V535.125Z" fill="#0ADC4D"/>
<path d="M418.688 535.125H323.812V550.938H418.688V535.125Z" fill="#1929F4"/>
<path d="M308 345.375H181.5V361.188H308V345.375Z" fill="#EC5B43"/>
<path d="M450.312 345.375H323.812V361.188H450.312V345.375Z" fill="#EC5B43"/>
<path d="M197.312 361.188H181.5V377H197.312V361.188Z" fill="#EC5B43"/>
<path d="M228.938 361.188H197.312V377H228.938V361.188Z" fill="white"/>
<path d="M292.188 361.188H228.938V377H292.188V361.188Z" fill="black"/>
<path d="M308 361.188H292.188V377H308V361.188Z" fill="#EC5B43"/>
<path d="M339.625 361.188H323.812V377H339.625V361.188Z" fill="#EC5B43"/>
<path d="M371.25 361.188H339.625V377H371.25V361.188Z" fill="white"/>
<path d="M434.5 361.188H371.25V377H434.5V361.188Z" fill="black"/>
<path d="M450.312 361.188H434.5V377H450.312V361.188Z" fill="#EC5B43"/>
<path d="M197.312 377H181.5V392.812H197.312V377Z" fill="#EC5B43"/>
<path d="M228.938 377H197.312V392.812H228.938V377Z" fill="white"/>
<path d="M292.188 377H228.938V392.812H292.188V377Z" fill="black"/>
<path d="M308 377H292.188V392.812H308V377Z" fill="#EC5B43"/>
<path d="M339.625 377H323.812V392.812H339.625V377Z" fill="#EC5B43"/>
<path d="M371.25 377H339.625V392.812H371.25V377Z" fill="white"/>
<path d="M434.5 377H371.25V392.812H434.5V377Z" fill="black"/>
<path d="M450.312 377H434.5V392.812H450.312V377Z" fill="#EC5B43"/>
<path d="M197.312 392.812H134.062V408.625H197.312V392.812Z" fill="#EC5B43"/>
<path d="M228.938 392.812H197.312V408.625H228.938V392.812Z" fill="white"/>
<path d="M292.188 392.812H228.938V408.625H292.188V392.812Z" fill="black"/>
<path d="M339.625 392.812H292.188V408.625H339.625V392.812Z" fill="#EC5B43"/>
<path d="M371.25 392.812H339.625V408.625H371.25V392.812Z" fill="white"/>
<path d="M434.5 392.812H371.25V408.625H434.5V392.812Z" fill="black"/>
<path d="M450.312 392.812H434.5V408.625H450.312V392.812Z" fill="#EC5B43"/>
<path d="M149.875 408.625H134.062V424.438H149.875V408.625Z" fill="#EC5B43"/>
<path d="M197.312 408.625H181.5V424.438H197.312V408.625Z" fill="#EC5B43"/>
<path d="M228.938 408.625H197.312V424.438H228.938V408.625Z" fill="white"/>
<path d="M292.188 408.625H228.938V424.438H292.188V408.625Z" fill="black"/>
<path d="M308 408.625H292.188V424.438H308V408.625Z" fill="#EC5B43"/>
<path d="M339.625 408.625H323.812V424.438H339.625V408.625Z" fill="#EC5B43"/>
<path d="M371.25 408.625H339.625V424.438H371.25V408.625Z" fill="white"/>
<path d="M434.5 408.625H371.25V424.438H434.5V408.625Z" fill="black"/>
<path d="M450.312 408.625H434.5V424.438H450.312V408.625Z" fill="#EC5B43"/>
<path d="M149.875 424.438H134.062V440.25H149.875V424.438Z" fill="#EC5B43"/>
<path d="M197.312 424.438H181.5V440.25H197.312V424.438Z" fill="#EC5B43"/>
<path d="M228.938 424.438H197.312V440.25H228.938V424.438Z" fill="white"/>
<path d="M292.188 424.438H228.938V440.25H292.188V424.438Z" fill="black"/>
<path d="M308 424.438H292.188V440.25H308V424.438Z" fill="#EC5B43"/>
<path d="M339.625 424.438H323.812V440.25H339.625V424.438Z" fill="#EC5B43"/>
<path d="M371.25 424.438H339.625V440.25H371.25V424.438Z" fill="white"/>
<path d="M434.5 424.438H371.25V440.25H434.5V424.438Z" fill="black"/>
<path d="M450.312 424.438H434.5V440.25H450.312V424.438Z" fill="#EC5B43"/>
<path d="M197.312 440.25H181.5V456.062H197.312V440.25Z" fill="#EC5B43"/>
<path d="M228.938 440.25H197.312V456.062H228.938V440.25Z" fill="white"/>
<path d="M292.188 440.25H228.938V456.062H292.188V440.25Z" fill="black"/>
<path d="M308 440.25H292.188V456.062H308V440.25Z" fill="#EC5B43"/>
<path d="M339.625 440.25H323.812V456.062H339.625V440.25Z" fill="#EC5B43"/>
<path d="M371.25 440.25H339.625V456.062H371.25V440.25Z" fill="white"/>
<path d="M434.5 440.25H371.25V456.062H434.5V440.25Z" fill="black"/>
<path d="M450.312 440.25H434.5V456.062H450.312V440.25Z" fill="#EC5B43"/>
<path d="M308 456.062H181.5V471.875H308V456.062Z" fill="#EC5B43"/>
<path d="M450.312 456.062H323.812V471.875H450.312V456.062Z" fill="#EC5B43"/>
</g>
<path d="M661 248H621V268H661V248Z" fill="#B8CED2"/>
<path d="M741 248H701V268H741V248Z" fill="#B8CED2"/>
<path d="M821 248H781V268H821V248Z" fill="#B8CED2"/>
<path d="M901 248H861V268H901V248Z" fill="#B8CED2"/>
<path d="M981 248H941V268H981V248Z" fill="#B8CED2"/>
<path d="M641 268H601V288H641V268Z" fill="white"/>
<path d="M661 268H641V288H661V268Z" fill="#B8CED2"/>
<path d="M721 268H661V288H721V268Z" fill="white"/>
<path d="M741 268H721V288H741V268Z" fill="#B8CED2"/>
<path d="M801 268H741V288H801V268Z" fill="white"/>
<path d="M821 268H801V288H821V268Z" fill="#B8CED2"/>
<path d="M881 268H821V288H881V268Z" fill="white"/>
<path d="M901 268H881V288H901V268Z" fill="#B8CED2"/>
<path d="M961 268H901V288H961V268Z" fill="white"/>
<path d="M981 268H961V288H981V268Z" fill="#B8CED2"/>
<path d="M1021 268H981V288H1021V268Z" fill="white"/>
<path d="M1021 288H601V308H1021V288Z" fill="white"/>
<path d="M621 308H601V328H621V308Z" fill="white"/>
<path d="M641 308H621V328H641V308Z" fill="black"/>
<path d="M661 308H641V328H661V308Z" fill="white"/>
<path d="M681 308H661V328H681V308Z" fill="black"/>
<path d="M701 308H681V328H701V308Z" fill="white"/>
<path d="M721 308H701V328H721V308Z" fill="black"/>
<path d="M741 308H721V328H741V308Z" fill="white"/>
<path d="M761 308H741V328H761V308Z" fill="black"/>
<path d="M781 308H761V328H781V308Z" fill="white"/>
<path d="M801 308H781V328H801V308Z" fill="black"/>
<path d="M821 308H801V328H821V308Z" fill="white"/>
<path d="M841 308H821V328H841V308Z" fill="black"/>
<path d="M861 308H841V328H861V308Z" fill="white"/>
<path d="M881 308H861V328H881V308Z" fill="black"/>
<path d="M901 308H881V328H901V308Z" fill="white"/>
<path d="M1001 308H901V328H1001V308Z" fill="#F39713"/>
<path d="M1021 308H1001V328H1021V308Z" fill="white"/>
<path d="M901 328H601V348H901V328Z" fill="white"/>
<path d="M941 328H901V348H941V328Z" fill="#F39713"/>
<path d="M961 328H941V348H961V328Z" fill="white"/>
<path d="M1001 328H961V348H1001V328Z" fill="#F39713"/>
<path d="M1021 328H1001V348H1021V328Z" fill="white"/>
<path d="M621 348H601V368H621V348Z" fill="white"/>
<path d="M881 348H621V368H881V348Z" fill="#E8E8E2"/>
<path d="M901 348H881V368H901V348Z" fill="white"/>
<path d="M921 348H901V368H921V348Z" fill="#F39713"/>
<path d="M941 348H921V368H941V348Z" fill="white"/>
<path d="M961 348H941V368H961V348Z" fill="#F39713"/>
<path d="M981 348H961V368H981V348Z" fill="white"/>
<path d="M1001 348H981V368H1001V348Z" fill="#F39713"/>
<path d="M1021 348H1001V368H1021V348Z" fill="white"/>
<path d="M641 368H601V388H641V368Z" fill="white"/>
<path d="M661 368H641V388H661V368Z" fill="#E8E8E2"/>
<path d="M681 368H661V388H681V368Z" fill="white"/>
<path d="M701 368H681V388H701V368Z" fill="#E8E8E2"/>
<path d="M721 368H701V388H721V368Z" fill="white"/>
<path d="M741 368H721V388H741V368Z" fill="#E8E8E2"/>
<path d="M761 368H741V388H761V368Z" fill="white"/>
<path d="M781 368H761V388H781V368Z" fill="#E8E8E2"/>
<path d="M801 368H781V388H801V368Z" fill="white"/>
<path d="M821 368H801V388H821V368Z" fill="#E8E8E2"/>
<path d="M841 368H821V388H841V368Z" fill="white"/>
<path d="M861 368H841V388H861V368Z" fill="#E8E8E2"/>
<path d="M901 368H861V388H901V368Z" fill="white"/>
<path d="M1001 368H901V388H1001V368Z" fill="#F39713"/>
<path d="M1021 368H1001V388H1021V368Z" fill="white"/>
<path d="M621 388H601V408H621V388Z" fill="white"/>
<path d="M881 388H621V408H881V388Z" fill="#E8E8E2"/>
<path d="M901 388H881V408H901V388Z" fill="white"/>
<path d="M1001 388H901V408H1001V388Z" fill="#F39713"/>
<path d="M1021 388H1001V408H1021V388Z" fill="white"/>
<path d="M641 408H601V428H641V408Z" fill="white"/>
<path d="M661 408H641V428H661V408Z" fill="#E8E8E2"/>
<path d="M681 408H661V428H681V408Z" fill="white"/>
<path d="M701 408H681V428H701V408Z" fill="#E8E8E2"/>
<path d="M721 408H701V428H721V408Z" fill="white"/>
<path d="M741 408H721V428H741V408Z" fill="#E8E8E2"/>
<path d="M761 408H741V428H761V408Z" fill="white"/>
<path d="M781 408H761V428H781V408Z" fill="#E8E8E2"/>
<path d="M801 408H781V428H801V408Z" fill="white"/>
<path d="M821 408H801V428H821V408Z" fill="#E8E8E2"/>
<path d="M841 408H821V428H841V408Z" fill="white"/>
<path d="M861 408H841V428H861V408Z" fill="#E8E8E2"/>
<path d="M901 408H861V428H901V408Z" fill="white"/>
<path d="M1001 408H901V428H1001V408Z" fill="#F39713"/>
<path d="M1021 408H1001V428H1021V408Z" fill="white"/>
<path d="M621 428H601V448H621V428Z" fill="white"/>
<path d="M881 428H621V448H881V428Z" fill="#E8E8E2"/>
<path d="M901 428H881V448H901V428Z" fill="white"/>
<path d="M1001 428H901V448H1001V428Z" fill="#F39713"/>
<path d="M1021 428H1001V448H1021V428Z" fill="white"/>
<path d="M641 448H601V468H641V448Z" fill="white"/>
<path d="M661 448H641V468H661V448Z" fill="#E8E8E2"/>
<path d="M681 448H661V468H681V448Z" fill="white"/>
<path d="M701 448H681V468H701V448Z" fill="#E8E8E2"/>
<path d="M721 448H701V468H721V448Z" fill="white"/>
<path d="M741 448H721V468H741V448Z" fill="#E8E8E2"/>
<path d="M761 448H741V468H761V448Z" fill="white"/>
<path d="M781 448H761V468H781V448Z" fill="#E8E8E2"/>
<path d="M801 448H781V468H801V448Z" fill="white"/>
<path d="M821 448H801V468H821V448Z" fill="#E8E8E2"/>
<path d="M841 448H821V468H841V448Z" fill="white"/>
<path d="M861 448H841V468H861V448Z" fill="#E8E8E2"/>
<path d="M901 448H861V468H901V448Z" fill="white"/>
<path d="M1001 448H901V468H1001V448Z" fill="#F39713"/>
<path d="M1021 448H1001V468H1021V448Z" fill="white"/>
<path d="M621 468H601V488H621V468Z" fill="white"/>
<path d="M881 468H621V488H881V468Z" fill="#E8E8E2"/>
<path d="M901 468H881V488H901V468Z" fill="white"/>
<path d="M1001 468H901V488H1001V468Z" fill="#F39713"/>
<path d="M1021 468H1001V488H1021V468Z" fill="white"/>
<path d="M641 488H601V508H641V488Z" fill="white"/>
<path d="M661 488H641V508H661V488Z" fill="#E8E8E2"/>
<path d="M681 488H661V508H681V488Z" fill="white"/>
<path d="M701 488H681V508H701V488Z" fill="#E8E8E2"/>
<path d="M721 488H701V508H721V488Z" fill="white"/>
<path d="M741 488H721V508H741V488Z" fill="#E8E8E2"/>
<path d="M761 488H741V508H761V488Z" fill="white"/>
<path d="M781 488H761V508H781V488Z" fill="#E8E8E2"/>
<path d="M801 488H781V508H801V488Z" fill="white"/>
<path d="M821 488H801V508H821V488Z" fill="#E8E8E2"/>
<path d="M841 488H821V508H841V488Z" fill="white"/>
<path d="M861 488H841V508H861V488Z" fill="#E8E8E2"/>
<path d="M901 488H861V508H901V488Z" fill="white"/>
<path d="M1001 488H901V508H1001V488Z" fill="#F39713"/>
<path d="M1021 488H1001V508H1021V488Z" fill="white"/>
<path d="M621 508H601V528H621V508Z" fill="white"/>
<path d="M881 508H621V528H881V508Z" fill="#E8E8E2"/>
<path d="M901 508H881V528H901V508Z" fill="white"/>
<path d="M1001 508H901V528H1001V508Z" fill="#F39713"/>
<path d="M1021 508H1001V528H1021V508Z" fill="white"/>
<path d="M641 528H601V548H641V528Z" fill="white"/>
<path d="M661 528H641V548H661V528Z" fill="#E8E8E2"/>
<path d="M681 528H661V548H681V528Z" fill="white"/>
<path d="M701 528H681V548H701V528Z" fill="#E8E8E2"/>
<path d="M721 528H701V548H721V528Z" fill="white"/>
<path d="M741 528H721V548H741V528Z" fill="#E8E8E2"/>
<path d="M861 528H741V548H861V528Z" fill="black"/>
<path d="M881 528H861V548H881V528Z" fill="#E8E8E2"/>
<path d="M901 528H881V548H901V528Z" fill="white"/>
<path d="M1001 528H901V548H1001V528Z" fill="#F39713"/>
<path d="M1021 528H1001V548H1021V528Z" fill="white"/>
<path d="M621 548H601V568H621V548Z" fill="white"/>
<path d="M881 548H621V568H881V548Z" fill="#E8E8E2"/>
<path d="M901 548H881V568H901V548Z" fill="white"/>
<path d="M1001 548H901V568H1001V548Z" fill="#F39713"/>
<path d="M1021 548H1001V568H1021V548Z" fill="white"/>
<path d="M1021 568H601V588H1021V568Z" fill="white"/>
<defs>
<clipPath id="clip0_10_3129">
<rect width="506" height="506" fill="white" transform="translate(55 124)"/>
</clipPath>
</defs>
</svg>
