<svg width="1200" height="630" viewBox="0 0 1200 630" fill="none" xmlns="http://www.w3.org/2000/svg">
<rect width="1200" height="630" fill="#2B83F6"/>
<path d="M239.48 76.11C241.993 78.3633 243.77 81.0067 244.81 84.04C245.417 85.34 245.85 86.6833 246.11 88.07C246.457 89.37 246.717 90.7133 246.89 92.1C247.063 94.2667 247.15 96.4333 247.15 98.6C247.237 100.68 247.237 102.803 247.15 104.97C246.89 109.563 246.803 114.027 246.89 118.36C246.977 122.693 246.847 127.113 246.5 131.62L246.11 135.91C245.937 138.943 245.46 142.02 244.68 145.14C243.9 148.173 242.73 150.947 241.17 153.46C239.697 155.54 237.747 157.23 235.32 158.53C232.98 159.743 230.467 160.697 227.78 161.39C225.353 162.083 222.883 162.517 220.37 162.69C217.943 162.863 215.473 162.863 212.96 162.69C211.14 162.517 209.363 162.257 207.63 161.91C205.983 161.65 204.38 161.173 202.82 160.48C201.347 159.787 200.003 158.92 198.79 157.88C197.577 156.753 196.58 155.323 195.8 153.59C194.587 151.423 193.763 149.127 193.33 146.7C192.983 144.187 192.767 141.673 192.68 139.16C192.42 132.4 192.117 125.64 191.77 118.88C191.51 112.033 191.597 105.187 192.03 98.34C192.117 94.44 192.593 90.54 193.46 86.64C194.413 82.6533 196.233 79.1433 198.92 76.11C199.787 75.2433 200.783 74.4633 201.91 73.77C204.77 72.3833 207.847 71.3867 211.14 70.78C214.52 70.0867 217.857 69.8267 221.15 70C224.53 70.1733 227.78 70.78 230.9 71.82C234.107 72.7733 236.967 74.2033 239.48 76.11ZM230.9 122V115.76L230.64 106.92C230.64 106.833 230.553 105.967 230.38 104.32C230.293 102.587 230.207 100.983 230.12 99.51C229.947 97.0833 229.253 94.8733 228.04 92.88C226.913 90.8867 225.353 89.4133 223.36 88.46C221.627 87.7667 219.85 87.6367 218.03 88.07C216.21 88.5033 214.607 89.24 213.22 90.28C210.187 92.62 208.15 95.61 207.11 99.25C206.417 102.543 205.983 106.01 205.81 109.65C205.723 113.29 205.767 116.93 205.94 120.57C206.373 123.603 206.677 126.723 206.85 129.93C207.023 133.05 207.543 136.04 208.41 138.9C209.277 140.633 210.533 141.977 212.18 142.93C213.827 143.883 215.603 144.447 217.51 144.62C219.417 144.707 221.323 144.447 223.23 143.84C225.137 143.147 226.74 142.063 228.04 140.59C228.82 139.55 229.383 138.727 229.73 138.12C230.077 137.427 230.293 136.69 230.38 135.91C230.467 135.13 230.467 134.22 230.38 133.18C230.38 132.053 230.467 130.58 230.64 128.76C230.727 127.027 230.77 125.51 230.77 124.21C230.857 122.91 230.9 122.173 230.9 122ZM278.922 114.72V143.06V160.48C277.448 160.307 275.975 160.263 274.502 160.35C273.028 160.437 271.555 160.567 270.082 160.74C268.608 160.827 267.178 160.913 265.792 161C264.492 161.087 263.278 161.043 262.152 160.87C261.978 159.83 261.848 158.14 261.762 155.8C261.762 153.373 261.718 150.687 261.632 147.74C261.632 144.707 261.632 141.543 261.632 138.25C261.632 134.957 261.632 131.793 261.632 128.76C261.718 125.64 261.762 122.867 261.762 120.44C261.848 118.013 261.892 116.15 261.892 114.85C260.505 114.85 259.032 114.85 257.472 114.85C255.998 114.85 254.395 114.893 252.662 114.98L252.272 99.12C254.092 99.12 255.738 99.12 257.212 99.12C258.772 99.12 260.245 99.1633 261.632 99.25C261.458 97.0833 261.502 94.7433 261.762 92.23C262.022 89.7167 262.628 87.29 263.582 84.95C264.622 82.5233 266.052 80.3567 267.872 78.45C269.692 76.4567 272.075 74.9833 275.022 74.03C278.662 72.8167 282.605 72.08 286.852 71.82C291.185 71.4733 295.388 71.3867 299.462 71.56C299.895 72.86 300.155 74.29 300.242 75.85C300.415 77.41 300.458 78.97 300.372 80.53C300.285 82.09 300.155 83.6067 299.982 85.08C299.808 86.5533 299.635 87.8967 299.462 89.11C298.422 89.0233 297.208 89.0233 295.822 89.11C294.522 89.1967 293.135 89.3267 291.662 89.5C290.188 89.6733 288.715 89.89 287.242 90.15C285.768 90.3233 284.425 90.4967 283.212 90.67C281.218 91.0167 279.962 92.0567 279.442 93.79C279.008 95.4367 279.008 97.3433 279.442 99.51H299.332C299.158 100.463 299.115 101.417 299.202 102.37C299.288 103.237 299.288 104.277 299.202 105.49C299.202 106.443 299.202 107.223 299.202 107.83C299.202 108.35 299.158 108.913 299.072 109.52C299.072 110.127 299.028 110.907 298.942 111.86C298.855 112.813 298.725 114.113 298.552 115.76C294.132 115.5 290.405 115.283 287.372 115.11C284.425 114.937 281.608 114.807 278.922 114.72ZM328.18 114.72V143.06V160.48C326.706 160.307 325.233 160.263 323.76 160.35C322.286 160.437 320.813 160.567 319.34 160.74C317.866 160.827 316.436 160.913 315.05 161C313.75 161.087 312.536 161.043 311.41 160.87C311.236 159.83 311.106 158.14 311.02 155.8C311.02 153.373 310.976 150.687 310.89 147.74C310.89 144.707 310.89 141.543 310.89 138.25C310.89 134.957 310.89 131.793 310.89 128.76C310.976 125.64 311.02 122.867 311.02 120.44C311.106 118.013 311.15 116.15 311.15 114.85C309.763 114.85 308.29 114.85 306.73 114.85C305.256 114.85 303.653 114.893 301.92 114.98L301.53 99.12C303.35 99.12 304.996 99.12 306.47 99.12C308.03 99.12 309.503 99.1633 310.89 99.25C310.716 97.0833 310.76 94.7433 311.02 92.23C311.28 89.7167 311.886 87.29 312.84 84.95C313.88 82.5233 315.31 80.3567 317.13 78.45C318.95 76.4567 321.333 74.9833 324.28 74.03C327.92 72.8167 331.863 72.08 336.11 71.82C340.443 71.4733 344.646 71.3867 348.72 71.56C349.153 72.86 349.413 74.29 349.5 75.85C349.673 77.41 349.716 78.97 349.63 80.53C349.543 82.09 349.413 83.6067 349.24 85.08C349.066 86.5533 348.893 87.8967 348.72 89.11C347.68 89.0233 346.466 89.0233 345.08 89.11C343.78 89.1967 342.393 89.3267 340.92 89.5C339.446 89.6733 337.973 89.89 336.5 90.15C335.026 90.3233 333.683 90.4967 332.47 90.67C330.476 91.0167 329.22 92.0567 328.7 93.79C328.266 95.4367 328.266 97.3433 328.7 99.51H348.59C348.416 100.463 348.373 101.417 348.46 102.37C348.546 103.237 348.546 104.277 348.46 105.49C348.46 106.443 348.46 107.223 348.46 107.83C348.46 108.35 348.416 108.913 348.33 109.52C348.33 110.127 348.286 110.907 348.2 111.86C348.113 112.813 347.983 114.113 347.81 115.76C343.39 115.5 339.663 115.283 336.63 115.11C333.683 114.937 330.866 114.807 328.18 114.72ZM362.747 95.61C364.741 95.6967 367.124 95.6967 369.897 95.61H372.107V96C372.021 106.487 371.804 117.19 371.457 128.11C371.197 139.03 371.371 149.733 371.977 160.22C371.544 160.74 370.461 161 368.727 161C366.994 161.087 365.087 161.087 363.007 161C361.014 161 359.107 160.957 357.287 160.87C355.467 160.783 354.254 160.827 353.647 161C354.081 155.54 354.254 149.993 354.167 144.36C354.167 138.727 354.081 133.137 353.907 127.59C353.734 122.043 353.647 116.583 353.647 111.21C353.647 105.75 353.907 100.463 354.427 95.35V95.22C354.774 95.1333 355.337 95.1333 356.117 95.22C356.984 95.3067 357.634 95.35 358.067 95.35C359.194 95.4367 360.754 95.5233 362.747 95.61ZM354.037 77.41C353.864 74.6367 353.821 71.2567 353.907 67.27L371.587 67.66C371.587 68.18 371.587 69.1333 371.587 70.52C371.674 71.82 371.717 73.2933 371.717 74.94C371.804 76.5 371.847 78.1467 371.847 79.88C371.934 81.5267 371.977 83 371.977 84.3C371.631 84.82 370.807 85.1667 369.507 85.34C368.294 85.5133 366.821 85.6 365.087 85.6C363.441 85.5133 361.664 85.4267 359.757 85.34C357.851 85.1667 356.074 85.1233 354.427 85.21C354.427 82.6967 354.297 80.0967 354.037 77.41ZM427.361 135.65C428.835 135.65 430.048 135.78 431.001 136.04C430.828 138.293 430.655 140.503 430.481 142.67C430.308 144.837 430.091 146.873 429.831 148.78C429.571 150.6 429.225 152.203 428.791 153.59C428.445 154.89 427.968 155.843 427.361 156.45C425.888 158.53 423.938 160.003 421.511 160.87C419.171 161.737 416.615 162.257 413.841 162.43C411.068 162.69 408.208 162.69 405.261 162.43C402.315 162.257 399.628 162.17 397.201 162.17C392.781 161.39 389.055 159.483 386.021 156.45C383.681 154.37 382.078 151.77 381.211 148.65C380.345 145.53 379.825 142.28 379.651 138.9C379.478 135.433 379.435 131.967 379.521 128.5C379.695 125.033 379.608 121.87 379.261 119.01C379.261 115.89 379.521 112.77 380.041 109.65C380.128 108.697 380.431 107.397 380.951 105.75C381.471 104.103 381.861 102.847 382.121 101.98C382.728 100.68 383.681 99.5533 384.981 98.6C386.368 97.6467 387.928 96.8667 389.661 96.26C391.481 95.5667 393.388 95.09 395.381 94.83C397.461 94.57 399.541 94.44 401.621 94.44C403.355 94.6133 405.001 94.6567 406.561 94.57C408.208 94.3967 409.941 94.3967 411.761 94.57C414.535 94.7433 417.178 95.2633 419.691 96.13C422.205 96.9967 424.371 98.2967 426.191 100.03C427.405 100.897 428.315 102.067 428.921 103.54C429.615 105.013 430.135 106.747 430.481 108.74C430.828 110.733 431.001 112.987 431.001 115.5C431.088 117.927 431.175 120.57 431.261 123.43C430.135 123.69 428.835 123.82 427.361 123.82C425.975 123.82 424.501 123.777 422.941 123.69C421.468 123.603 419.995 123.473 418.521 123.3C417.135 123.127 415.878 122.953 414.751 122.78C414.318 119.747 413.061 117.407 410.981 115.76C408.901 114.027 406.171 113.593 402.791 114.46C400.971 114.98 399.498 115.933 398.371 117.32C397.851 117.667 397.461 118.533 397.201 119.92C396.855 122.607 396.681 125.337 396.681 128.11C396.681 130.883 396.595 133.787 396.421 136.82C396.248 138.813 396.725 140.373 397.851 141.5C399.065 142.627 400.495 143.407 402.141 143.84C403.788 144.187 405.478 144.273 407.211 144.1C408.945 143.84 410.331 143.363 411.371 142.67C412.238 142.063 412.888 141.067 413.321 139.68C413.841 138.207 414.231 136.907 414.491 135.78C415.358 135.867 416.528 135.91 418.001 135.91C419.475 135.823 421.035 135.737 422.681 135.65C424.328 135.563 425.888 135.563 427.361 135.65ZM447.171 95.61C449.165 95.6967 451.548 95.6967 454.321 95.61H456.531V96C456.445 106.487 456.228 117.19 455.881 128.11C455.621 139.03 455.795 149.733 456.401 160.22C455.968 160.74 454.885 161 453.151 161C451.418 161.087 449.511 161.087 447.431 161C445.438 161 443.531 160.957 441.711 160.87C439.891 160.783 438.678 160.827 438.071 161C438.505 155.54 438.678 149.993 438.591 144.36C438.591 138.727 438.505 133.137 438.331 127.59C438.158 122.043 438.071 116.583 438.071 111.21C438.071 105.75 438.331 100.463 438.851 95.35V95.22C439.198 95.1333 439.761 95.1333 440.541 95.22C441.408 95.3067 442.058 95.35 442.491 95.35C443.618 95.4367 445.178 95.5233 447.171 95.61ZM438.461 77.41C438.288 74.6367 438.245 71.2567 438.331 67.27L456.011 67.66C456.011 68.18 456.011 69.1333 456.011 70.52C456.098 71.82 456.141 73.2933 456.141 74.94C456.228 76.5 456.271 78.1467 456.271 79.88C456.358 81.5267 456.401 83 456.401 84.3C456.055 84.82 455.231 85.1667 453.931 85.34C452.718 85.5133 451.245 85.6 449.511 85.6C447.865 85.5133 446.088 85.4267 444.181 85.34C442.275 85.1667 440.498 85.1233 438.851 85.21C438.851 82.6967 438.721 80.0967 438.461 77.41ZM510.355 95.87C512.522 95.9567 514.992 96.0867 517.765 96.26C517.852 96.78 517.895 97.3 517.895 97.82C517.982 98.34 518.025 98.86 518.025 99.38V100.68C517.765 110.04 517.809 119.27 518.155 128.37C518.502 137.383 518.372 146.527 517.765 155.8C517.765 156.927 517.722 158.053 517.635 159.18C517.635 160.307 517.115 160.957 516.075 161.13H514.515C513.129 161.13 511.699 161.087 510.225 161C508.839 160.827 507.452 160.74 506.065 160.74C505.112 160.74 504.159 160.827 503.205 161C502.339 161.087 501.429 161.13 500.475 161.13C499.869 160.957 499.435 160.61 499.175 160.09C499.002 159.57 498.915 158.963 498.915 158.27C498.915 157.317 499.002 156.537 499.175 155.93C499.349 155.323 499.435 154.587 499.435 153.72C497.355 155.8 494.712 157.577 491.505 159.05C488.385 160.523 485.309 161.26 482.275 161.26C478.895 161.26 475.992 160.09 473.565 157.75C471.225 155.41 469.275 152.507 467.715 149.04C466.155 145.573 464.985 141.803 464.205 137.73C463.512 133.657 463.165 129.887 463.165 126.42C463.165 122.087 463.729 118.1 464.855 114.46C465.982 110.82 467.499 107.7 469.405 105.1C471.399 102.413 473.739 100.333 476.425 98.86C479.112 97.3 481.972 96.4767 485.005 96.39C486.565 96.39 487.995 96.4333 489.295 96.52C490.682 96.52 491.939 96.7367 493.065 97.17C494.192 97.5167 495.189 98.1233 496.055 98.99C496.922 99.77 497.659 100.897 498.265 102.37C498.179 100.983 498.222 99.8133 498.395 98.86C498.655 97.82 498.785 96.78 498.785 95.74C498.785 95.6533 499.045 95.61 499.565 95.61C500.172 95.5233 500.822 95.5233 501.515 95.61C502.209 95.61 502.902 95.61 503.595 95.61C504.289 95.61 504.765 95.61 505.025 95.61C506.499 95.6967 508.275 95.7833 510.355 95.87ZM483.575 116.41C481.582 118.057 480.369 119.963 479.935 122.13C479.589 123.257 479.372 124.427 479.285 125.64C479.199 126.767 479.155 127.893 479.155 129.02C479.155 132.92 480.152 136.257 482.145 139.03C484.225 141.717 487.085 143.06 490.725 143.06C492.892 143.06 494.495 142.713 495.535 142.02C496.662 141.24 497.442 140.2 497.875 138.9C498.395 137.513 498.655 135.867 498.655 133.96C498.742 131.967 498.785 129.757 498.785 127.33C498.785 124.297 498.742 121.913 498.655 120.18C498.655 118.36 498.439 116.973 498.005 116.02C497.659 115.067 497.009 114.46 496.055 114.2C495.189 113.94 493.845 113.81 492.025 113.81C488.472 113.81 485.655 114.677 483.575 116.41ZM526.421 90.15C526.421 82.2633 526.811 74.3767 527.591 66.49L545.271 66.88C545.271 70.4333 545.228 74.7233 545.141 79.75C545.055 84.7767 544.968 90.15 544.881 95.87C544.795 101.59 544.708 107.527 544.621 113.68C544.621 119.833 544.621 125.77 544.621 131.49C544.621 137.21 544.665 142.583 544.751 147.61C544.838 152.55 544.968 156.753 545.141 160.22C544.708 160.74 543.625 161 541.891 161C540.158 161.087 538.251 161.087 536.171 161C534.178 161 532.271 160.957 530.451 160.87C528.631 160.783 527.418 160.827 526.811 161C527.418 153.2 527.635 145.357 527.461 137.47C527.375 129.583 527.201 121.697 526.941 113.81C526.681 105.923 526.508 98.0367 526.421 90.15ZM634.614 146.83C634.614 147.697 634.657 148.477 634.744 149.17C634.917 152.29 635.004 154.673 635.004 156.32C635.004 157.88 634.874 159.05 634.614 159.83C634.441 160.523 634.094 160.913 633.574 161C633.054 161 632.317 161 631.364 161C630.411 160.913 629.154 160.913 627.594 161C626.121 161.087 623.564 161.173 619.924 161.26C616.371 161.347 611.431 161.39 605.104 161.39C598.864 161.39 590.501 161.303 580.014 161.13V158.79C580.274 152.29 580.491 146.44 580.664 141.24C580.837 135.953 580.924 131.057 580.924 126.55C581.011 121.957 581.054 117.537 581.054 113.29C581.054 109.043 581.011 104.71 580.924 100.29C580.837 95.87 580.751 91.19 580.664 86.25C580.577 81.2233 580.491 75.6767 580.404 69.61C581.271 69.2633 582.614 69.0033 584.434 68.83C586.254 68.57 588.204 68.44 590.284 68.44C592.364 68.44 594.401 68.57 596.394 68.83C598.387 69.09 599.991 69.48 601.204 70C601.031 75.6333 600.944 81.44 600.944 87.42C601.031 93.3133 601.117 99.25 601.204 105.23C601.291 111.21 601.334 117.19 601.334 123.17C601.421 129.063 601.421 134.783 601.334 140.33V140.46C601.941 140.287 603.067 140.243 604.714 140.33C606.447 140.33 608.441 140.373 610.694 140.46C612.947 140.547 615.331 140.677 617.844 140.85C620.444 140.937 622.871 141.023 625.124 141.11C627.464 141.197 629.501 141.283 631.234 141.37C633.054 141.37 634.311 141.327 635.004 141.24C635.004 142.193 634.961 143.147 634.874 144.1C634.787 144.967 634.701 145.877 634.614 146.83ZM648.646 95.61C650.639 95.6967 653.023 95.6967 655.796 95.61H658.006V96C657.919 106.487 657.703 117.19 657.356 128.11C657.096 139.03 657.269 149.733 657.876 160.22C657.443 160.74 656.359 161 654.626 161C652.893 161.087 650.986 161.087 648.906 161C646.913 161 645.006 160.957 643.186 160.87C641.366 160.783 640.153 160.827 639.546 161C639.979 155.54 640.153 149.993 640.066 144.36C640.066 138.727 639.979 133.137 639.806 127.59C639.633 122.043 639.546 116.583 639.546 111.21C639.546 105.75 639.806 100.463 640.326 95.35V95.22C640.673 95.1333 641.236 95.1333 642.016 95.22C642.883 95.3067 643.533 95.35 643.966 95.35C645.093 95.4367 646.653 95.5233 648.646 95.61ZM639.936 77.41C639.763 74.6367 639.719 71.2567 639.806 67.27L657.486 67.66C657.486 68.18 657.486 69.1333 657.486 70.52C657.573 71.82 657.616 73.2933 657.616 74.94C657.703 76.5 657.746 78.1467 657.746 79.88C657.833 81.5267 657.876 83 657.876 84.3C657.529 84.82 656.706 85.1667 655.406 85.34C654.193 85.5133 652.719 85.6 650.986 85.6C649.339 85.5133 647.563 85.4267 645.656 85.34C643.749 85.1667 641.973 85.1233 640.326 85.21C640.326 82.6967 640.196 80.0967 639.936 77.41ZM684.01 99.77C684.01 100.723 684.053 101.807 684.14 103.02C684.573 102.76 685.093 102.457 685.7 102.11C686.393 101.763 686.957 101.417 687.39 101.07C689.21 99.77 691.247 98.73 693.5 97.95C695.753 97.17 698.05 96.7367 700.39 96.65C702.817 96.5633 705.157 96.8233 707.41 97.43C709.663 98.0367 711.7 99.12 713.52 100.68C714.387 101.46 715.037 103.107 715.47 105.62C715.99 108.047 716.293 110.993 716.38 114.46C716.553 117.927 716.597 121.74 716.51 125.9C716.51 129.973 716.467 134.133 716.38 138.38C716.293 142.54 716.207 146.57 716.12 150.47C716.033 154.37 716.077 157.793 716.25 160.74C713.217 161.173 710.487 161.347 708.06 161.26C705.72 161.26 703.033 161.26 700 161.26C699.827 159.267 699.74 157.013 699.74 154.5C699.74 151.987 699.74 149.387 699.74 146.7C699.827 144.013 699.827 141.327 699.74 138.64C699.74 135.953 699.653 133.44 699.48 131.1C699.393 130.06 699.307 128.933 699.22 127.72C699.133 126.42 698.96 125.163 698.7 123.95C698.527 122.737 698.223 121.653 697.79 120.7C697.443 119.747 696.923 119.01 696.23 118.49C696.143 118.403 696.057 118.36 695.97 118.36C695.883 118.36 695.797 118.317 695.71 118.23C695.017 117.883 693.977 117.623 692.59 117.45C691.29 117.19 689.99 117.277 688.69 117.71C687.39 118.057 686.22 118.837 685.18 120.05C684.14 121.177 683.533 122.91 683.36 125.25C683.187 128.283 683.143 131.273 683.23 134.22C683.317 137.08 683.403 139.983 683.49 142.93C683.663 145.79 683.75 148.65 683.75 151.51C683.75 154.37 683.577 157.23 683.23 160.09V160.61C681.757 161.043 680.457 161.303 679.33 161.39C678.29 161.477 677.207 161.477 676.08 161.39C674.953 161.39 673.697 161.347 672.31 161.26C670.923 161.173 669.19 161.217 667.11 161.39C667.11 150.73 666.98 140.07 666.72 129.41C666.547 118.75 666.633 107.7 666.98 96.26C668.02 96.3467 668.887 96.4333 669.58 96.52C670.273 96.52 670.923 96.52 671.53 96.52C672.137 96.52 672.787 96.52 673.48 96.52C674.173 96.4333 675.04 96.3467 676.08 96.26C676.427 96.26 677.033 96.2167 677.9 96.13C678.767 95.9567 679.633 95.8267 680.5 95.74C681.367 95.6533 682.147 95.6533 682.84 95.74C683.533 95.74 683.88 95.87 683.88 96.13C684.053 97.6033 684.097 98.8167 684.01 99.77ZM739.415 66.36C740.889 66.36 742.189 66.4467 743.315 66.62V95.09C743.315 97.95 743.229 100.983 743.055 104.19C742.969 107.397 743.055 109.997 743.315 111.99C744.789 110.69 746.045 109.26 747.085 107.7C748.212 106.14 749.252 104.58 750.205 103.02C751.159 101.373 752.112 99.7267 753.065 98.08C754.105 96.4333 755.275 94.8733 756.575 93.4C757.702 93.8333 759.175 94.0933 760.995 94.18C762.815 94.18 764.679 94.18 766.585 94.18C768.579 94.0933 770.529 94.0067 772.435 93.92C774.342 93.7467 775.902 93.7033 777.115 93.79C773.909 98.73 770.442 103.627 766.715 108.48C762.989 113.247 759.305 118.057 755.665 122.91C759.565 129.237 763.465 135.52 767.365 141.76C771.352 147.913 774.992 154.327 778.285 161C777.072 161 775.512 161.043 773.605 161.13C771.785 161.303 769.879 161.433 767.885 161.52C765.892 161.607 763.942 161.607 762.035 161.52C760.215 161.433 758.655 161.26 757.355 161C756.055 158.92 754.842 156.797 753.715 154.63C752.675 152.463 751.635 150.34 750.595 148.26C749.555 146.093 748.429 143.97 747.215 141.89C746.089 139.81 744.789 137.817 743.315 135.91C743.315 137.47 743.359 139.29 743.445 141.37C743.532 143.45 743.575 145.617 743.575 147.87C743.575 150.123 743.532 152.42 743.445 154.76C743.359 157.013 743.142 159.093 742.795 161C741.842 160.913 740.629 160.913 739.155 161C737.769 161 736.295 161.043 734.735 161.13C733.175 161.217 731.572 161.26 729.925 161.26C728.365 161.26 726.935 161.173 725.635 161C725.029 144.88 724.899 129.063 725.245 113.55C725.592 98.0367 725.722 82.3933 725.635 66.62C726.935 66.62 728.365 66.62 729.925 66.62C731.572 66.5333 733.175 66.49 734.735 66.49C736.382 66.4033 737.942 66.36 739.415 66.36ZM829.365 103.41C831.098 107.137 831.965 111.34 831.965 116.02C829.192 116.453 826.115 116.713 822.735 116.8C819.442 116.887 816.322 116.627 813.375 116.02C813.635 114.98 813.505 113.94 812.985 112.9C812.552 111.86 811.858 110.95 810.905 110.17C810.038 109.39 808.998 108.827 807.785 108.48C806.658 108.047 805.532 107.873 804.405 107.96C802.412 108.307 800.895 109.087 799.855 110.3C798.902 111.427 798.425 112.683 798.425 114.07C798.425 115.457 798.945 116.843 799.985 118.23C801.025 119.617 802.542 120.657 804.535 121.35C809.388 122.043 813.938 122.997 818.185 124.21C822.432 125.337 825.552 127.2 827.545 129.8C829.452 132.92 830.622 136.127 831.055 139.42C831.488 142.627 830.882 146.613 829.235 151.38C827.242 155.627 824.122 158.66 819.875 160.48C815.628 162.3 810.992 163.167 805.965 163.08C801.545 163.253 797.558 162.863 794.005 161.91C790.452 160.957 787.375 159.527 784.775 157.62C782.262 155.713 780.268 153.373 778.795 150.6C777.408 147.827 776.715 144.707 776.715 141.24V140.85V140.59C779.575 140.243 782.825 140.157 786.465 140.33C790.105 140.417 793.268 140.46 795.955 140.46C796.042 142.453 796.952 144.1 798.685 145.4C800.505 146.613 802.412 147.35 804.405 147.61C806.398 147.783 808.218 147.393 809.865 146.44C811.512 145.487 812.292 143.753 812.205 141.24C812.465 139.16 811.988 137.6 810.775 136.56C809.562 135.52 807.958 134.74 805.965 134.22C803.972 133.613 801.718 133.093 799.205 132.66C796.692 132.227 794.222 131.49 791.795 130.45C786.942 128.803 783.388 126.247 781.135 122.78C778.968 119.227 777.928 115.587 778.015 111.86C778.188 108.047 779.402 104.537 781.655 101.33C783.995 98.1233 787.288 95.9567 791.535 94.83C793.182 94.3967 795.175 94.05 797.515 93.79C799.942 93.53 802.498 93.4 805.185 93.4C807.872 93.4 810.558 93.5733 813.245 93.92C815.932 94.18 818.402 94.57 820.655 95.09C824.728 96.8233 827.632 99.5967 829.365 103.41ZM942.906 98.34V98.86L943.816 110.82L930.036 111.21C929.083 113.983 928.173 116.713 927.306 119.4C926.439 122.087 925.529 124.817 924.576 127.59C925.529 127.677 927.479 127.72 930.426 127.72C933.373 127.633 937.056 127.763 941.476 128.11C941.736 128.803 941.866 129.453 941.866 130.06C941.953 130.667 941.996 131.403 941.996 132.27C942.083 133.137 942.126 134.177 942.126 135.39C942.126 136.603 942.213 138.207 942.386 140.2V140.46C940.999 140.633 939.699 140.763 938.486 140.85C937.273 140.85 935.886 140.85 934.326 140.85C932.766 140.85 930.859 140.85 928.606 140.85C926.439 140.85 923.623 140.893 920.156 140.98H920.026H919.766C919.593 141.24 919.246 142.15 918.726 143.71C918.293 145.27 917.729 147.047 917.036 149.04C916.343 151.033 915.563 153.113 914.696 155.28C913.829 157.36 912.963 159.18 912.096 160.74L911.966 160.87H911.706C911.533 160.87 910.319 160.913 908.066 161C905.899 161.087 902.173 161.043 896.886 160.87C897.839 157.057 898.966 153.547 900.266 150.34C901.566 147.047 902.649 143.797 903.516 140.59H903.386C903.386 140.59 903.126 140.59 902.606 140.59C902.173 140.503 901.393 140.46 900.266 140.46C899.139 140.46 897.579 140.46 895.586 140.46C893.679 140.46 891.253 140.503 888.306 140.59C887.613 142.583 887.093 144.013 886.746 144.88C886.399 145.747 886.053 146.57 885.706 147.35C885.446 148.13 885.056 149.127 884.536 150.34C884.016 151.553 883.236 153.503 882.196 156.19C881.936 157.057 881.676 157.793 881.416 158.4C881.243 159.007 880.896 159.787 880.376 160.74C880.203 160.913 879.856 161 879.336 161C878.469 160.913 876.909 160.87 874.656 160.87C872.403 160.783 869.326 160.827 865.426 161C866.119 157.36 867.073 153.937 868.286 150.73C869.586 147.437 870.843 144.143 872.056 140.85C870.583 140.85 869.109 140.937 867.636 141.11C866.163 141.197 864.776 141.197 863.476 141.11C863.303 138.857 863.216 136.517 863.216 134.09C863.216 131.663 863.173 129.28 863.086 126.94C863.173 127.027 863.433 127.113 863.866 127.2C864.299 127.287 864.993 127.373 865.946 127.46C866.986 127.547 868.416 127.633 870.236 127.72C872.056 127.72 874.439 127.677 877.386 127.59C877.646 127.33 877.863 126.897 878.036 126.29C878.209 125.683 878.469 124.773 878.816 123.56C879.163 122.347 879.639 120.743 880.246 118.75C880.853 116.757 881.676 114.243 882.716 111.21C882.716 111.21 882.586 111.21 882.326 111.21C882.066 111.21 881.329 111.21 880.116 111.21C878.989 111.21 877.213 111.253 874.786 111.34C872.359 111.34 869.023 111.34 864.776 111.34L864.516 97.3C864.516 97.3 864.646 97.3433 864.906 97.43C865.253 97.5167 865.989 97.6467 867.116 97.82C868.329 97.9067 870.193 97.9933 872.706 98.08C875.219 98.08 878.686 98.0367 883.106 97.95C883.713 97.95 884.406 97.9933 885.186 98.08C885.966 98.08 886.616 98.0367 887.136 97.95C887.136 97.8633 887.136 97.82 887.136 97.82C887.223 97.82 887.266 97.7767 887.266 97.69C887.526 97.17 887.916 96.0867 888.436 94.44C889.043 92.7933 889.649 90.9733 890.256 88.98C890.949 86.9 891.556 84.9067 892.076 83C892.683 81.0067 893.116 79.4033 893.376 78.19V78.06C893.636 78.1467 894.026 78.2333 894.546 78.32C895.153 78.32 896.019 78.32 897.146 78.32C898.359 78.32 899.919 78.3633 901.826 78.45C903.733 78.5367 906.073 78.6233 908.846 78.71C908.846 78.8833 908.759 79.2733 908.586 79.88C908.499 80.4867 908.239 81.5267 907.806 83C907.373 84.3867 906.766 86.2933 905.986 88.72C905.206 91.06 904.253 94.0933 903.126 97.82C905.466 97.9067 907.849 97.9067 910.276 97.82C912.703 97.7333 915.476 97.7333 918.596 97.82C919.289 96.6933 920.199 94.3967 921.326 90.93C922.453 87.4633 923.709 83.13 925.096 77.93H925.226H925.356C927.783 78.3633 930.209 78.45 932.636 78.19C935.149 77.93 937.619 78.0167 940.046 78.45C940.133 78.97 940.133 79.5333 940.046 80.14C939.959 80.66 939.699 81.57 939.266 82.87C938.919 84.17 938.356 86.0333 937.576 88.46C936.883 90.8 935.929 94.05 934.716 98.21C936.103 98.21 937.446 98.2533 938.746 98.34C940.133 98.34 941.519 98.34 942.906 98.34ZM895.586 119.27C894.719 122.043 893.809 124.817 892.856 127.59L909.106 127.46C909.106 127.373 909.106 127.33 909.106 127.33C909.193 127.243 909.236 127.157 909.236 127.07C909.843 124.383 910.666 121.783 911.706 119.27C912.746 116.757 913.656 114.07 914.436 111.21V111.08H914.306H914.176C911.403 110.993 908.759 110.95 906.246 110.95C903.733 110.863 901.219 110.82 898.706 110.82H898.446V110.95C897.493 113.723 896.539 116.497 895.586 119.27ZM1006.6 160.35C1006.6 160.437 1006.43 160.48 1006.08 160.48L956.679 161.13H950.829C950.742 161.043 950.699 160.913 950.699 160.74C950.959 157.793 951.045 154.89 950.959 152.03C950.959 149.17 951.045 146.397 951.219 143.71C951.392 140.937 951.739 138.293 952.259 135.78C952.865 133.18 953.862 130.753 955.249 128.5C957.329 126.16 959.495 124.167 961.749 122.52C964.089 120.787 966.429 119.183 968.769 117.71C971.195 116.237 973.579 114.807 975.919 113.42C978.345 112.033 980.685 110.43 982.939 108.61C984.672 107.483 985.885 105.923 986.579 103.93C987.359 101.937 987.662 99.9433 987.489 97.95C987.315 95.9567 986.622 94.2233 985.409 92.75C984.282 91.19 982.722 90.28 980.729 90.02C978.649 90.02 976.959 90.54 975.659 91.58C974.445 92.62 973.492 93.9633 972.799 95.61C972.192 97.17 971.759 98.86 971.499 100.68C971.325 102.5 971.195 104.19 971.109 105.75V106.01H970.979C967.079 106.443 963.612 106.747 960.579 106.92C957.632 107.093 954.685 107.007 951.739 106.66H951.609V106.4C950.569 100.42 950.569 94.83 951.609 89.63C952.735 84.3433 954.902 79.9233 958.109 76.37C959.842 74.1167 962.312 72.3833 965.519 71.17C968.725 69.9567 972.149 69.1767 975.789 68.83C979.429 68.4833 982.982 68.5267 986.449 68.96C990.002 69.3067 992.949 69.9567 995.289 70.91C999.189 72.9033 1002.18 75.85 1004.26 79.75C1006.34 83.65 1007.6 87.94 1008.03 92.62C1008.12 94.44 1008.2 96.4333 1008.29 98.6C1008.38 100.68 1008.38 102.587 1008.29 104.32C1008.03 107.527 1007.21 110.257 1005.82 112.51C1004.52 114.677 1002.87 116.583 1000.88 118.23C998.972 119.877 996.805 121.307 994.379 122.52C992.039 123.733 989.655 124.947 987.229 126.16C984.889 127.373 982.592 128.673 980.339 130.06C978.172 131.36 976.309 132.963 974.749 134.87C974.575 135.303 974.315 135.91 973.969 136.69C973.709 137.47 973.449 138.25 973.189 139.03C973.015 139.81 972.885 140.547 972.799 141.24C972.799 141.847 972.972 142.237 973.319 142.41C979.125 142.583 984.499 142.583 989.439 142.41C994.465 142.237 999.795 142.15 1005.43 142.15C1006.12 143.883 1006.47 145.877 1006.47 148.13C1006.47 150.297 1006.43 152.463 1006.34 154.63C1006.34 155.583 1006.3 156.537 1006.21 157.49C1006.21 158.443 1006.34 159.397 1006.6 160.35Z" fill="white"/>
<g clip-path="url(#clip0_10_3127)">
<path d="M510 522H330V540H510V522Z" fill="#807F7E"/>
<path d="M510 540H330V558H510V540Z" fill="#807F7E"/>
<path d="M366 558H330V576H366V558Z" fill="#807F7E"/>
<path d="M510 558H384V576H510V558Z" fill="#807F7E"/>
<path d="M366 576H330V594H366V576Z" fill="#807F7E"/>
<path d="M510 576H384V594H510V576Z" fill="#807F7E"/>
<path d="M366 594H330V612H366V594Z" fill="#807F7E"/>
<path d="M510 594H384V612H510V594Z" fill="#807F7E"/>
<path d="M366 612H330V630H366V612Z" fill="#807F7E"/>
<path d="M510 612H384V630H510V612Z" fill="#807F7E"/>
<path d="M474 558H402V576H474V558Z" fill="#62616D"/>
<path d="M438 576H420V594H438V576Z" fill="#62616D"/>
<path d="M474 576H456V594H474V576Z" fill="#62616D"/>
<path d="M438 594H420V612H438V594Z" fill="#62616D"/>
<path d="M492 594H474V612H492V594Z" fill="#62616D"/>
<path d="M618 234H222V252H618V234Z" fill="#62616D"/>
<path d="M240 252H222V270H240V252Z" fill="#62616D"/>
<path d="M258 252H240V270H258V252Z" fill="#FFFDF2"/>
<path d="M276 252H258V270H276V252Z" fill="#7CC4F2"/>
<path d="M600 252H276V270H600V252Z" fill="#FFFDF2"/>
<path d="M618 252H600V270H618V252Z" fill="#62616D"/>
<path d="M240 270H222V288H240V270Z" fill="#62616D"/>
<path d="M600 270H240V288H600V270Z" fill="#26B1F3"/>
<path d="M618 270H600V288H618V270Z" fill="#62616D"/>
<path d="M240 288H222V306H240V288Z" fill="#62616D"/>
<path d="M600 288H240V306H600V288Z" fill="#26B1F3"/>
<path d="M618 288H600V306H618V288Z" fill="#62616D"/>
<path d="M240 306H222V324H240V306Z" fill="#62616D"/>
<path d="M600 306H240V324H600V306Z" fill="#26B1F3"/>
<path d="M618 306H600V324H618V306Z" fill="#62616D"/>
<path d="M240 324H222V342H240V324Z" fill="#62616D"/>
<path d="M600 324H240V342H600V324Z" fill="#26B1F3"/>
<path d="M618 324H600V342H618V324Z" fill="#62616D"/>
<path d="M240 342H222V360H240V342Z" fill="#62616D"/>
<path d="M600 342H240V360H600V342Z" fill="#26B1F3"/>
<path d="M618 342H600V360H618V342Z" fill="#62616D"/>
<path d="M240 360H222V378H240V360Z" fill="#62616D"/>
<path d="M600 360H240V378H600V360Z" fill="#26B1F3"/>
<path d="M618 360H600V378H618V360Z" fill="#62616D"/>
<path d="M240 378H222V396H240V378Z" fill="#62616D"/>
<path d="M600 378H240V396H600V378Z" fill="#26B1F3"/>
<path d="M618 378H600V396H618V378Z" fill="#62616D"/>
<path d="M240 396H222V414H240V396Z" fill="#62616D"/>
<path d="M600 396H240V414H600V396Z" fill="#26B1F3"/>
<path d="M618 396H600V414H618V396Z" fill="#62616D"/>
<path d="M240 414H222V432H240V414Z" fill="#62616D"/>
<path d="M600 414H240V432H600V414Z" fill="#26B1F3"/>
<path d="M618 414H600V432H618V414Z" fill="#62616D"/>
<path d="M240 432H222V450H240V432Z" fill="#62616D"/>
<path d="M600 432H240V450H600V432Z" fill="#26B1F3"/>
<path d="M618 432H600V450H618V432Z" fill="#62616D"/>
<path d="M276 450H222V468H276V450Z" fill="#62616D"/>
<path d="M294 450H276V468H294V450Z" fill="#1F1D29"/>
<path d="M312 450H294V468H312V450Z" fill="#62616D"/>
<path d="M330 450H312V468H330V450Z" fill="#1F1D29"/>
<path d="M348 450H330V468H348V450Z" fill="#62616D"/>
<path d="M366 450H348V468H366V450Z" fill="#1F1D29"/>
<path d="M384 450H366V468H384V450Z" fill="#62616D"/>
<path d="M402 450H384V468H402V450Z" fill="#1F1D29"/>
<path d="M420 450H402V468H420V450Z" fill="#62616D"/>
<path d="M438 450H420V468H438V450Z" fill="#1F1D29"/>
<path d="M456 450H438V468H456V450Z" fill="#62616D"/>
<path d="M474 450H456V468H474V450Z" fill="#1F1D29"/>
<path d="M492 450H474V468H492V450Z" fill="#62616D"/>
<path d="M510 450H492V468H510V450Z" fill="#1F1D29"/>
<path d="M528 450H510V468H528V450Z" fill="#62616D"/>
<path d="M546 450H528V468H546V450Z" fill="#1F1D29"/>
<path d="M564 450H546V468H564V450Z" fill="#62616D"/>
<path d="M582 450H564V468H582V450Z" fill="#1F1D29"/>
<path d="M618 450H582V468H618V450Z" fill="#62616D"/>
<path d="M258 468H222V486H258V468Z" fill="#62616D"/>
<path d="M600 468H258V486H600V468Z" fill="#1F1D29"/>
<path d="M618 468H600V486H618V468Z" fill="#62616D"/>
<path d="M258 486H222V504H258V486Z" fill="#62616D"/>
<path d="M276 486H258V504H276V486Z" fill="#1F1D29"/>
<path d="M294 486H276V504H294V486Z" fill="#62616D"/>
<path d="M312 486H294V504H312V486Z" fill="#1F1D29"/>
<path d="M330 486H312V504H330V486Z" fill="#62616D"/>
<path d="M348 486H330V504H348V486Z" fill="#1F1D29"/>
<path d="M366 486H348V504H366V486Z" fill="#62616D"/>
<path d="M384 486H366V504H384V486Z" fill="#1F1D29"/>
<path d="M402 486H384V504H402V486Z" fill="#62616D"/>
<path d="M420 486H402V504H420V486Z" fill="#1F1D29"/>
<path d="M438 486H420V504H438V486Z" fill="#62616D"/>
<path d="M456 486H438V504H456V486Z" fill="#1F1D29"/>
<path d="M474 486H456V504H474V486Z" fill="#62616D"/>
<path d="M492 486H474V504H492V486Z" fill="#1F1D29"/>
<path d="M510 486H492V504H510V486Z" fill="#62616D"/>
<path d="M528 486H510V504H528V486Z" fill="#1F1D29"/>
<path d="M546 486H528V504H546V486Z" fill="#62616D"/>
<path d="M564 486H546V504H564V486Z" fill="#1F1D29"/>
<path d="M618 486H564V504H618V486Z" fill="#62616D"/>
<path d="M240 504H222V522H240V504Z" fill="#62616D"/>
<path d="M582 504H240V522H582V504Z" fill="#1F1D29"/>
<path d="M618 504H582V522H618V504Z" fill="#62616D"/>
<path d="M618 522H222V540H618V522Z" fill="#62616D"/>
<path d="M420 306H276V324H420V306Z" fill="#9CB4B8"/>
<path d="M582 306H438V324H582V306Z" fill="#9CB4B8"/>
<path d="M294 324H276V342H294V324Z" fill="#9CB4B8"/>
<path d="M330 324H294V342H330V324Z" fill="white"/>
<path d="M402 324H330V342H402V324Z" fill="black"/>
<path d="M420 324H402V342H420V324Z" fill="#9CB4B8"/>
<path d="M456 324H438V342H456V324Z" fill="#9CB4B8"/>
<path d="M492 324H456V342H492V324Z" fill="white"/>
<path d="M564 324H492V342H564V324Z" fill="black"/>
<path d="M582 324H564V342H582V324Z" fill="#9CB4B8"/>
<path d="M294 342H276V360H294V342Z" fill="#9CB4B8"/>
<path d="M330 342H294V360H330V342Z" fill="white"/>
<path d="M402 342H330V360H402V342Z" fill="black"/>
<path d="M420 342H402V360H420V342Z" fill="#9CB4B8"/>
<path d="M456 342H438V360H456V342Z" fill="#9CB4B8"/>
<path d="M492 342H456V360H492V342Z" fill="white"/>
<path d="M564 342H492V360H564V342Z" fill="black"/>
<path d="M582 342H564V360H582V342Z" fill="#9CB4B8"/>
<path d="M294 360H222V378H294V360Z" fill="#9CB4B8"/>
<path d="M330 360H294V378H330V360Z" fill="white"/>
<path d="M402 360H330V378H402V360Z" fill="black"/>
<path d="M456 360H402V378H456V360Z" fill="#9CB4B8"/>
<path d="M492 360H456V378H492V360Z" fill="white"/>
<path d="M564 360H492V378H564V360Z" fill="black"/>
<path d="M582 360H564V378H582V360Z" fill="#9CB4B8"/>
<path d="M240 378H222V396H240V378Z" fill="#9CB4B8"/>
<path d="M294 378H276V396H294V378Z" fill="#9CB4B8"/>
<path d="M330 378H294V396H330V378Z" fill="white"/>
<path d="M402 378H330V396H402V378Z" fill="black"/>
<path d="M420 378H402V396H420V378Z" fill="#9CB4B8"/>
<path d="M456 378H438V396H456V378Z" fill="#9CB4B8"/>
<path d="M492 378H456V396H492V378Z" fill="white"/>
<path d="M564 378H492V396H564V378Z" fill="black"/>
<path d="M582 378H564V396H582V378Z" fill="#9CB4B8"/>
<path d="M240 396H222V414H240V396Z" fill="#9CB4B8"/>
<path d="M294 396H276V414H294V396Z" fill="#9CB4B8"/>
<path d="M330 396H294V414H330V396Z" fill="white"/>
<path d="M402 396H330V414H402V396Z" fill="black"/>
<path d="M420 396H402V414H420V396Z" fill="#9CB4B8"/>
<path d="M456 396H438V414H456V396Z" fill="#9CB4B8"/>
<path d="M492 396H456V414H492V396Z" fill="white"/>
<path d="M564 396H492V414H564V396Z" fill="black"/>
<path d="M582 396H564V414H582V396Z" fill="#9CB4B8"/>
<path d="M294 414H276V432H294V414Z" fill="#9CB4B8"/>
<path d="M330 414H294V432H330V414Z" fill="white"/>
<path d="M402 414H330V432H402V414Z" fill="black"/>
<path d="M420 414H402V432H420V414Z" fill="#9CB4B8"/>
<path d="M456 414H438V432H456V414Z" fill="#9CB4B8"/>
<path d="M492 414H456V432H492V414Z" fill="white"/>
<path d="M564 414H492V432H564V414Z" fill="black"/>
<path d="M582 414H564V432H582V414Z" fill="#9CB4B8"/>
<path d="M420 432H276V450H420V432Z" fill="#9CB4B8"/>
<path d="M582 432H438V450H582V432Z" fill="#9CB4B8"/>
</g>
<path d="M909 320H891V329H909V320Z" fill="black"/>
<path d="M909 329H900V338H909V329Z" fill="#A86F60"/>
<path d="M837 338H828V347H837V338Z" fill="#A86F60"/>
<path d="M936 338H864V347H936V338Z" fill="black"/>
<path d="M837 347H819V356H837V347Z" fill="black"/>
<path d="M945 347H873V356H945V347Z" fill="black"/>
<path d="M981 347H963V356H981V347Z" fill="black"/>
<path d="M837 356H828V365H837V356Z" fill="#A86F60"/>
<path d="M891 356H882V365H891V356Z" fill="black"/>
<path d="M900 356H891V365H900V356Z" fill="#FFF0EE"/>
<path d="M909 356H900V365H909V356Z" fill="black"/>
<path d="M927 356H909V365H927V356Z" fill="#FFF0EE"/>
<path d="M936 356H927V365H936V356Z" fill="black"/>
<path d="M945 356H936V365H945V356Z" fill="#FFF0EE"/>
<path d="M954 356H945V365H954V356Z" fill="black"/>
<path d="M981 356H972V365H981V356Z" fill="#A86F60"/>
<path d="M828 365H810V374H828V365Z" fill="#E11833"/>
<path d="M837 365H828V374H837V365Z" fill="#A86F60"/>
<path d="M909 365H882V374H909V365Z" fill="black"/>
<path d="M927 365H909V374H927V365Z" fill="#FFF0EE"/>
<path d="M954 365H927V374H954V365Z" fill="black"/>
<path d="M990 365H963V374H990V365Z" fill="#E11833"/>
<path d="M837 374H810V383H837V374Z" fill="#E11833"/>
<path d="M918 374H882V383H918V374Z" fill="black"/>
<path d="M927 374H918V383H927V374Z" fill="#FFF0EE"/>
<path d="M954 374H927V383H954V374Z" fill="black"/>
<path d="M999 374H972V383H999V374Z" fill="#E11833"/>
<path d="M846 383H810V392H846V383Z" fill="#E11833"/>
<path d="M891 383H873V392H891V383Z" fill="black"/>
<path d="M900 383H891V392H900V383Z" fill="#FFF0EE"/>
<path d="M936 383H900V392H936V383Z" fill="black"/>
<path d="M945 383H936V392H945V383Z" fill="#FFF0EE"/>
<path d="M954 383H945V392H954V383Z" fill="black"/>
<path d="M990 383H963V392H990V383Z" fill="#E11833"/>
<path d="M855 392H801V401H855V392Z" fill="#E11833"/>
<path d="M945 392H864V401H945V392Z" fill="black"/>
<path d="M981 392H972V401H981V392Z" fill="#A86F60"/>
<path d="M837 401H828V410H837V401Z" fill="#A86F60"/>
<path d="M909 401H900V410H909V401Z" fill="#A86F60"/>
<path d="M981 401H972V410H981V401Z" fill="#A86F60"/>
<path d="M837 410H828V419H837V410Z" fill="#A86F60"/>
<path d="M909 410H900V419H909V410Z" fill="#A86F60"/>
<path d="M981 410H972V419H981V410Z" fill="#A86F60"/>
<path d="M900 419H783V428H900V419Z" fill="#FFC110"/>
<path d="M909 419H900V428H909V419Z" fill="#A86F60"/>
<path d="M981 419H972V428H981V419Z" fill="#A86F60"/>
<path d="M891 428H783V437H891V428Z" fill="#7E5243"/>
<path d="M900 428H891V437H900V428Z" fill="#FFC110"/>
<path d="M909 428H900V437H909V428Z" fill="#A86F60"/>
<path d="M981 428H972V437H981V428Z" fill="#A86F60"/>
<path d="M792 437H783V446H792V437Z" fill="#7E5243"/>
<path d="M810 437H792V446H810V437Z" fill="black"/>
<path d="M891 437H810V446H891V437Z" fill="#7E5243"/>
<path d="M900 437H891V446H900V437Z" fill="#FFC110"/>
<path d="M972 437H900V446H972V437Z" fill="#7E5243"/>
<path d="M981 437H972V446H981V437Z" fill="#A86F60"/>
<path d="M1035 437H990V446H1035V437Z" fill="#FFC110"/>
<path d="M792 446H783V455H792V446Z" fill="#7E5243"/>
<path d="M810 446H792V455H810V446Z" fill="black"/>
<path d="M891 446H810V455H891V446Z" fill="#7E5243"/>
<path d="M900 446H891V455H900V446Z" fill="#FFC110"/>
<path d="M909 446H900V455H909V446Z" fill="#A86F60"/>
<path d="M927 446H918V455H927V446Z" fill="#7E5243"/>
<path d="M945 446H936V455H945V446Z" fill="#7E5243"/>
<path d="M963 446H954V455H963V446Z" fill="#7E5243"/>
<path d="M981 446H972V455H981V446Z" fill="#A86F60"/>
<path d="M990 446H981V455H990V446Z" fill="#FFC110"/>
<path d="M1026 446H990V455H1026V446Z" fill="#7E5243"/>
<path d="M891 455H783V464H891V455Z" fill="#7E5243"/>
<path d="M981 455H891V464H981V455Z" fill="#FFC110"/>
<path d="M1008 455H981V464H1008V455Z" fill="#7E5243"/>
<path d="M837 464H801V473H837V464Z" fill="#7E5243"/>
<path d="M846 464H837V473H846V464Z" fill="black"/>
<path d="M990 464H846V473H990V464Z" fill="#7E5243"/>
<path d="M828 473H810V482H828V473Z" fill="#7E5243"/>
<path d="M855 473H828V482H855V473Z" fill="black"/>
<path d="M864 473H855V482H864V473Z" fill="#7E5243"/>
<path d="M873 473H864V482H873V473Z" fill="black"/>
<path d="M882 473H873V482H882V473Z" fill="#7E5243"/>
<path d="M891 473H882V482H891V473Z" fill="black"/>
<path d="M900 473H891V482H900V473Z" fill="#7E5243"/>
<path d="M909 473H900V482H909V473Z" fill="black"/>
<path d="M918 473H909V482H918V473Z" fill="#7E5243"/>
<path d="M927 473H918V482H927V473Z" fill="black"/>
<path d="M936 473H927V482H936V473Z" fill="#7E5243"/>
<path d="M945 473H936V482H945V473Z" fill="black"/>
<path d="M981 473H945V482H981V473Z" fill="#7E5243"/>
<path d="M837 482H819V491H837V482Z" fill="#7E5243"/>
<path d="M846 482H837V491H846V482Z" fill="black"/>
<path d="M972 482H846V491H972V482Z" fill="#7E5243"/>
<path d="M963 491H828V500H963V491Z" fill="#7E5243"/>
<defs>
<clipPath id="clip0_10_3127">
<rect width="576" height="576" fill="white" transform="translate(132 54)"/>
</clipPath>
</defs>
</svg>
